<?xml version="1.0" encoding="UTF-8"?>
<!DOCTYPE svg PUBLIC "-//W3C//DTD SVG 1.1//EN" "http://www.w3.org/Graphics/SVG/1.1/DTD/svg11.dtd">
<!-- Creator: CorelDRAW X7 -->
<svg xmlns="http://www.w3.org/2000/svg" xml:space="preserve" width="2000px" height="210px" version="1.1" style="shape-rendering:geometricPrecision; text-rendering:geometricPrecision; image-rendering:optimizeQuality; fill-rule:evenodd; clip-rule:evenodd"
viewBox="0 0 1818 185"
 xmlns:xlink="http://www.w3.org/1999/xlink">
 <defs>
  <style type="text/css">
   <![CDATA[
    .str0 {stroke:#444;stroke-width:0.75}
    .fil0 {fill:none;fill-rule:nonzero}
   ]]>
  </style>
 </defs>
 <g id="Capa_x0020_1">
  <metadata id="CorelCorpID_0Corel-Layer"/>
  <path class="fil0 str0" d="M126 175c-8,3 -15,5 -23,7 -7,1 -15,2 -23,2 -13,0 -24,-2 -34,-6 -10,-3 -18,-9 -25,-16 -7,-8 -12,-17 -15,-28 -4,-11 -6,-24 -6,-39 0,-15 2,-28 6,-40 4,-11 9,-21 16,-29 8,-8 16,-14 26,-19 10,-4 22,-6 34,-6 5,0 8,0 12,0 4,0 7,1 11,1 3,1 6,1 10,2 4,1 7,2 11,3l0 34c-8,-4 -15,-7 -22,-8 -7,-2 -13,-2 -19,-2 -9,0 -16,1 -22,4 -6,3 -11,7 -15,13 -3,5 -6,12 -8,20 -2,7 -3,16 -3,25 0,9 1,18 3,25 2,8 5,14 9,20 4,5 9,9 15,12 6,3 13,4 21,4 3,0 7,0 10,-1 4,-1 7,-1 11,-2 3,-1 7,-2 10,-4 4,-1 7,-2 10,-4l0 32z"/>
  <path id="1" class="fil0 str0" d="M277 182l-10 -36 -62 0 -10 36 -33 0 53 -179 46 0 53 179 -37 0zm-40 -146l-24 83 47 0 -23 -83z"/>
  <polygon id="2" class="fil0 str0" points="434,182 386,75 376,52 376,126 376,182 346,182 346,3 387,3 436,110 444,131 444,53 444,3 475,3 475,182 "/>
  <path id="3" class="fil0 str0" d="M621 182l-10 -36 -62 0 -10 36 -33 0 52 -179 47 0 53 179 -37 0zm-40 -146l-24 83 47 0 -23 -83z"/>
  <polygon id="4" class="fil0 str0" points="704,182 704,3 738,3 738,153 813,153 813,182 "/>
  <polygon id="5" class="fil0 str0" points="874,182 874,3 981,3 981,32 908,32 908,76 978,76 978,104 908,104 908,153 981,153 981,182 "/>
  <path id="6" class="fil0 str0" d="M1160 128c0,9 -2,18 -6,25 -3,7 -8,13 -15,18 -6,5 -14,8 -23,10 -9,3 -18,4 -29,4 -9,0 -18,-1 -27,-2 -9,-1 -17,-3 -26,-5l0 -34c4,2 9,3 13,5 5,1 9,2 14,3 4,1 9,2 14,2 4,1 9,1 13,1 6,0 12,0 16,-2 4,-1 8,-2 11,-4 3,-2 5,-4 6,-7 1,-3 2,-6 2,-9 0,-4 -1,-8 -4,-11 -2,-3 -6,-5 -10,-7 -4,-3 -8,-5 -14,-7 -5,-1 -10,-3 -16,-6 -5,-2 -10,-4 -16,-7 -5,-2 -9,-5 -14,-9 -4,-4 -7,-9 -9,-14 -3,-6 -4,-12 -4,-20 0,-7 1,-14 4,-20 2,-6 6,-12 12,-16 5,-5 12,-9 21,-11 8,-3 18,-5 31,-5 3,0 7,1 11,1 4,0 7,1 11,1 4,1 8,1 11,2 4,1 7,1 10,2l0 31c-3,-1 -6,-2 -10,-3 -3,-1 -7,-2 -11,-3 -3,0 -7,-1 -11,-1 -3,-1 -7,-1 -10,-1 -6,0 -11,1 -15,2 -4,1 -8,2 -10,4 -3,1 -5,3 -6,6 -1,2 -2,5 -2,8 0,4 1,7 4,10 2,2 6,5 10,7 4,2 9,4 14,6 5,2 10,4 16,6 5,2 11,4 16,7 5,3 10,6 14,10 4,4 8,9 10,14 3,5 4,11 4,19z"/>
  <polygon id="7" class="fil0 str0" points="1426,182 1382,182 1328,3 1366,3 1396,111 1405,146 1416,109 1445,3 1481,3 "/>
  <path id="8" class="fil0 str0" d="M1648 92c0,16 -2,30 -6,42 -3,11 -8,21 -15,28 -7,8 -14,14 -23,17 -9,4 -19,6 -29,6 -23,0 -41,-8 -53,-24 -11,-15 -17,-38 -17,-68 0,-16 2,-30 5,-41 4,-12 9,-22 16,-29 6,-8 14,-14 23,-17 9,-4 18,-6 28,-6 24,0 42,8 53,24 12,15 18,38 18,68zm-35 1c0,-21 -3,-37 -9,-47 -5,-10 -15,-15 -28,-15 -6,0 -12,1 -16,4 -5,2 -8,6 -11,11 -3,6 -5,12 -7,20 -1,7 -2,16 -2,26 0,21 3,37 9,47 5,10 15,16 27,16 7,0 12,-2 17,-5 5,-2 8,-6 11,-11 3,-6 5,-12 7,-20 1,-7 2,-16 2,-26z"/>
  <path id="9" class="fil0 str0" d="M1818 90c0,14 -2,27 -5,38 -4,11 -9,21 -16,29 -7,8 -17,14 -28,18 -11,4 -25,7 -40,7l-46 0 0 -179 53 0c14,0 26,2 36,6 10,3 19,8 25,15 7,7 12,16 16,27 3,11 5,24 5,39zm-36 2c0,-9 -1,-18 -3,-25 -1,-8 -4,-14 -7,-19 -4,-6 -9,-10 -15,-12 -6,-3 -14,-4 -23,-4l-17 0 0 121 15 0c16,0 28,-4 37,-14 9,-10 13,-25 13,-47z"/>
 </g>
</svg>
