<?xml version="1.0" encoding="UTF-8"?>
<!DOCTYPE svg PUBLIC "-//W3C//DTD SVG 1.1//EN" "http://www.w3.org/Graphics/SVG/1.1/DTD/svg11.dtd">
<!-- Creator: CorelDRAW X7 -->
<svg xmlns="http://www.w3.org/2000/svg" xml:space="preserve" width="2700px" height="210px" version="1.1" style="shape-rendering:geometricPrecision; text-rendering:geometricPrecision; image-rendering:optimizeQuality; fill-rule:evenodd; clip-rule:evenodd"
viewBox="0 0 3359 252"
 xmlns:xlink="http://www.w3.org/1999/xlink">
 <defs>
  <style type="text/css">
   <![CDATA[
    .str0 {stroke:#444;stroke-width:1.5}
    .fil0 {fill:none;fill-rule:nonzero}
   ]]>
  </style>
 </defs>
 <g id="Capa_x0020_1">
  <metadata id="CorelCorpID_0Corel-Layer"/>
  <path class="fil0 str0" d="M171 237c-10,5 -21,8 -31,10 -10,2 -20,3 -31,3 -18,0 -33,-2 -46,-7 -14,-6 -25,-13 -34,-23 -10,-10 -17,-23 -21,-38 -5,-15 -7,-32 -7,-52 0,-21 2,-39 7,-55 6,-16 13,-29 23,-40 9,-11 21,-19 35,-25 13,-6 29,-9 46,-9 6,0 11,0 16,1 5,0 9,0 14,1 5,1 10,2 14,3 5,1 10,2 15,4l0 45c-10,-5 -20,-8 -30,-10 -9,-2 -18,-3 -26,-3 -11,0 -21,2 -29,6 -8,4 -15,10 -20,17 -5,8 -9,17 -12,27 -2,10 -3,22 -3,34 0,13 1,25 3,35 3,10 7,19 12,26 6,7 12,13 21,17 8,3 18,5 29,5 4,0 8,0 13,-1 5,-1 10,-2 15,-3 5,-1 9,-3 14,-5 5,-1 9,-3 13,-5l0 42z"/>
  <path id="1" class="fil0 str0" d="M377 247l-13 -48 -85 0 -14 48 -45 0 72 -242 63 0 72 242 -50 0zm-55 -198l-33 113 64 0 -31 -113z"/>
  <polygon id="2" class="fil0 str0" points="590,247 525,102 512,71 512,172 512,247 470,247 470,5 526,5 592,150 604,178 604,72 604,5 646,5 646,247 "/>
  <path id="3" class="fil0 str0" d="M844 247l-13 -48 -85 0 -13 48 -46 0 72 -242 64 0 72 242 -51 0zm-55 -198l-32 113 63 0 -31 -113z"/>
  <polygon id="4" class="fil0 str0" points="957,247 957,5 1003,5 1003,208 1105,208 1105,247 "/>
  <polygon id="5" class="fil0 str0" points="1188,247 1188,5 1334,5 1334,43 1234,43 1234,103 1329,103 1329,141 1234,141 1234,208 1334,208 1334,247 "/>
  <path id="6" class="fil0 str0" d="M1576 174c0,13 -2,24 -7,34 -5,10 -12,18 -20,24 -9,7 -20,11 -32,14 -12,3 -25,5 -39,5 -13,0 -25,-1 -37,-2 -12,-2 -24,-4 -35,-7l0 -46c5,2 11,4 17,6 7,2 13,3 19,5 6,1 12,2 19,3 6,0 12,1 18,1 8,0 16,-1 22,-2 6,-2 11,-4 14,-7 4,-2 7,-5 9,-9 1,-4 2,-8 2,-12 0,-6 -1,-11 -5,-15 -3,-4 -8,-7 -13,-10 -6,-3 -12,-6 -19,-9 -7,-2 -15,-5 -22,-8 -7,-3 -14,-6 -22,-9 -7,-4 -13,-8 -19,-14 -5,-5 -10,-11 -13,-19 -3,-7 -5,-16 -5,-26 0,-10 2,-19 5,-27 4,-9 9,-16 16,-23 8,-6 17,-11 29,-15 12,-4 26,-5 42,-5 5,0 10,0 15,0 5,1 11,1 16,2 5,1 10,1 14,2 5,1 10,2 14,3l0 42c-4,-2 -9,-3 -13,-4 -5,-1 -10,-3 -15,-3 -5,-1 -10,-2 -15,-3 -5,0 -10,0 -14,0 -8,0 -15,0 -21,2 -5,1 -10,3 -14,5 -3,2 -6,5 -7,8 -2,4 -3,7 -3,12 0,5 2,9 5,13 4,3 8,7 14,9 5,3 12,6 19,9 7,2 14,5 22,8 7,3 15,6 22,10 7,3 13,8 19,13 5,5 10,12 13,19 4,7 5,16 5,26z"/>
  <polygon id="7" class="fil0 str0" points="1839,247 1839,5 1985,5 1985,43 1885,43 1885,103 1980,103 1980,141 1885,141 1885,208 1985,208 1985,247 "/>
  <polygon id="8" class="fil0 str0" points="2176,247 2111,102 2097,71 2097,172 2097,247 2056,247 2056,5 2112,5 2178,150 2190,178 2190,72 2190,5 2231,5 2231,247 "/>
  <polygon id="9" class="fil0 str0" points="2590,247 2529,247 2455,5 2507,5 2548,151 2561,198 2575,148 2616,5 2664,5 "/>
  <polygon id="10" class="fil0 str0" points="2717,42 2717,5 2870,5 2870,42 2817,42 2817,209 2870,209 2870,247 2717,247 2717,209 2771,209 2771,42 "/>
  <polygon id="11" class="fil0 str0" points="3057,247 2997,247 2923,5 2975,5 3016,151 3029,198 3042,148 3083,5 3132,5 "/>
  <path id="12" class="fil0 str0" d="M3359 125c0,22 -3,41 -8,57 -5,15 -12,29 -21,39 -9,10 -20,18 -32,23 -12,5 -25,7 -38,7 -32,0 -56,-11 -72,-32 -16,-21 -24,-52 -24,-92 0,-22 2,-41 7,-57 5,-16 12,-29 21,-39 9,-11 20,-18 32,-23 12,-5 25,-7 39,-7 31,0 55,10 71,31 17,21 25,52 25,93zm-49 2c0,-29 -3,-50 -11,-64 -8,-14 -20,-21 -38,-21 -9,0 -16,1 -22,5 -7,4 -12,9 -16,16 -4,7 -7,16 -8,26 -2,10 -3,22 -3,36 0,28 4,50 11,64 8,14 21,21 38,21 9,0 16,-2 23,-5 6,-4 11,-9 15,-16 4,-8 7,-16 9,-27 1,-10 2,-22 2,-35z"/>
 </g>
</svg>
