<?xml version="1.0" encoding="UTF-8"?>
<!DOCTYPE svg PUBLIC "-//W3C//DTD SVG 1.1//EN" "http://www.w3.org/Graphics/SVG/1.1/DTD/svg11.dtd">
<!-- Creator: CorelDRAW X7 -->
<svg xmlns="http://www.w3.org/2000/svg" xml:space="preserve" width="1280px" height="210px" version="1.1" style="shape-rendering:geometricPrecision; text-rendering:geometricPrecision; image-rendering:optimizeQuality; fill-rule:evenodd; clip-rule:evenodd"
viewBox="0 0 733 118"
 xmlns:xlink="http://www.w3.org/1999/xlink">
 <defs>
  <style type="text/css">
   <![CDATA[
    .str0 {stroke:#444;stroke-width:0.5}
    .fil0 {fill:none;fill-rule:nonzero}
   ]]>
  </style>
 </defs>
 <g id="Capa_x0020_1">
  <metadata id="CorelCorpID_0Corel-Layer"/>
  <polygon class="fil0 str0" points="0,116 0,2 69,2 69,20 22,20 22,49 67,49 67,66 22,66 22,98 69,98 69,116 "/>
  <polygon id="1" class="fil0 str0" points="157,116 129,116 94,2 118,2 138,71 144,93 150,70 169,2 192,2 "/>
  <polygon id="2" class="fil0 str0" points="220,116 220,2 289,2 289,20 242,20 242,49 287,49 287,66 242,66 242,98 289,98 289,116 "/>
  <polygon id="3" class="fil0 str0" points="379,116 348,48 342,34 342,81 342,116 322,116 322,2 349,2 380,71 385,84 385,34 385,2 405,2 405,116 "/>
  <polygon id="4" class="fil0 str0" points="484,20 484,116 462,116 462,20 431,20 431,2 515,2 515,20 "/>
  <path id="5" class="fil0 str0" d="M629 59c0,10 -1,19 -4,26 -2,8 -5,14 -10,19 -4,5 -9,8 -14,11 -6,2 -12,3 -19,3 -15,0 -26,-5 -33,-15 -8,-10 -12,-24 -12,-43 0,-11 1,-20 4,-27 2,-8 6,-14 10,-19 4,-4 9,-8 15,-10 5,-3 11,-4 18,-4 15,0 26,5 34,15 7,10 11,25 11,44zm-23 1c0,-14 -1,-24 -5,-31 -4,-6 -10,-9 -18,-9 -4,0 -8,0 -10,2 -3,2 -6,4 -8,8 -2,3 -3,7 -4,12 -1,5 -1,10 -1,17 0,13 2,23 5,30 4,7 10,10 18,10 4,0 8,-1 11,-3 3,-1 5,-4 7,-7 2,-4 3,-8 4,-13 1,-4 1,-10 1,-16z"/>
  <path id="6" class="fil0 str0" d="M733 82c0,6 -1,11 -4,16 -2,4 -5,8 -9,11 -4,3 -9,5 -15,7 -6,1 -12,2 -19,2 -6,0 -11,0 -17,-1 -5,-1 -11,-2 -16,-3l0 -22c2,1 5,2 8,3 3,1 6,2 9,2 3,1 6,1 8,2 3,0 6,0 9,0 4,0 7,0 10,-1 3,-1 5,-2 7,-3 2,-1 3,-2 4,-4 1,-2 1,-4 1,-6 0,-3 0,-5 -2,-7 -2,-2 -4,-3 -6,-5 -3,-1 -6,-3 -9,-4 -4,-1 -7,-2 -11,-3 -3,-2 -6,-3 -10,-5 -3,-2 -6,-4 -9,-6 -2,-3 -4,-6 -6,-9 -2,-4 -2,-8 -2,-13 0,-4 0,-8 2,-12 2,-4 4,-8 8,-11 3,-3 8,-5 13,-7 6,-2 12,-3 20,-3 2,0 5,0 7,1 3,0 5,0 7,0 3,1 5,1 7,1 3,1 5,1 7,2l0 19c-2,0 -4,-1 -7,-1 -2,-1 -4,-2 -6,-2 -3,0 -5,-1 -8,-1 -2,0 -4,0 -6,0 -4,0 -7,0 -10,1 -3,0 -5,1 -6,2 -2,1 -3,2 -4,4 -1,2 -1,3 -1,5 0,3 1,5 2,6 2,2 4,4 7,5 2,1 5,3 9,4 3,1 6,2 10,4 3,1 7,3 10,4 3,2 7,4 9,7 3,2 5,5 6,9 2,3 3,7 3,12z"/>
 </g>
</svg>
