<?xml version="1.0" encoding="UTF-8"?>
<!DOCTYPE svg PUBLIC "-//W3C//DTD SVG 1.1//EN" "http://www.w3.org/Graphics/SVG/1.1/DTD/svg11.dtd">
<!-- Creator: CorelDRAW X7 -->
<svg xmlns="http://www.w3.org/2000/svg" xml:space="preserve" width="1383px" height="421px" version="1.1" style="shape-rendering:geometricPrecision; text-rendering:geometricPrecision; image-rendering:optimizeQuality; fill-rule:evenodd; clip-rule:evenodd"
viewBox="0 0 644 196"
 xmlns:xlink="http://www.w3.org/1999/xlink">
 <defs>
  <style type="text/css">
   <![CDATA[
    .str1 {stroke:#807258;stroke-width:1.70614}
    .str0 {stroke:#905D44;stroke-width:0.129887}
    .fil23 {fill:#211915}
    .fil24 {fill:#493A2C}
    .fil9 {fill:#4E2C16}
    .fil11 {fill:#692F13}
    .fil16 {fill:#905D44}
    .fil4 {fill:#936419}
    .fil5 {fill:#A38427}
    .fil20 {fill:#A39723}
    .fil10 {fill:#AA871C}
    .fil18 {fill:#AB0F17}
    .fil12 {fill:#B4733C}
    .fil22 {fill:#B80B13}
    .fil17 {fill:#BE8E32}
    .fil13 {fill:#C59864}
    .fil6 {fill:#CAB26D}
    .fil21 {fill:#CE6F00}
    .fil25 {fill:#D4B073}
    .fil15 {fill:#D5B278}
    .fil0 {fill:#E1AD74}
    .fil14 {fill:#E2CA93}
    .fil7 {fill:#E2D5A4}
    .fil2 {fill:#E4B64D}
    .fil1 {fill:#EBDDCE}
    .fil8 {fill:#ECE3C0}
    .fil19 {fill:#F0CE00}
    .fil3 {fill:white}
   ]]>
  </style>
 </defs>
 <g id="Capa_x0020_1">
  <metadata id="CorelCorpID_0Corel-Layer"/>
  <g id="logo_x0020_cosquin.svg">
   <g>
    <path class="fil0" d="M48 180c4,0 6,-2 6,-6l0 -4c0,-3 -2,-5 -4,-5 -2,0 -3,0 -3,2l-1 0 0 -5c0,-2 1,-2 2,-2 2,0 2,0 2,2l0 1 4 0 0 -1c0,-4 -2,-6 -6,-6 -3,0 -5,2 -5,6l0 12c0,4 2,6 5,6l0 0zm0 -4c-1,0 -2,0 -2,-2l0 -4c0,-1 1,-2 2,-2 2,0 2,1 2,2l0 4c0,2 0,2 -2,2l0 0zm13 4c4,0 6,-2 6,-6l0 -12c0,-4 -2,-6 -6,-6 -3,0 -5,2 -5,6l0 12c0,4 2,6 5,6l0 0zm0 -4c-1,0 -2,0 -2,-2l0 -12c0,-2 1,-2 2,-2 1,0 2,0 2,2l0 12c0,2 -1,2 -2,2l0 0zm13 -11c2,0 4,-2 4,-4 0,-3 -2,-5 -4,-5 -2,0 -4,2 -4,5 0,2 2,4 4,4l0 0zm0 -3c-1,0 -2,-1 -2,-1 0,-1 1,-2 2,-2 1,0 2,1 2,2 0,0 -1,1 -2,1l0 0zm13 17l4 0 0 -9 4 0 0 -4 -4 0 0 -6 6 0 0 -3 -10 0 0 22 0 0zm11 0l10 0 0 -3 -6 0 0 -7 5 0 0 -3 -5 0 0 -6 6 0 0 -3 -10 0 0 22 0 0zm17 1c3,0 5,-2 5,-6 0,-3 -1,-5 -4,-7 -2,-2 -3,-4 -3,-5 0,-2 1,-2 2,-2 1,0 2,0 2,2l0 1 3 0 0 -1c0,-4 -2,-6 -5,-6 -4,0 -5,2 -5,6 0,3 1,4 4,7 2,2 3,3 3,5 0,2 -1,2 -2,2 -1,0 -2,0 -2,-2l0 -1 -4 0 0 1c0,4 2,6 6,6l0 0zm10 -1l4 0 0 -19 3 0 0 -3 -11 0 0 3 4 0 0 19 0 0zm9 0l4 0 0 -22 -4 0 0 22 0 0zm9 0l4 0 4 -22 -3 0 -3 17 0 0 -2 -17 -4 0 4 22 0 0zm8 0l3 0 1 -4 4 0 0 0 0 4 4 0 -4 -22 -5 0 -3 22 0 0zm4 -7l2 -11 0 0 1 11 -3 0 0 0zm10 7l9 0 0 -3 -6 0 0 -19 -3 0 0 22 0 0zm16 0l3 0 0 -16 0 0 4 16 4 0 0 -22 -3 0 0 13 0 0 -4 -13 -4 0 0 22 0 0zm13 0l3 0 1 -4 4 0 0 0 0 4 4 0 -4 -22 -4 0 -4 22 0 0zm4 -7l2 -11 0 0 1 11 -3 0 0 0zm15 8c3,0 5,-2 5,-6l0 -3 -3 0 0 3c0,2 -1,2 -2,2 -1,0 -2,0 -2,-2l0 -12c0,-2 1,-2 2,-2 1,0 2,0 2,2l0 2 3 0 0 -2c0,-4 -2,-6 -5,-6 -4,0 -6,2 -6,6l0 12c0,4 2,6 6,6l0 0zm7 -1l4 0 0 -22 -4 0 0 22 0 0zm11 1c4,0 6,-2 6,-6l0 -12c0,-4 -2,-6 -6,-6 -3,0 -5,2 -5,6l0 12c0,4 2,6 5,6l0 0zm0 -4c-1,0 -1,0 -1,-2l0 -12c0,-2 0,-2 1,-2 2,0 2,0 2,2l0 12c0,2 0,2 -2,2l0 0zm8 3l3 0 0 -16 1 0 4 16 3 0 0 -22 -3 0 0 13 0 0 -3 -13 -5 0 0 22 0 0zm13 0l3 0 1 -4 4 0 0 0 1 4 3 0 -3 -22 -5 0 -4 22 0 0zm5 -7l1 -11 0 0 2 11 -3 0 0 0zm9 7l10 0 0 -3 -6 0 0 -19 -4 0 0 22 0 0zm16 0l6 0c3,0 5,-2 5,-5l0 -12c0,-3 -2,-5 -5,-5l-6 0 0 22 0 0zm4 -3l0 -16 2 0c1,0 2,1 2,2l0 12c0,2 -1,2 -2,2l-2 0 0 0zm10 3l9 0 0 -3 -6 0 0 -7 5 0 0 -3 -5 0 0 -6 6 0 0 -3 -9 0 0 22 0 0zm17 0l3 0 0 -9 5 0 0 -4 -5 0 0 -6 6 0 0 -3 -9 0 0 22 0 0zm16 1c3,0 5,-2 5,-6l0 -12c0,-4 -2,-6 -5,-6 -4,0 -6,2 -6,6l0 12c0,4 2,6 6,6l0 0zm0 -4c-1,0 -2,0 -2,-2l0 -12c0,-2 1,-2 2,-2 1,0 2,0 2,2l0 12c0,2 -1,2 -2,2l0 0zm8 3l9 0 0 -3 -6 0 0 -19 -3 0 0 22 0 0zm11 0l3 0 0 -7 2 -3 3 10 3 0 -4 -14 4 -8 -3 0 -5 9 0 -9 -3 0 0 22 0 0zm13 0l10 0 0 -3 -6 0 0 -19 -4 0 0 22 0 0zm16 1c4,0 6,-2 6,-6l0 -12c0,-4 -2,-6 -6,-6 -3,0 -5,2 -5,6l0 12c0,4 2,6 5,6l0 0zm0 -4c-1,0 -2,0 -2,-2l0 -12c0,-2 1,-2 2,-2 1,0 2,0 2,2l0 12c0,2 -1,2 -2,2l0 0zm8 3l4 0 0 -9 1 0c2,0 2,0 2,2l0 5c0,1 0,2 0,2l4 0c0,0 0,-1 0,-2l0 -4c0,-3 -1,-5 -3,-5l0 0c2,-1 3,-2 3,-5l0 -1c0,-4 -2,-5 -6,-5l-5 0 0 22 0 0zm4 -13l0 -6 1 0c2,0 2,1 2,2l0 2c0,2 -1,2 -2,2l-1 0 0 0zm9 13l10 0 0 -3 -6 0 0 -7 5 0 0 -3 -5 0 0 -6 6 0 0 -3 -10 0 0 22 0 0z"/>
    <path class="fil1" d="M18 140c12,0 19,-7 19,-19l0 -11 -12 0 0 12c0,5 -3,7 -6,7 -4,0 -7,-2 -7,-7l0 -44c0,-5 3,-8 7,-8 3,0 6,3 6,8l0 9 12 0 0 -8c0,-13 -7,-20 -19,-20 -12,0 -18,7 -18,20l0 42c0,12 6,19 18,19l0 0zm43 0c12,0 18,-7 18,-19l0 -42c0,-13 -6,-20 -18,-20 -13,0 -19,7 -19,20l0 42c0,12 6,19 19,19l0 0zm0 -11c-4,0 -7,-2 -7,-8l0 -43c0,-5 3,-8 7,-8 3,0 6,3 6,8l0 43c0,6 -3,8 -6,8l0 0zm41 11c12,0 19,-7 19,-20 0,-9 -3,-16 -14,-25 -8,-7 -10,-11 -10,-17 0,-5 2,-8 6,-8 4,0 6,3 6,8l0 4 12 0 0 -3c0,-13 -6,-20 -18,-20 -12,0 -19,7 -19,20 0,9 3,15 14,24 8,8 10,12 10,18 0,6 -2,8 -6,8 -4,0 -6,-2 -6,-8l0 -5 -12 0 0 5c0,12 6,19 18,19l0 0zm61 7l3 0 0 -12 -2 0c-2,0 -3,0 -4,-1 2,-4 3,-8 3,-13l0 -42c0,-13 -7,-20 -19,-20 -12,0 -19,7 -19,20l0 42c0,12 7,19 19,19 3,0 6,0 8,-1 2,6 6,8 11,8l0 0zm-19 -18c-4,0 -6,-2 -6,-8l0 -43c0,-5 2,-8 6,-8 4,0 7,3 7,8l0 43c0,6 -3,8 -7,8l0 0zm44 11c12,0 18,-7 18,-19l0 -61 -12 0 0 61c0,6 -2,8 -6,8 -4,0 -6,-2 -6,-8l0 -61 -13 0 0 61c0,12 7,19 19,19l0 0zm25 -85l9 0 12 -13 -13 0 -8 13 0 0zm0 84l13 0 0 -79 -13 0 0 79 0 0zm20 0l11 0 0 -57 1 0 15 57 12 0 0 -79 -11 0 0 48 0 0 -12 -48 -16 0 0 79 0 0z"/>
    <path class="fil2" d="M279 139l36 0 0 -11 -24 0 0 -2c0,-5 2,-9 10,-17 11,-12 15,-21 15,-30 0,-13 -6,-20 -18,-20 -13,0 -19,7 -19,20l0 8 12 0 0 -9c0,-5 2,-8 6,-8 4,0 7,2 7,9 0,8 -3,14 -12,24 -10,10 -13,16 -13,28l0 8 0 0zm62 1c12,0 19,-7 19,-19l0 -42c0,-13 -7,-20 -19,-20 -12,0 -19,7 -19,20l0 42c0,12 7,19 19,19l0 0zm0 -11c-4,0 -7,-2 -7,-8l0 -43c0,-5 3,-8 7,-8 4,0 6,3 6,8l0 43c0,6 -2,8 -6,8l0 0zm25 10l36 0 0 -11 -24 0 0 -2c0,-5 2,-9 10,-17 11,-12 15,-21 15,-30 0,-13 -6,-20 -18,-20 -13,0 -19,7 -19,20l0 8 12 0 0 -9c0,-5 2,-8 6,-8 4,0 7,2 7,9 0,8 -3,14 -13,24 -9,10 -12,16 -12,28l0 8 0 0zm62 1c12,0 19,-7 19,-19l0 -42c0,-13 -7,-20 -19,-20 -13,0 -19,7 -19,20l0 42c0,12 6,19 19,19l0 0zm0 -11c-4,0 -7,-2 -7,-8l0 -43c0,-5 3,-8 7,-8 4,0 6,3 6,8l0 43c0,6 -2,8 -6,8l0 0z"/>
    <path class="fil3" d="M65 33l1 -1c0,-1 1,-1 2,-2 0,-1 1,-1 1,-2 1,-1 1,-2 2,-2 0,-1 0,-2 0,-2 0,-1 0,-2 0,-2 -1,-1 -1,-1 -2,-1 0,0 -1,0 -1,0 0,0 -1,0 -1,1 0,0 -1,0 -1,0 0,0 -1,0 -1,1l0 -4c1,-1 2,-1 3,-1 1,0 1,0 2,0 1,0 2,0 2,0 1,0 2,1 2,1 1,1 1,1 1,2 1,0 1,1 1,2 0,1 -1,2 -1,3 0,1 -1,2 -2,3 0,0 -1,1 -1,2 -1,1 -2,1 -2,2l-1 0 7 0 0 3 -11 0 0 -3 0 0zm14 -15l10 0 0 3 -7 0 0 4c1,0 1,0 1,-1 0,0 1,0 1,0 2,0 3,1 4,2 1,1 2,3 2,5 0,0 -1,1 -1,2 0,1 -1,1 -1,2 -1,0 -1,1 -2,1 -1,1 -2,1 -3,1 -1,0 -1,0 -2,0 0,0 -1,0 -1,0 0,-1 -1,-1 -1,-1 0,0 0,0 -1,0l0 -3c1,0 2,0 2,0 1,0 1,1 2,1 1,0 1,-1 1,-1 1,0 1,0 1,-1 1,0 1,0 1,-1 0,0 0,0 0,-1 0,0 0,-1 0,-1 0,-1 -1,-1 -1,-1 0,0 -1,0 -1,-1 -1,0 -1,0 -1,0 -1,0 -1,0 -2,0 0,1 -1,1 -1,1l0 -10 0 0zm24 12c0,0 0,0 0,1 0,0 0,1 0,1 0,1 1,1 1,1 0,0 1,1 1,1 0,0 1,-1 1,-1 0,0 1,0 1,-1 0,0 0,-1 0,-1 0,-1 0,-1 0,-1 0,-1 0,-1 0,-2 0,-1 0,-1 0,-1 0,-1 -1,-1 -1,-1 0,-1 -1,-1 -1,-1 0,0 -1,0 -1,1 0,0 -1,0 -1,1 0,0 0,0 0,1 0,1 0,1 0,2l0 0zm8 3c0,1 0,1 0,1 0,1 0,1 0,1 0,1 0,1 0,1 0,0 0,0 0,0l-4 0c0,0 0,0 0,-1 0,0 0,0 0,-1l0 0c0,0 0,1 0,1 0,0 -1,1 -1,1 0,0 0,0 -1,0 0,1 -1,1 -1,1 -1,0 -2,-1 -3,-1 0,0 -1,-1 -1,-1 0,-1 -1,-2 -1,-3 0,-1 0,-2 0,-3 0,-1 0,-2 0,-2 0,-1 0,-2 1,-3 0,0 1,-1 1,-1 1,0 2,-1 3,-1 1,0 1,1 2,1 0,1 1,1 1,2l0 0 0 -8 4 0 0 16 0 0zm15 -2l-8 0c0,0 0,0 0,1 0,0 0,1 1,1 0,0 0,0 1,1 0,0 1,0 1,0 1,0 2,0 2,-1 1,0 2,0 2,0l0 3c-1,0 -1,0 -2,0 -1,1 -1,1 -2,1 -1,0 -2,-1 -3,-1 -1,0 -2,-1 -2,-1 -1,-1 -1,-2 -2,-3 0,0 0,-1 0,-2 0,-1 0,-2 0,-3 1,-1 1,-2 1,-2 1,-1 2,-2 2,-2 1,0 2,0 3,0 0,0 0,0 1,0 0,0 1,0 1,0 0,0 1,0 1,0 1,1 1,1 2,2 0,0 0,1 1,2 0,0 0,1 0,3l0 1 0 0zm-4 -3c0,0 0,0 0,-1 0,0 0,-1 0,-1 -1,0 -1,-1 -1,-1 0,0 -1,0 -1,0 -1,0 -1,0 -1,0 -1,1 -1,1 -1,1 0,1 0,1 0,2 0,0 0,0 0,0l4 0 0 0zm25 3l-8 0c0,0 0,0 0,1 0,0 0,1 1,1 0,0 0,0 1,1 0,0 1,0 1,0 1,0 2,0 2,-1 1,0 2,0 2,0l0 3c-1,0 -1,0 -2,0 -1,1 -1,1 -2,1 -1,0 -2,-1 -3,-1 -1,0 -2,-1 -2,-1 -1,-1 -1,-2 -2,-3 0,0 0,-1 0,-2 0,-1 0,-2 0,-3 0,-1 1,-2 1,-2 1,-1 2,-2 2,-2 1,0 2,0 3,0 0,0 0,0 1,0 0,0 1,0 1,0 0,0 1,0 1,0 1,1 1,1 2,2 0,0 0,1 1,2 0,0 0,1 0,3l0 1 0 0zm-4 -3c0,0 0,0 0,-1 0,0 0,-1 0,-1 -1,0 -1,-1 -1,-1 0,0 -1,0 -1,0 -1,0 -1,0 -1,0 -1,1 -1,1 -1,1 0,1 0,1 0,2 0,0 0,0 0,0l4 0 0 0zm14 0c0,-1 0,-1 -1,-2 0,0 0,0 -1,0 0,0 -1,0 -1,1 0,0 -1,1 -1,2l0 7 -4 0 0 -10c0,-1 0,-2 0,-2 0,-1 0,-1 0,-1l4 0c0,0 0,0 0,1 0,0 0,1 0,1l0 0c0,-1 1,-1 2,-2 0,0 1,-1 2,-1 1,0 1,1 2,1 0,0 1,1 1,1 1,0 1,1 1,2 0,0 0,1 0,1l0 9 -4 0 0 -8 0 0zm19 3l-8 0c0,0 0,0 0,1 0,0 0,1 0,1 1,0 1,0 1,1 1,0 1,0 2,0 1,0 1,0 2,-1 1,0 1,0 2,0l0 3c-1,0 -1,0 -2,0 -1,1 -2,1 -2,1 -2,0 -3,-1 -4,-1 0,0 -1,-1 -2,-1 0,-1 -1,-2 -1,-3 0,0 0,-1 0,-2 0,-1 0,-2 0,-3 0,-1 1,-2 1,-2 1,-1 1,-2 2,-2 1,0 2,0 3,0 0,0 0,0 1,0 0,0 0,0 1,0 0,0 1,0 1,0 1,1 1,1 1,2 1,0 1,1 1,2 1,0 1,1 1,3l0 1 0 0zm-4 -3c0,0 0,0 0,-1 0,0 0,-1 -1,-1 0,0 0,-1 0,-1 -1,0 -1,0 -1,0 -1,0 -1,0 -2,0 0,1 0,1 0,1 0,1 0,1 0,2 0,0 0,0 0,0l4 0 0 0zm6 -2c0,-1 0,-2 0,-2 0,-1 0,-1 0,-1l4 0c0,0 0,1 0,1 0,0 0,1 0,1l0 0c0,0 0,-1 1,-1 0,0 0,0 0,-1 1,0 1,0 1,0 1,0 1,0 2,0l0 0 0 3c0,0 0,0 0,0 0,0 -1,0 -1,0 -1,0 -1,0 -1,1 -1,0 -1,0 -1,0 0,1 -1,1 -1,2 0,0 0,1 0,1l0 6 -4 0 0 -10 0 0zm14 4c0,1 0,2 0,3 1,0 1,1 2,1 1,0 1,-1 2,-1 0,-1 0,-2 0,-3 0,-2 0,-3 0,-4 -1,0 -1,-1 -2,-1 -1,0 -1,1 -2,1 0,1 0,2 0,4l0 0zm-4 0c0,-1 0,-2 0,-3 0,-1 1,-2 1,-3 1,0 1,-1 2,-1 1,0 2,-1 3,-1 1,0 2,1 3,1 1,0 1,1 2,1 0,1 1,2 1,3 0,1 0,2 0,3 0,1 0,2 0,2 0,1 -1,2 -1,3 -1,0 -1,1 -2,1 -1,0 -2,1 -3,1 -1,0 -2,-1 -3,-1 -1,0 -1,-1 -2,-1 0,-1 -1,-2 -1,-3 0,0 0,-1 0,-2l0 0zm29 0c0,0 0,0 -1,0 0,0 -1,0 -1,0 -1,0 -1,1 -1,1 -1,0 -1,1 -1,1 0,1 0,1 0,1 1,0 1,1 1,1 0,0 0,0 0,0 1,0 1,0 1,0 0,0 0,0 0,0 1,0 1,0 1,0 1,-1 1,-1 1,-1 0,-1 0,-2 0,-2l0 -1 0 0zm-6 -7c0,0 0,0 1,0 0,0 0,0 1,0 0,0 1,0 1,0 0,0 1,0 1,0 1,0 2,0 3,0 1,0 2,0 2,1 0,0 1,1 1,1 0,1 0,2 0,3l0 5c0,0 0,1 0,1 0,0 0,1 0,1 0,0 0,0 0,1 0,0 0,0 0,0l-4 0 0 -1 0 0c0,0 0,0 0,0 0,0 -1,1 -1,1 0,0 -1,0 -1,0 0,1 -1,1 -1,1 -2,0 -3,-1 -4,-1 0,-1 -1,-2 -1,-3 0,-1 0,-2 1,-2 0,-1 0,-1 1,-2 0,0 1,0 1,-1 1,0 1,0 2,0 0,0 1,0 1,0 1,0 1,0 1,0l1 0c0,-1 0,-1 0,-2 0,0 0,0 -1,0 0,-1 0,-1 -1,-1 0,0 0,0 0,0 -1,0 -1,0 -2,0 0,1 -1,1 -2,1l0 -3 0 0zm13 -6l4 0 0 19 -4 0 0 -19 0 0zm14 16l1 -1c1,-1 1,-1 2,-2 1,-1 1,-1 2,-2 0,-1 1,-2 1,-2 1,-1 1,-2 1,-2 0,-1 -1,-2 -1,-2 0,-1 -1,-1 -2,-1 0,0 0,0 -1,0 0,0 0,0 -1,1 0,0 0,0 -1,0 0,0 0,0 0,1l-1 -4c1,-1 2,-1 3,-1 1,0 2,0 3,0 0,0 1,0 2,0 0,0 1,1 1,1 1,1 1,1 2,2 0,0 0,1 0,2 0,1 0,2 -1,3 0,1 -1,2 -1,3 -1,0 -1,1 -2,2 -1,1 -1,1 -2,2l0 0 6 0 0 3 -11 0 0 -3 0 0zm25 -3c0,0 0,0 0,1 0,0 0,1 0,1 0,1 0,1 1,1 0,0 0,1 1,1 0,0 0,-1 1,-1 0,0 0,0 0,-1 1,0 1,-1 1,-1 0,-1 0,-1 0,-1 0,-1 0,-1 0,-2 0,-1 0,-1 -1,-1 0,-1 0,-1 0,-1 -1,-1 -1,-1 -1,-1 -1,0 -1,0 -1,1 -1,0 -1,0 -1,1 0,0 0,0 0,1 0,1 0,1 0,2l0 0zm8 3c0,1 0,1 0,1 0,1 0,1 0,1 0,1 0,1 0,1 0,0 0,0 0,0l-4 0c0,0 0,0 0,-1 0,0 0,0 0,-1l0 0c0,0 0,1 0,1 -1,0 -1,1 -1,1 0,0 -1,0 -1,0 -1,1 -1,1 -2,1 -1,0 -1,-1 -2,-1 0,0 -1,-1 -1,-1 -1,-1 -1,-2 -1,-3 0,-1 -1,-2 -1,-3 0,-1 0,-2 1,-2 0,-1 0,-2 1,-3 0,0 0,-1 1,-1 1,0 1,-1 2,-1 1,0 2,1 3,1 0,1 1,1 1,2l0 0 0 -8 4 0 0 16 0 0zm15 -2l-9 0c0,0 1,0 1,1 0,0 0,1 0,1 1,0 1,0 1,1 1,0 1,0 2,0 1,0 1,0 2,-1 1,0 1,0 2,0l0 3c-1,0 -2,0 -2,0 -1,1 -2,1 -3,1 -1,0 -2,-1 -3,-1 -1,0 -1,-1 -2,-1 0,-1 -1,-2 -1,-3 0,0 0,-1 0,-2 0,-1 0,-2 0,-3 0,-1 1,-2 1,-2 1,-1 1,-2 2,-2 1,0 2,0 3,0 0,0 0,0 0,0 1,0 1,0 2,0 0,0 1,0 1,0 1,1 1,1 1,2 1,0 1,1 1,2 0,0 1,1 1,3l0 1 0 0zm-4 -3c0,0 0,0 0,-1 0,0 0,-1 -1,-1 0,0 0,-1 0,-1 -1,0 -1,0 -1,0 -1,0 -1,0 -2,0 0,1 0,1 0,1 0,1 0,1 0,2 -1,0 -1,0 -1,0l5 0 0 0zm12 -5l2 0 0 -3c0,0 0,-1 0,-1 0,-1 1,-1 1,-1 0,-1 1,-1 1,-1 1,-1 1,-1 2,-1 1,0 2,0 2,0 1,1 1,1 1,1l0 3c0,-1 -1,-1 -1,-1 -1,0 -1,0 -1,1 -1,0 -1,1 -1,1l0 2 3 0 0 3 -3 0 0 10 -4 0 0 -10 -2 0 0 -3 0 0zm22 8l-8 0c0,0 0,0 0,1 1,0 1,1 1,1 0,0 1,0 1,1 1,0 1,0 2,0 0,0 1,0 2,-1 0,0 1,0 1,0l1 3c-1,0 -2,0 -3,0 0,1 -1,1 -2,1 -1,0 -2,-1 -3,-1 -1,0 -1,-1 -2,-1 -1,-1 -1,-2 -1,-3 -1,0 -1,-1 -1,-2 0,-1 0,-2 1,-3 0,-1 0,-2 1,-2 0,-1 1,-2 2,-2 0,0 1,0 2,0 1,0 1,0 1,0 1,0 1,0 1,0 1,0 1,0 2,0 0,1 1,1 1,2 0,0 1,1 1,2 0,0 0,1 0,3l0 1 0 0zm-3 -3c0,0 -1,0 -1,-1 0,0 0,-1 0,-1 0,0 0,-1 -1,-1 0,0 0,0 -1,0 0,0 -1,0 -1,0 0,1 0,1 -1,1 0,1 0,1 0,2 0,0 0,0 0,0l5 0 0 0zm14 2c0,-1 0,-1 0,-2 0,-1 0,-1 0,-1 0,-1 -1,-1 -1,-1 0,-1 -1,-1 -1,-1 0,0 -1,0 -1,1 0,0 -1,0 -1,1 0,0 0,0 0,1 0,1 0,1 0,2 0,0 0,0 0,1 0,0 0,1 0,1 0,1 1,1 1,1 0,1 1,1 1,1 0,0 1,-1 1,-1 0,0 1,0 1,-1 0,0 0,-1 0,-1 0,-1 0,-1 0,-1l0 0zm-8 -13l4 0 0 8 0 0c0,-1 1,-1 1,-2 1,0 2,-1 2,-1 1,0 2,1 3,1 0,0 1,1 1,1 1,1 1,2 1,3 0,0 0,1 0,2 0,1 0,2 0,3 0,1 -1,2 -1,3 0,0 -1,1 -1,1 -1,0 -2,1 -3,1 0,0 -1,0 -1,-1 0,0 -1,0 -1,0 0,0 -1,-1 -1,-1 0,0 0,-1 0,-1l0 0c0,1 0,1 0,2 0,0 0,0 0,0l-4 0c0,0 0,0 0,0 0,0 0,0 0,-1 0,0 0,0 0,-1 0,0 0,0 0,-1l0 -16 0 0zm15 9c0,-1 0,-2 0,-2 0,-1 0,-1 0,-1l4 0c0,0 0,1 0,1 0,0 0,1 0,1l0 0c0,0 0,-1 0,-1 1,0 1,0 1,-1 0,0 1,0 1,0 0,0 1,0 2,0l0 0 0 3c0,0 0,0 0,0 -1,0 -1,0 -1,0 -1,0 -1,0 -2,1 0,0 0,0 -1,0 0,1 0,1 0,2 0,0 0,1 0,1l0 6 -4 0 0 -10 0 0zm21 5l-8 0c0,0 0,0 0,1 1,0 1,1 1,1 0,0 1,0 1,1 1,0 1,0 2,0 0,0 1,0 2,-1 0,0 1,0 2,0l0 3c-1,0 -2,0 -3,0 0,1 -1,1 -2,1 -1,0 -2,-1 -3,-1 -1,0 -1,-1 -2,-1 -1,-1 -1,-2 -1,-3 -1,0 -1,-1 -1,-2 0,-1 0,-2 1,-3 0,-1 0,-2 1,-2 0,-1 1,-2 2,-2 1,0 1,0 2,0 1,0 1,0 1,0 1,0 1,0 1,0 1,0 1,0 2,0 0,1 1,1 1,2 0,0 1,1 1,2 0,0 0,1 0,3l0 1 0 0zm-3 -3c0,0 0,0 -1,-1 0,0 0,-1 0,-1 0,0 0,-1 -1,-1 0,0 0,0 -1,0 0,0 -1,0 -1,0 0,1 0,1 0,1 -1,1 -1,1 -1,2 0,0 0,0 0,0l5 0 0 0zm6 -2c0,-1 0,-2 0,-2 0,-1 0,-1 0,-1l3 0c1,0 1,1 1,1 0,0 0,1 0,1l0 0c0,0 0,-1 0,-1 0,0 1,0 1,-1 0,0 1,0 1,0 0,0 1,0 1,0l1 0 0 3c0,0 0,0 -1,0 0,0 0,0 0,0 -1,0 -1,0 -2,1 0,0 0,0 -1,0 0,1 0,1 0,2 0,0 0,1 0,1l0 6 -4 0 0 -10 0 0z"/>
    <path class="fil3" d="M372 30c0,1 0,2 0,3 0,0 1,1 2,1 0,0 1,-1 1,-1 1,-1 1,-2 1,-3 0,-2 0,-3 -1,-4 0,0 -1,-1 -1,-1 -1,0 -2,1 -2,1 0,1 0,2 0,4l0 0zm-5 0c0,-1 0,-2 1,-3 0,-1 0,-2 1,-3 0,0 1,-1 2,-1 1,0 2,-1 3,-1 1,0 2,1 2,1 1,0 2,1 2,1 1,1 1,2 2,3 0,1 0,2 0,3 0,1 0,2 0,2 -1,1 -1,2 -2,3 0,0 -1,1 -2,1 0,0 -1,1 -2,1 -1,0 -2,-1 -3,-1 -1,0 -2,-1 -2,-1 -1,-1 -1,-2 -1,-3 -1,0 -1,-1 -1,-2l0 0z"/>
    <path class="fil4 str0" d="M492 56c-6,12 -10,23 -12,35 -2,11 -2,23 1,37 3,16 14,27 28,32 6,3 13,4 20,3 6,0 13,-2 18,-6 11,-6 19,-18 19,-37 0,-8 -4,-15 -10,-20 -3,-3 -6,-5 -10,-6 -4,-2 -9,-3 -13,-3 -10,0 -20,4 -28,13 0,0 0,0 -1,0 0,0 -1,-1 0,-3 0,-1 0,-4 1,-6 4,-11 13,-29 34,-33 0,-3 -1,-11 -2,-17 -1,-4 -2,-7 -3,-9 -2,0 -6,0 -10,0 -2,1 -5,1 -6,2 -3,1 -4,2 -5,2 -3,1 -4,2 -7,5l0 0 -14 11 0 0zm-13 35c2,-12 6,-23 13,-36l0 0 13 -11 0 0c4,-3 5,-3 7,-4 2,-1 3,-2 5,-3 2,-1 4,-1 7,-1 4,-1 9,-1 10,-1l0 0 0 0c2,2 3,6 4,10 1,7 2,14 1,17l0 0 0 1c-20,4 -30,21 -33,32 -1,2 -1,5 -2,6 0,2 0,3 0,3 0,0 0,-1 0,-1 8,-9 19,-13 29,-13 4,1 9,1 13,3 4,1 8,3 11,6 6,5 10,13 10,21 0,19 -8,31 -19,38 -6,4 -13,5 -19,6 -7,0 -14,-1 -21,-3 -13,-5 -25,-16 -28,-33 -3,-14 -3,-26 -1,-37l0 0zm32 35c1,-4 4,-9 8,-12 2,-1 4,-2 6,-2 2,-1 4,-1 6,-1 4,1 7,4 8,9 1,6 -3,11 -8,14 -3,2 -6,3 -8,3 -3,0 -6,0 -8,-2 -3,-1 -4,-4 -4,-9l0 0zm9 -11c-4,2 -6,6 -7,9 -1,1 -1,4 -1,5 0,3 2,5 3,6 2,1 5,1 8,1 2,0 5,-1 8,-3 5,-2 8,-7 7,-12 -1,-6 -4,-8 -7,-9 -2,0 -4,0 -6,0 -2,1 -3,2 -5,3l0 0z"/>
    <path class="fil5 str1" d="M533 35c-5,-2 -27,2 -30,6 -1,3 -15,6 -19,23 -3,9 -8,14 -9,26 -1,19 -6,36 8,53 1,0 15,14 15,15 4,2 7,5 13,-2 4,-7 -6,-10 -11,-17 -7,-9 -10,-15 -12,-28 -2,-12 3,-34 8,-46 7,-14 2,-16 20,-26 2,-1 15,-5 17,-4l0 0z"/>
    <path class="fil6" d="M492 56c-13,25 -17,44 -12,72 9,47 86,51 87,-8 0,-27 -41,-41 -62,-16 -4,4 2,-35 34,-42 0,-5 -1,-23 -5,-26 -3,-1 -13,0 -16,1 -7,4 -7,3 -13,8l-13 11 0 0zm20 68c0,0 0,0 0,0 3,-11 23,-20 27,-3 2,14 -27,22 -27,8 0,-1 0,-2 0,-3l0 -2 0 0z"/>
    <path class="fil7" d="M530 63c-15,10 -19,12 -25,30 0,0 -3,22 2,14 7,-9 27,-17 39,-9 14,9 10,16 14,29 2,10 -2,25 -12,29 -17,5 -24,4 -39,-6 -15,-11 -21,-26 -21,-43 0,-14 -1,-21 4,-34 5,-13 15,-23 26,-30 6,-4 7,-7 15,-6 2,7 7,21 -3,26l0 0zm-16 71c0,-5 -12,-10 7,-23 11,-7 36,2 21,21 -5,7 -15,8 -23,5 -3,-1 -3,-2 -5,-3l0 0 0 0z"/>
    <path class="fil8" d="M513 54c-4,2 -18,12 -18,18 0,5 -4,13 -5,22 -1,8 -1,20 2,28 2,6 0,5 4,12 12,16 20,15 39,15 13,0 23,-17 5,-7 -7,5 -15,3 -23,1 -12,-3 -10,-17 -6,-25 5,-11 23,-9 21,-17 0,-5 -26,8 -31,15 -7,10 0,-22 1,-24 12,-31 25,-27 29,-35 3,-7 1,-7 1,-14 -5,-2 -13,7 -19,11l0 0z"/>
    <path class="fil9" d="M511 195l25 -90 -2 2 -26 89c1,0 2,-1 3,-1l0 0z"/>
    <path class="fil10" d="M508 196l26 -89 -6 -2 -23 89c1,2 2,2 3,2l0 0z"/>
    <path class="fil9" d="M524 122c2,2 -6,0 -4,-10 6,-19 12,-12 16,-9 5,3 -2,24 -8,20l-4 -1 0 0z"/>
    <path class="fil11" d="M524 108c2,-6 5,-10 11,-5 2,1 0,3 0,6 -1,4 -2,11 -7,14 -2,2 -11,-1 -4,-15l0 0z"/>
    <path class="fil12" d="M522 120c-3,-3 2,-13 3,-16 3,-6 10,-1 8,-1 -5,0 -14,10 -10,18 0,0 -1,-1 -1,-1l0 0z"/>
    <path class="fil13" d="M526 169c1,0 3,-7 2,-8 -2,-2 -2,-4 -4,-6 -3,-2 -3,-1 -6,-3 -2,0 -12,-2 -13,-1 -5,8 -20,-2 -27,-5 -7,-2 -12,22 -9,21 1,0 32,17 38,18 3,0 6,1 8,2 0,0 6,2 6,1 3,-6 -8,-5 -8,-7 -1,-2 -3,-4 -5,-5 0,0 10,2 9,3 -1,1 0,1 -1,2 -1,1 4,2 4,1 1,-2 2,-3 2,-5 0,-1 2,-1 3,-3 2,-4 -1,-5 1,-5l0 0 0 0z"/>
    <path class="fil14" d="M519 157c1,1 2,-1 2,-1 0,-2 -3,-2 -6,-3 -1,-1 -2,-1 -4,-2 -2,-1 -2,0 -4,0 0,0 -6,2 -4,3 1,0 3,1 2,3 -1,0 -3,0 -2,3 1,1 1,2 -2,3 0,2 1,4 1,4 1,1 -2,5 -3,6 0,0 2,2 3,2 2,1 4,1 3,-2 -2,-6 3,-4 7,-2 1,0 7,3 7,0 0,-2 -8,-4 -9,-7 -1,-1 1,-2 3,-1 2,2 10,4 7,0 -1,-2 -8,-2 -8,-5 -2,-4 -1,-4 7,-1l0 0z"/>
    <path class="fil15" d="M502 180c-1,0 -4,-3 -5,-3 -3,1 -2,1 -6,-1 -8,-3 -7,-3 -3,-4 6,-2 -9,-3 -8,-5 0,-1 7,-1 7,-2 2,-4 -7,-2 -3,-5 1,0 8,0 11,-1 2,-1 -6,-1 -6,-1 1,0 13,-4 13,-4 -1,-2 1,-1 0,1 0,0 1,1 1,1 -1,1 -2,2 -2,3 -1,0 1,0 0,1 0,2 -1,4 -1,7 -1,2 -4,4 -3,6 2,2 4,2 6,3 2,3 1,5 -1,4l0 0z"/>
    <path class="fil14" d="M519 186c0,1 0,3 1,2 2,-1 1,-5 -1,-2l0 0z"/>
    <path class="fil16" d="M522 177c1,-1 0,-2 0,-4 -1,-1 -1,-2 -2,-3 0,0 -5,-3 -5,-3 0,0 5,3 5,4 0,0 1,2 1,2 1,2 0,3 1,4 0,0 0,0 0,0l0 0z"/>
    <path class="fil16" d="M526 169c-2,-4 0,-3 -3,-6 -1,-1 -1,-1 -1,-2 -3,-2 -2,-1 -7,-3 -2,0 0,2 1,2 1,0 4,1 4,1 1,1 2,2 4,4 0,1 1,5 2,4l0 0z"/>
    <path class="fil16" d="M511 180c0,0 3,2 2,1 0,0 -6,-7 -6,-7 0,0 -2,-5 -2,0 1,2 5,5 6,6l0 0z"/>
    <path class="fil16" d="M509 176c2,1 8,2 8,3 -1,1 0,1 -1,2 0,0 0,0 0,0 0,1 0,1 0,1 2,-1 1,-3 2,-3 2,-1 -1,-2 -2,-2 -4,1 -1,-1 -2,-1 -1,0 -4,0 -3,-2 0,-1 -2,0 -3,-1 -1,-1 -3,-2 -3,-1 1,2 1,2 2,2 0,0 0,0 0,0 1,1 1,2 2,2l0 0z"/>
    <path class="fil14" d="M525 157c-1,1 0,1 1,2 1,2 1,1 1,4 0,0 0,2 -1,2 -2,-2 -6,-6 -2,-7 0,-1 1,-1 1,-1l0 0z"/>
    <path class="fil14" d="M525 170c1,2 1,2 0,4 0,1 -2,2 -1,0 0,-3 -1,-4 -1,-7 0,-4 2,1 2,3l0 0z"/>
    <path class="fil14" d="M519 170c2,3 3,6 2,9 -1,3 -2,3 -1,1 0,-1 0,-2 0,-3 -1,-1 -1,-5 -1,-6 0,-1 0,-1 0,-1l0 0z"/>
    <path class="fil6 str1" d="M617 68c-4,-9 -10,-14 -19,-21 0,0 -7,-2 -16,-2 -31,2 -29,0 -42,29 -10,22 -4,65 15,82 12,12 34,10 51,8 14,-2 23,-39 24,-50 1,-22 -7,-33 -11,-42 -1,-1 -1,-2 -2,-4l0 0z"/>
    <path class="fil7" d="M594 47c0,-2 -43,-7 -49,38 -3,23 1,56 22,71 18,13 53,7 60,-21 5,-21 -12,-74 -38,-87 -4,-1 -4,-2 -7,-3l12 2 0 0z"/>
    <path class="fil17" d="M588 49c-9,-3 -25,11 -37,12 -9,1 4,4 11,-1 1,-1 25,-13 26,-11l0 0z"/>
    <path class="fil16" d="M589 47c-11,2 -25,11 -28,38 -2,23 1,56 18,71 16,13 44,7 50,-21 5,-21 -9,-74 -31,-87 -1,0 -2,-1 -3,-1 0,0 -1,0 -1,0 -2,-1 -4,0 -5,0l0 0z"/>
    <path class="fil6" d="M547 62c0,4 22,10 20,14 -2,1 -4,-5 -12,-8 -1,0 -8,-4 -8,-6l0 0z"/>
    <path class="fil6" d="M566 77c0,0 -12,6 -13,8 -1,0 -22,15 -14,13 1,-1 30,-17 27,-21l0 0z"/>
    <path class="fil6" d="M539 99c-2,3 34,19 24,10 -1,-1 -20,-13 -24,-10l0 0z"/>
    <path class="fil6" d="M542 129c-1,0 11,-6 13,-9 5,-4 14,-11 6,-2 -8,8 -13,7 -18,12 -3,4 18,0 27,8 7,6 -38,-7 -29,-6l1 -3 0 0z"/>
    <path class="fil6" d="M570 140c-5,4 -12,10 -13,17 0,4 10,-8 11,-11 2,-2 2,-2 2,-6l0 0 0 0z"/>
    <path class="fil6" d="M563 159c-5,-1 31,-12 13,-2 -2,1 -13,6 -13,2l0 0z"/>
    <path class="fil6" d="M588 158c1,-2 -26,7 -10,4 1,0 9,-4 10,-5l0 1 0 0z"/>
    <path class="fil6" d="M592 164c2,0 1,-1 -1,-5 -1,-2 -5,-2 1,5 0,0 0,0 0,0l0 0z"/>
    <path class="fil6" d="M571 163c13,-7 18,-15 1,0 0,0 -1,0 -1,0l0 0z"/>
    <path class="fil8" d="M596 50c4,2 8,4 11,6 3,4 6,8 9,12 2,2 3,5 5,8 1,4 3,9 5,14 0,5 1,11 2,16 0,7 1,15 1,22 -3,7 -5,14 -8,21 -2,3 -3,5 -5,7 -1,0 -3,0 -4,0 -2,2 -3,5 -5,7 -2,0 -4,-1 -6,-1 -2,0 -4,0 -6,0 -3,-2 -5,-4 -8,-6 -2,0 -3,1 -5,1 -1,-2 -2,-4 -3,-6 -3,-2 -6,-4 -9,-6 0,-3 -1,-6 -1,-9 -1,-4 -2,-8 -4,-12 -1,-9 -2,-19 -3,-28 0,-3 0,-5 1,-8 1,-6 1,-13 2,-19 1,-2 3,-4 4,-5 2,-2 4,-5 6,-7 3,-2 6,-3 9,-5 4,-1 8,-1 12,-2l0 0z"/>
    <path class="fil18" d="M626 123c0,-4 0,-8 0,-12 -1,-1 -1,-1 -2,-2 -3,0 -6,0 -9,0 -1,0 -1,4 -1,8 1,6 1,14 1,20 0,6 1,11 1,10 2,-3 4,-6 6,-9 1,-1 1,-3 2,-4 1,-4 1,-7 2,-11l0 0z"/>
    <path class="fil19" d="M609 109c1,1 0,13 0,23 0,11 1,22 4,19 5,-4 1,-3 2,-15 0,-10 -1,-14 -1,-25 0,-6 -5,-3 -5,-2l0 0z"/>
    <path class="fil20" d="M599 108c7,3 9,-2 10,20 0,4 2,26 -5,26 -7,0 0,-9 -4,-18 -1,-2 -2,-20 0,-24 0,-1 -2,-4 -1,-4l0 0z"/>
    <path class="fil20" d="M596 54c1,1 2,2 3,2 1,4 0,7 0,14 0,2 1,10 1,12 0,5 -1,8 0,10 1,3 0,10 -1,10 -5,0 -7,1 -12,-1 -5,-1 -15,-3 -19,-4 0,-5 -1,-10 -1,-14 1,-3 2,-5 3,-8 2,-4 5,-9 7,-13 3,-2 5,-4 7,-6 4,-1 8,-1 12,-2l0 0z"/>
    <path class="fil6" d="M603 58c2,2 4,3 6,4 0,1 2,2 3,3 2,4 4,8 6,12 1,3 2,6 3,8 0,2 1,3 2,4 0,5 1,9 1,13 0,2 0,4 -1,5 -3,0 -6,0 -8,0 -4,0 -7,0 -10,0 -1,-2 -2,-4 -4,-6 0,-1 0,-18 0,-22 -1,-6 -1,-14 0,-16 1,-3 0,-2 0,-3 1,-1 1,-1 2,-2l0 0z"/>
    <path class="fil21" d="M595 75c1,-3 -12,-6 -8,6 6,14 14,5 9,-5 0,-1 -1,-1 -1,-1l0 0z"/>
    <path class="fil21" d="M584 148c0,0 -10,-13 -11,-23 -4,-26 -6,-17 15,-17 12,0 7,1 8,26 0,4 2,18 -2,18 0,1 -10,-4 -10,-4l0 0z"/>
    <path class="fil22" d="M589 133c-5,-1 -12,-20 -5,-14 2,1 8,-2 5,13 0,1 1,1 0,1l0 0z"/>
    <path class="fil23" d="M599 109c0,-1 1,-1 1,-2 0,0 1,0 1,0 1,1 1,1 2,1 0,4 0,8 0,12 0,8 0,16 0,24 1,6 0,6 3,3 0,-2 -1,-3 -1,-5 1,-6 1,-11 1,-16 -1,-6 -1,-11 -1,-17 0,0 0,0 1,-1 1,0 1,1 1,1 1,1 1,2 1,3 0,3 0,7 0,10 0,2 1,4 1,6 -1,6 -1,12 -1,18 1,4 1,3 0,7 -1,0 -1,1 -2,1 -7,4 -6,-1 -6,-12 0,-5 0,-7 0,-13 0,-2 0,-5 0,-8 0,-4 -1,-8 -1,-12l0 0z"/>
    <path class="fil23" d="M611 150c1,0 2,-1 3,-2 0,-11 0,-16 -1,-27 0,0 0,-2 0,-2 -1,1 -2,1 -3,2 0,2 0,3 0,5 1,9 0,14 1,24l0 0z"/>
    <path class="fil23" d="M611 119c-1,0 -1,-6 -1,-10 1,-1 2,1 3,1 0,0 0,-1 0,1 0,1 0,6 0,7 -1,0 -2,1 -2,1l0 0z"/>
    <path class="fil23" d="M615 144c1,0 1,1 1,1 1,-1 2,-3 3,-3 -1,-5 -1,-8 -1,-13 0,-3 -1,-9 -1,-12 0,0 1,0 1,1 1,5 2,10 2,15 1,1 1,2 2,2 1,-1 1,-2 2,-3 0,-2 1,-5 1,-8 0,-2 0,-3 0,-5 0,-3 0,-5 0,-8 0,0 -1,-1 -1,-1 -3,1 -2,0 -2,5 1,2 1,8 1,10 0,1 -1,1 -1,2 -1,-3 -1,-6 -1,-9 -1,-2 -1,-4 -1,-6 -1,-1 -2,-2 -2,-3 -1,0 -2,0 -2,0 -1,0 -1,1 -2,1 0,3 0,7 0,11 1,4 1,6 1,11 0,4 0,8 0,12l0 0z"/>
    <path class="fil23" d="M599 97c0,5 0,4 -4,3 -2,0 -6,0 -9,-1 -3,-1 -7,-2 -10,-3 -6,-1 -5,1 -8,-8 2,-8 3,-11 6,-18 2,-2 4,-5 6,-7 2,-2 4,-3 6,-5 2,0 5,-1 7,-1 7,-2 6,3 5,12 0,0 -1,0 -1,0 -2,0 -2,-1 -3,-4 0,-2 -2,-1 -2,-1 -7,3 -8,3 -13,11 -1,1 -2,3 -2,5 -3,6 -1,5 2,9 5,2 8,3 12,4 2,1 5,1 7,1 0,0 0,0 0,0 2,1 1,0 1,3l0 0z"/>
    <path class="fil23" d="M601 93c0,0 1,0 1,-1 1,1 2,1 2,1 1,1 1,2 1,3 3,3 4,2 8,3 1,0 3,1 4,1 2,0 3,0 3,-1 0,-4 0,-4 -1,-7 -4,-1 -6,-5 -10,-6 -2,0 -4,0 -6,-1 0,0 -1,-3 -1,-3 -1,-3 0,-4 -1,-7 -1,-9 -1,-8 1,-14 0,-1 0,-1 0,-1 8,5 8,5 14,15 1,1 1,1 1,2 1,1 1,1 1,2 0,2 0,3 -1,4 0,0 -1,-1 -1,-2 -1,-1 -1,-1 -1,-2 -1,-2 -2,-3 -3,-4 -3,-4 -4,-7 -7,-6 0,1 -1,2 -1,3 0,4 0,4 2,7 3,2 5,4 11,6 3,3 4,1 5,8 2,10 3,14 -3,13 -2,-1 -5,-1 -7,-1 -3,-1 -5,-1 -8,-2 -1,0 -1,-1 -1,-2 -3,-3 -2,-3 -2,-8l0 0z"/>
    <path class="fil23" d="M594 70c-1,-1 -2,-1 -4,-1 -3,1 -5,4 -5,9 0,6 0,5 3,11 2,2 4,3 6,3 2,0 3,-1 5,-3 0,-2 0,-4 1,-6 -1,-2 -1,-4 -1,-6 -2,-6 -1,-5 -5,-7l0 0zm-4 15c3,2 3,2 5,0 1,-1 1,-2 1,-3 1,-2 0,-3 -1,-6 -1,-1 -2,-1 -3,-2 -3,2 -3,1 -3,5 0,2 0,4 1,6l0 0z"/>
    <path class="fil23" d="M576 133c0,-1 1,-1 2,-1 1,-2 1,-2 1,-5 -2,-2 -3,-4 -4,-6 -1,-2 -1,-5 -2,-7 0,-2 0,-3 0,-5 2,0 3,0 5,0 3,1 5,2 8,2 1,0 2,0 3,0 2,1 3,2 5,2 0,3 0,5 0,7 0,3 0,5 0,7 0,3 1,5 1,8 -2,12 1,12 -4,9 -2,-2 -3,-3 -5,-5 0,0 -1,0 -2,0 0,0 -1,0 -2,0 0,2 0,3 -1,5 4,5 4,6 8,7 1,1 2,2 2,3 8,4 7,1 7,-14 0,-2 0,-5 0,-8 0,-4 0,-6 0,-10 0,-11 2,-12 -4,-18 -3,0 -6,0 -9,0 -3,-2 -5,-3 -8,-4 -5,1 -10,-1 -10,6 0,3 0,6 1,9 0,3 1,7 2,10 1,1 1,3 2,4 1,2 2,3 2,5 1,-1 1,-1 2,-1l0 0z"/>
    <path class="fil23" d="M575 146c0,0 1,0 1,-1 1,0 1,-1 1,-1 3,-2 3,-4 5,-8 1,-1 2,-2 3,-4 1,2 2,3 3,4 3,1 5,4 5,-1 0,-2 0,-5 0,-7 0,-2 0,-4 -1,-6 1,-1 1,-3 1,-4 -1,-3 -1,-3 -2,-3 -3,-1 -5,-1 -8,-2 -1,0 -2,0 -3,0 -2,0 -2,-1 -2,2 0,1 0,3 0,4 1,3 1,5 2,8 0,0 1,0 1,1 0,1 -1,2 -1,3 -2,2 -3,4 -5,6 0,2 -1,3 -1,5 -3,2 -2,2 1,4l0 0zm9 -21c-1,-1 -1,-3 -2,-4 0,-1 1,-1 2,-1 1,0 1,0 2,0 1,0 1,0 1,0 1,0 1,0 1,0 1,1 1,1 1,1 0,0 0,1 0,1 0,2 0,2 0,4 0,1 0,2 0,2 0,1 0,1 0,1 0,1 0,1 0,2 -1,-1 -1,-1 -1,-1 0,-1 -1,-1 -1,-1 -1,-1 -2,-2 -3,-4l0 0z"/>
    <path class="fil23" d="M604 94c-1,0 -2,0 -3,0 1,-2 1,-3 2,-5 2,0 3,0 5,0 2,1 3,2 5,3 1,0 3,1 4,2 0,1 1,2 1,3 0,0 -1,0 -1,0 -1,0 -1,0 -2,0 -1,0 -1,0 -2,-1 -1,0 -2,-1 -3,-1 0,-1 -1,-1 -2,-1 -1,0 -2,0 -4,0l0 0z"/>
    <path class="fil23" d="M617 79c0,0 0,0 0,1 0,1 0,2 0,3 -1,0 -2,0 -3,0 -1,-1 -3,-2 -4,-4 -1,-1 -3,-2 -4,-3 0,-1 0,-2 0,-3 0,-1 0,-1 1,-1 1,0 1,1 2,1 1,2 2,3 2,4 1,1 3,2 4,3 1,0 1,0 2,-1l0 0z"/>
    <polygon class="fil9" points="581,1 581,3 536,76 536,73 "/>
    <polygon class="fil10" points="581,1 530,82 525,80 577,0 "/>
    <path class="fil24" d="M535 65c2,0 -3,-4 -8,3 -9,14 -1,14 3,15 5,1 14,-15 8,-16l-3 -2 0 0z"/>
    <path class="fil13" d="M567 9l-2 1 -1 0 0 -3 1 -2 2 -1 5 -2 16 3 3 3 5 15 9 8 38 31c2,3 2,7 -1,11 -4,5 -10,6 -15,5 -5,-1 -10,-7 -13,-9l-9 -20 -22 -10 -8 -12 -3 0 -2 -3 -1 -3 4 -1 7 0 -7 -1 -4 2 -1 0 0 -4 0 -1 3 -2 -4 1 0 1 -1 2 -1 0 -1 0 -1 -3 0 -2 2 -2 2 -2 0 0z"/>
    <path class="fil15" d="M587 5c-2,-1 -12,-5 -15,-3 0,0 2,0 7,1 3,1 8,4 9,4 2,0 3,1 -1,3 -2,0 6,5 -1,5 -4,0 3,5 -1,6 -1,0 -2,-1 -1,1 1,3 13,9 16,9 5,1 4,8 9,14 18,16 25,17 35,22 0,-3 0,-5 -2,-8 -4,-3 -9,-7 -15,-11 -8,-5 -13,-10 -19,-15 -5,-4 -9,-8 -9,-10 -7,-13 -6,-17 -12,-18l0 0z"/>
    <path class="fil16" d="M588 14c-1,1 -13,1 -6,-1 1,0 2,-2 1,-3 -1,-1 -4,-1 -6,-2 -3,-1 -5,-1 0,0 2,0 5,1 7,1 5,2 -6,2 4,5l0 0z"/>
    <path class="fil16" d="M569 21c6,-3 11,1 11,-2 0,-1 -6,-2 -4,1 0,-1 -8,-1 -7,1l0 0z"/>
    <path class="fil16" d="M569 15c2,-1 12,0 11,-3 -1,-1 -2,4 -7,-2 0,-1 -3,0 0,1 1,0 2,2 4,2 0,0 -4,0 -5,1l-3 1 0 0z"/>
    <path class="fil16" d="M604 41c0,0 -6,-3 -9,-4 -18,-1 -15,-13 -24,-15 -1,0 -1,4 3,5 8,4 4,14 17,12 4,0 12,3 12,3 1,-1 0,0 1,-1l0 0z"/>
    <path class="fil9" d="M573 26c2,1 2,-3 3,0 0,4 1,-2 2,2 0,2 4,-2 1,2 -1,1 6,6 4,9 -1,1 -2,-7 -9,-11 0,0 -10,-5 -1,-2l0 0z"/>
    <path class="fil14" d="M569 8c0,0 -4,3 -5,4 0,0 0,0 -1,1 -1,2 1,6 1,5 1,0 0,-2 0,-5 1,-3 13,-9 5,-5l0 0z"/>
    <path class="fil14" d="M574 15c0,0 -10,0 -4,3 1,0 7,2 2,-1 -3,-1 2,-2 2,-2l0 0z"/>
    <path class="fil14" d="M574 21c-3,-1 -6,1 -1,2 3,0 5,4 7,4 7,0 -4,-5 -6,-6l0 0z"/>
    <path class="fil25" d="M570 9c0,0 -9,6 -1,5 1,0 2,-4 2,-5 1,-1 0,0 -1,0 0,0 0,0 0,0l0 0z"/>
    <path class="fil25" d="M566 18c-3,3 -3,-5 -1,-4 0,-1 4,1 1,4l0 0z"/>
    <path class="fil25" d="M568 8c1,-1 2,-1 3,-2 4,-3 9,-1 12,1 2,1 -4,-4 -10,-4 -2,0 -5,1 -7,3 -2,2 1,2 2,2l0 0z"/>
    <path class="fil25" d="M572 9c1,1 3,0 3,2 1,2 11,1 6,-1 -1,0 -10,-4 -9,-1l0 0z"/>
    <path class="fil25" d="M583 18c-1,-4 -3,-3 -9,-3 -5,0 -3,3 3,2 0,0 7,4 6,2 -1,0 0,-1 0,-1l0 0z"/>
    <path class="fil14" d="M570 3c-10,4 -5,8 -5,7 -1,-1 0,-2 0,-3 -1,-1 5,-4 5,-4l0 0z"/>
    <path class="fil11" d="M534 64c-2,1 -3,1 -5,4 -1,1 -5,7 -5,9 0,3 1,3 2,5 0,0 4,1 5,-1 2,-1 1,0 3,-2 0,-2 2,-2 4,-8 1,-2 1,-2 -1,-5 0,-1 -3,0 -3,-1 0,0 0,-1 0,-1l0 0z"/>
    <path class="fil12" d="M534 65c-3,1 -3,0 -5,3 -2,1 -5,7 -5,9 0,2 1,2 2,4 0,0 7,1 5,0 -5,-2 -4,-10 3,-16 -1,0 -1,0 0,0l0 0z"/>
   </g>
  </g>
 </g>
</svg>
