<?xml version="1.0" encoding="UTF-8"?>
<!DOCTYPE svg PUBLIC "-//W3C//DTD SVG 1.1//EN" "http://www.w3.org/Graphics/SVG/1.1/DTD/svg11.dtd">
<!-- Creator: CorelDRAW X7 -->
<svg xmlns="http://www.w3.org/2000/svg" xml:space="preserve" width="1800px" height="850px" version="1.1" style="shape-rendering:geometricPrecision; text-rendering:geometricPrecision; image-rendering:optimizeQuality; fill-rule:evenodd; clip-rule:evenodd"
viewBox="0 0 1798 849"
 xmlns:xlink="http://www.w3.org/1999/xlink">
 <defs>
  <style type="text/css">
   <![CDATA[
    .fil1 {fill:#C33F0D}
    .fil0 {fill:white}
   ]]>
  </style>
 </defs>
 <g id="Capa_x0020_1">
  <metadata id="CorelCorpID_0Corel-Layer"/>
  <path class="fil0" d="M138 274c-27,0 -52,-3 -75,-11 -24,-7 -45,-18 -63,-33l45 -49c30,21 61,32 96,32 11,0 19,-2 25,-5 6,-3 8,-7 8,-13l0 -1c0,-3 -1,-5 -2,-7 -1,-2 -4,-4 -8,-7 -3,-2 -8,-3 -15,-6 -6,-1 -14,-3 -24,-6 -16,-3 -30,-6 -44,-10 -13,-4 -25,-9 -35,-16 -10,-6 -18,-13 -24,-23 -6,-9 -8,-20 -8,-34l0 0c0,-13 2,-24 7,-34 6,-10 13,-20 23,-27 10,-7 22,-13 36,-18 14,-4 30,-6 47,-6 25,0 48,3 68,9 19,6 37,15 53,26l-41 52c-13,-8 -27,-15 -41,-19 -14,-5 -28,-7 -41,-7 -10,0 -17,2 -22,5 -5,3 -7,7 -7,12l0 1c0,3 1,5 2,7 2,2 4,5 8,7 4,1 9,4 16,5 6,2 14,4 25,6 16,3 32,7 45,12 14,4 25,10 35,16 9,6 16,14 21,23 6,9 8,20 8,32l0 1c0,14 -3,26 -9,36 -6,11 -13,20 -24,27 -10,8 -23,13 -37,17 -14,4 -30,6 -48,6z"/>
  <polygon class="fil0" points="367,69 279,69 279,5 537,5 537,69 449,69 449,270 368,270 368,69 "/>
  <path class="fil0" d="M572 5l139 0c23,0 42,2 58,7 15,5 28,12 38,21 17,16 26,36 26,62l0 1c0,20 -5,37 -16,51 -11,13 -26,23 -45,30l70 93 -93 0 -59 -80 -1 0 -35 0 0 80 -82 0 0 -265zm135 127c14,0 25,-3 33,-9 7,-5 11,-13 11,-23l0 0c0,-11 -4,-19 -12,-24 -8,-5 -19,-8 -32,-8l-53 0 0 64 53 0z"/>
  <polygon class="fil0" points="874,5 1109,5 1109,67 954,67 954,107 1094,107 1094,165 954,165 954,207 1111,207 1111,270 874,270 "/>
  <path class="fil0" d="M1255 3l78 0 125 266 -87 0 -21 -47 -114 0 -21 47 -85 0 125 -266zm71 163l-33 -76 -33 76 66 0z"/>
  <polygon class="fil0" points="1487,5 1573,5 1643,107 1712,5 1798,5 1798,270 1718,270 1718,118 1643,221 1641,221 1567,118 1567,270 1487,270 "/>
  <polygon class="fil0" points="172,449 0,449 0,324 501,324 501,449 330,449 330,839 172,839 "/>
  <path class="fil0" d="M858 849c-45,0 -85,-7 -123,-21 -37,-14 -70,-33 -97,-57 -27,-24 -48,-52 -64,-85 -16,-32 -23,-66 -23,-103l0 -2c0,-36 7,-71 23,-104 16,-33 37,-61 65,-85 28,-24 60,-43 98,-58 37,-14 78,-21 122,-21 44,0 85,7 122,21 38,15 70,34 98,58 27,23 48,52 64,84 15,33 23,67 23,104l0 1c0,37 -8,72 -23,105 -16,33 -37,61 -65,85 -28,24 -61,43 -98,57 -38,14 -78,21 -122,21z"/>
  <polygon class="fil0" points="1248,324 1407,324 1407,533 1603,324 1791,324 1575,546 1798,839 1608,839 1464,647 1407,705 1407,839 1248,839 "/>
  <path class="fil1" d="M976 607l-117 106c-17,15 -44,15 -60,0l0 -267c16,-15 44,-15 60,0l117 106c17,15 17,40 0,55z"/>
 </g>
</svg>
