<?xml version="1.0" encoding="utf-8"?>
<!-- Generator: Adobe Illustrator 23.0.1, SVG Export Plug-In . SVG Version: 6.00 Build 0)  -->
<svg version="1.1" id="Capa_1" xmlns="http://www.w3.org/2000/svg" xmlns:xlink="http://www.w3.org/1999/xlink" x="0px" y="0px"
	 viewBox="0 0 1920 1080" style="enable-background:new 0 0 1920 1080;" xml:space="preserve">
<style type="text/css">
	.st0{fill:#E1AD74;}
	.st1{fill:#EBDDCE;}
	.st2{fill:#E4B64D;}
	.st3{fill:#FFFFFF;}
	.st4{fill:#936419;stroke:#905D44;stroke-width:0.216;stroke-miterlimit:22.9256;}
	.st5{fill-rule:evenodd;clip-rule:evenodd;fill:#A38427;stroke:#807258;stroke-width:2.8347;stroke-miterlimit:22.9256;}
	.st6{fill-rule:evenodd;clip-rule:evenodd;fill:#CAB26D;}
	.st7{fill-rule:evenodd;clip-rule:evenodd;fill:#E2D5A4;}
	.st8{fill-rule:evenodd;clip-rule:evenodd;fill:#ECE3C0;}
	.st9{fill-rule:evenodd;clip-rule:evenodd;fill:#4E2C16;}
	.st10{fill-rule:evenodd;clip-rule:evenodd;fill:#AA871C;}
	.st11{fill-rule:evenodd;clip-rule:evenodd;fill:#692F13;}
	.st12{fill-rule:evenodd;clip-rule:evenodd;fill:#B4733C;}
	.st13{fill-rule:evenodd;clip-rule:evenodd;fill:#C59864;}
	.st14{fill-rule:evenodd;clip-rule:evenodd;fill:#E2CA93;}
	.st15{fill-rule:evenodd;clip-rule:evenodd;fill:#D5B278;}
	.st16{fill-rule:evenodd;clip-rule:evenodd;fill:#905D44;}
	.st17{fill-rule:evenodd;clip-rule:evenodd;fill:#CAB26D;stroke:#807258;stroke-width:2.8347;stroke-miterlimit:22.9256;}
	.st18{fill-rule:evenodd;clip-rule:evenodd;fill:#BE8E32;}
	.st19{fill-rule:evenodd;clip-rule:evenodd;fill:#AB0F17;}
	.st20{fill-rule:evenodd;clip-rule:evenodd;fill:#F0CE00;}
	.st21{fill-rule:evenodd;clip-rule:evenodd;fill:#A39723;}
	.st22{fill-rule:evenodd;clip-rule:evenodd;fill:#CE6F00;}
	.st23{fill-rule:evenodd;clip-rule:evenodd;fill:#B80B13;}
	.st24{fill-rule:evenodd;clip-rule:evenodd;fill:#211915;}
	.st25{fill-rule:evenodd;clip-rule:evenodd;fill:#493A2C;}
	.st26{fill-rule:evenodd;clip-rule:evenodd;fill:#D4B073;}
</style>
<g>
	<path class="st0" d="M505.18,675.69c5.81,0,8.99-3.44,8.99-9.46v-6.72c0-5.53-2.21-8.6-6.56-8.6c-2.64,0-4.36,1.13-5.38,3.28h-0.11
		v-7.2c0-3.6,1.18-4.62,3.28-4.62c1.88,0,3.07,1.02,3.07,3.71v1.08h5.6v-0.7c0-6.02-3.01-9.46-8.83-9.46
		c-6.13,0-9.04,3.44-9.04,9.78v19.45C496.2,672.25,499.37,675.69,505.18,675.69L505.18,675.69z M505.18,670.31
		c-2.04,0-3.07-1.18-3.07-3.65v-6.66c0-2.53,1.02-3.71,3.07-3.71c2.04,0,3.07,1.18,3.07,3.71v6.66
		C508.25,669.13,507.23,670.31,505.18,670.31L505.18,670.31z M526.54,675.69c5.81,0,8.99-3.44,8.99-9.46v-19.78
		c0-6.02-3.17-9.46-8.99-9.46c-5.81,0-8.99,3.44-8.99,9.46v19.78C517.56,672.25,520.73,675.69,526.54,675.69L526.54,675.69z
		 M526.54,670.31c-1.88,0-3.07-1.02-3.07-3.71v-20.53c0-2.69,1.18-3.71,3.07-3.71c1.88,0,3.07,1.02,3.07,3.71v20.53
		C529.61,669.29,528.43,670.31,526.54,670.31L526.54,670.31z M548.07,650.64c3.82,0,6.83-3.01,6.83-6.82c0-3.82-3.01-6.82-6.83-6.82
		c-3.82,0-6.83,3.01-6.83,6.82C541.24,647.63,544.25,650.64,548.07,650.64L548.07,650.64z M548.07,646.61c-1.56,0-2.8-1.24-2.8-2.79
		c0-1.56,1.24-2.85,2.8-2.85c1.56,0,2.85,1.29,2.85,2.85C550.92,645.38,549.63,646.61,548.07,646.61L548.07,646.61z M569.65,675.15
		h5.92v-16.39h7.64v-5.37h-7.64V642.9h9.74v-5.37h-15.66V675.15L569.65,675.15z M588.16,675.15h16.14v-5.37h-10.22v-11.55h8.13
		v-5.37h-8.13v-9.94h10.22v-5.37h-16.14V675.15L588.16,675.15z M615.49,675.69c5.81,0,8.93-3.44,8.93-9.57
		c0-4.68-1.56-7.69-6.51-12.04c-3.87-3.39-5.11-5.37-5.11-8.11c0-2.58,1.08-3.6,2.96-3.6s2.96,1.02,2.96,3.71v1.93h5.6v-1.56
		c0-6.02-2.85-9.46-8.61-9.46c-5.76,0-8.82,3.44-8.82,9.35c0,4.3,1.61,7.36,6.56,11.72c3.87,3.39,5.06,5.37,5.06,8.49
		c0,2.79-1.18,3.76-3.07,3.76c-1.88,0-3.07-0.97-3.07-3.65v-2.58h-5.6v2.15C606.78,672.25,609.68,675.69,615.49,675.69
		L615.49,675.69z M632.44,675.15h5.92V642.9h6.19v-5.37h-18.29v5.37h6.19V675.15L632.44,675.15z M647.4,675.15h5.92v-37.62h-5.92
		V675.15L647.4,675.15z M661.88,675.15h7.86l5.7-37.62H670l-3.87,29.18h-0.11l-3.87-29.18h-5.97L661.88,675.15L661.88,675.15z
		 M675.22,675.15h5.49l1.08-7.36h6.73v-0.11l1.08,7.47h5.92l-6.13-37.62h-8.02L675.22,675.15L675.22,675.15z M682.49,662.68
		l2.58-18.59h0.11l2.64,18.59H682.49L682.49,662.68z M698.36,675.15h15.66v-5.37h-9.74v-32.24h-5.92V675.15L698.36,675.15z
		 M725.48,675.15h5.27v-27.46h0.11l7.1,27.46h6.08v-37.62h-5.27v22.52h-0.11l-5.76-22.52h-7.43V675.15L725.48,675.15z M746.9,675.15
		h5.49l1.08-7.36h6.73v-0.11l1.08,7.47h5.92l-6.13-37.62h-8.02L746.9,675.15L746.9,675.15z M754.16,662.68l2.58-18.59h0.11
		l2.64,18.59H754.16L754.16,662.68z M778.27,675.69c5.7,0,8.72-3.44,8.72-9.24v-5.32h-5.6v5.75c0,2.47-1.18,3.44-2.96,3.44
		c-1.78,0-2.96-0.97-2.96-3.44v-21.01c0-2.47,1.18-3.49,2.96-3.49c1.78,0,2.96,1.02,2.96,3.49v4.35h5.6v-3.98
		c0-5.8-3.01-9.24-8.72-9.24c-5.7,0-8.72,3.44-8.72,9.24v20.21C769.55,672.25,772.57,675.69,778.27,675.69L778.27,675.69z
		 M790.54,675.15h5.92v-37.62h-5.92V675.15L790.54,675.15z M809.42,675.69c5.81,0,8.99-3.44,8.99-9.46v-19.78
		c0-6.02-3.17-9.46-8.99-9.46c-5.81,0-8.99,3.44-8.99,9.46v19.78C800.44,672.25,803.61,675.69,809.42,675.69L809.42,675.69z
		 M809.42,670.31c-1.88,0-3.07-1.02-3.07-3.71v-20.53c0-2.69,1.18-3.71,3.07-3.71c1.88,0,3.07,1.02,3.07,3.71v20.53
		C812.49,669.29,811.31,670.31,809.42,670.31L809.42,670.31z M822.39,675.15h5.27v-27.46h0.11l7.1,27.46h6.08v-37.62h-5.27v22.52
		h-0.11l-5.76-22.52h-7.43V675.15L822.39,675.15z M843.81,675.15h5.49l1.08-7.36h6.73v-0.11l1.08,7.47h5.92l-6.13-37.62h-8.02
		L843.81,675.15L843.81,675.15z M851.07,662.68l2.58-18.59h0.11l2.64,18.59H851.07L851.07,662.68z M866.95,675.15h15.66v-5.37h-9.74
		v-32.24h-5.92V675.15L866.95,675.15z M894.07,675.15h9.04c5.92,0,8.82-3.28,8.82-9.3v-19.02c0-6.02-2.91-9.3-8.82-9.3h-9.04V675.15
		L894.07,675.15z M899.99,669.77V642.9H903c1.88,0,3.01,0.97,3.01,3.65v19.56c0,2.69-1.13,3.65-3.01,3.65H899.99L899.99,669.77z
		 M915.92,675.15h16.14v-5.37h-10.22v-11.55h8.13v-5.37h-8.13v-9.94h10.22v-5.37h-16.14V675.15L915.92,675.15z M944.06,675.15h5.92
		v-16.39h7.64v-5.37h-7.64V642.9h9.74v-5.37h-15.66V675.15L944.06,675.15z M971.12,675.69c5.81,0,8.99-3.44,8.99-9.46v-19.78
		c0-6.02-3.17-9.46-8.99-9.46c-5.81,0-8.99,3.44-8.99,9.46v19.78C962.14,672.25,965.31,675.69,971.12,675.69L971.12,675.69z
		 M971.12,670.31c-1.88,0-3.07-1.02-3.07-3.71v-20.53c0-2.69,1.18-3.71,3.07-3.71c1.88,0,3.07,1.02,3.07,3.71v20.53
		C974.19,669.29,973.01,670.31,971.12,670.31L971.12,670.31z M984.09,675.15h15.66v-5.37h-9.74v-32.24h-5.92V675.15L984.09,675.15z
		 M1002.6,675.15h5.92v-11.98l2.37-4.78l5,16.77h6.19l-7.16-23.81l7.05-13.81h-5.92l-7.53,15.85v-15.85h-5.92V675.15L1002.6,675.15z
		 M1024.88,675.15h15.66v-5.37h-9.74v-32.24h-5.92V675.15L1024.88,675.15z M1051.73,675.69c5.81,0,8.99-3.44,8.99-9.46v-19.78
		c0-6.02-3.18-9.46-8.99-9.46c-5.81,0-8.99,3.44-8.99,9.46v19.78C1042.75,672.25,1045.92,675.69,1051.73,675.69L1051.73,675.69z
		 M1051.73,670.31c-1.88,0-3.07-1.02-3.07-3.71v-20.53c0-2.69,1.18-3.71,3.07-3.71s3.07,1.02,3.07,3.71v20.53
		C1054.8,669.29,1053.62,670.31,1051.73,670.31L1051.73,670.31z M1064.7,675.15h5.92v-16.12h2.04c2.69,0,3.71,1.13,3.71,4.62v6.88
		c0,3.06,0.22,3.65,0.54,4.62h6.03c-0.59-1.4-0.65-2.74-0.65-4.57v-6.61c0-4.24-0.97-7.04-3.93-7.95v-0.11
		c2.64-1.07,3.87-3.55,3.87-7.42v-2.31c0-5.8-2.64-8.65-8.77-8.65h-8.77V675.15L1064.7,675.15z M1070.62,653.65V642.9h2.69
		c2.1,0,3.01,1.18,3.01,3.87v2.9c0,3.01-1.34,3.98-3.55,3.98H1070.62L1070.62,653.65z M1086.39,675.15h16.14v-5.37h-10.22v-11.55
		h8.13v-5.37h-8.13v-9.94h10.22v-5.37h-16.14V675.15L1086.39,675.15z"/>
	<path class="st1" d="M455.28,610.48c19.89,0,30.39-12.01,30.39-32.27v-18.57h-19.51v20.07c0,8.63-4.13,12.01-10.32,12.01
		c-6.19,0-10.32-3.38-10.32-12.01v-73.35c0-8.63,4.13-12.19,10.32-12.19c6.19,0,10.32,3.56,10.32,12.19v15.2h19.51v-13.88
		c0-20.26-10.51-32.27-30.39-32.27c-19.89,0-30.39,12.01-30.39,32.27v70.54C424.89,598.48,435.4,610.48,455.28,610.48L455.28,610.48
		z M525.4,610.48c20.26,0,31.33-12.01,31.33-33.02v-69.04c0-21.01-11.07-33.02-31.33-33.02c-20.26,0-31.33,12.01-31.33,33.02v69.04
		C494.07,598.48,505.14,610.48,525.4,610.48L525.4,610.48z M525.4,591.72c-6.57,0-10.69-3.56-10.69-12.94v-71.66
		c0-9.38,4.13-12.94,10.69-12.94c6.57,0,10.69,3.56,10.69,12.94v71.66C536.09,588.16,531.97,591.72,525.4,591.72L525.4,591.72z
		 M594.58,610.48c20.26,0,31.14-12.01,31.14-33.39c0-16.32-5.44-26.83-22.7-42.02c-13.51-11.82-17.82-18.76-17.82-28.33
		c0-9,3.75-12.57,10.32-12.57c6.57,0,10.32,3.56,10.32,12.94v6.75h19.51v-5.44c0-21.01-9.94-33.02-30.02-33.02
		c-20.07,0-30.77,12.01-30.77,32.64c0,15.01,5.63,25.7,22.89,40.9c13.51,11.82,17.63,18.76,17.63,29.64
		c0,9.76-4.13,13.13-10.69,13.13c-6.57,0-10.69-3.38-10.69-12.76v-9.01h-19.51v7.5C564.19,598.48,574.32,610.48,594.58,610.48
		L594.58,610.48z M695.46,620.8h5.44v-18.76h-3.19c-3.75,0-6.19-0.38-7.69-3c3.75-5.44,5.82-12.57,5.82-21.57v-69.04
		c0-21.01-11.07-33.02-31.33-33.02c-20.26,0-31.33,12.01-31.33,33.02v69.04c0,21.01,11.07,33.02,31.33,33.02
		c5.07,0,9.75-0.75,13.7-2.25C680.64,617.99,687.77,620.8,695.46,620.8L695.46,620.8z M664.51,591.72
		c-6.57,0-10.69-3.56-10.69-12.94v-71.66c0-9.38,4.13-12.94,10.69-12.94c6.57,0,10.69,3.56,10.69,12.94v71.66
		C675.2,588.16,671.07,591.72,664.51,591.72L664.51,591.72z M736.87,610.48c20.26,0,30.77-12.01,30.77-33.02V477.29h-19.89v101.68
		c0,9.38-3.94,12.76-10.51,12.76c-6.57,0-10.51-3.38-10.51-12.76V477.29h-20.64v100.18C706.11,598.48,716.61,610.48,736.87,610.48
		L736.87,610.48z M778.48,468.47h15.57l20.07-21.57h-22.51L778.48,468.47L778.48,468.47z M779.41,608.61h20.64V477.29h-20.64V608.61
		L779.41,608.61z M812.57,608.61h18.39v-95.87h0.38l24.76,95.87h21.2V477.29h-18.38v78.61h-0.38l-20.07-78.61h-25.89V608.61
		L812.57,608.61z"/>
	<path class="st2" d="M888.57,608.61h59.66v-18.76h-39.21v-2.81c0-9.19,3.19-15.76,15.57-28.89c19.14-20.26,25.51-34.14,25.51-49.71
		c0-21.01-10.51-33.02-30.77-33.02c-20.26,0-30.77,12.01-30.77,33.02v12.76h19.51v-14.07c0-9.38,4.13-12.94,10.69-12.94
		c6.57,0,10.69,3.19,10.69,15.01c0,12.19-4.5,22.14-20.26,38.83c-15.38,16.13-20.64,27.58-20.64,46.34V608.61L888.57,608.61z
		 M990.95,610.48c20.26,0,31.33-12.01,31.33-33.02v-69.04c0-21.01-11.07-33.02-31.33-33.02c-20.26,0-31.33,12.01-31.33,33.02v69.04
		C959.62,598.48,970.69,610.48,990.95,610.48L990.95,610.48z M990.95,591.72c-6.57,0-10.69-3.56-10.69-12.94v-71.66
		c0-9.38,4.13-12.94,10.69-12.94c6.57,0,10.69,3.56,10.69,12.94v71.66C1001.64,588.16,997.52,591.72,990.95,591.72L990.95,591.72z
		 M1032.93,608.61h59.66v-18.76h-39.21v-2.81c0-9.19,3.19-15.76,15.57-28.89c19.14-20.26,25.51-34.14,25.51-49.71
		c0-21.01-10.51-33.02-30.77-33.02c-20.26,0-30.77,12.01-30.77,33.02v12.76h19.51v-14.07c0-9.38,4.13-12.94,10.69-12.94
		c6.57,0,10.69,3.19,10.69,15.01c0,12.19-4.5,22.14-20.26,38.83c-15.38,16.13-20.64,27.58-20.64,46.34V608.61L1032.93,608.61z
		 M1135.31,610.48c20.26,0,31.33-12.01,31.33-33.02v-69.04c0-21.01-11.07-33.02-31.33-33.02c-20.26,0-31.33,12.01-31.33,33.02v69.04
		C1103.98,598.48,1115.05,610.48,1135.31,610.48L1135.31,610.48z M1135.31,591.72c-6.57,0-10.69-3.56-10.69-12.94v-71.66
		c0-9.38,4.13-12.94,10.69-12.94c6.57,0,10.69,3.56,10.69,12.94v71.66C1146,588.16,1141.88,591.72,1135.31,591.72L1135.31,591.72z"
		/>
	<path class="st3" d="M532.22,432.32l2.23-2.49c0.73-0.85,1.61-1.81,2.65-2.89c1.03-1.08,2.01-2.22,2.93-3.41
		c0.92-1.2,1.71-2.41,2.36-3.63c0.66-1.23,0.99-2.41,0.99-3.55c0-1.23-0.38-2.21-1.14-2.95c-0.76-0.74-1.75-1.12-2.98-1.12
		c-0.5,0-1.01,0.07-1.55,0.22c-0.54,0.15-1.08,0.34-1.62,0.57c-0.54,0.23-1.06,0.49-1.55,0.77c-0.5,0.28-0.93,0.56-1.31,0.85
		l-0.48-6.35c1.6-0.5,3.11-0.91,4.53-1.25c1.42-0.34,2.91-0.5,4.49-0.5c1.2,0,2.33,0.2,3.39,0.61c1.06,0.41,2,0.99,2.8,1.75
		c0.8,0.76,1.44,1.66,1.9,2.71c0.47,1.05,0.7,2.23,0.7,3.55c0,1.58-0.36,3.17-1.09,4.79c-0.73,1.62-1.6,3.15-2.6,4.6
		c-1.01,1.44-2.06,2.75-3.15,3.92c-1.09,1.17-1.99,2.09-2.69,2.76l-1.09,1.05h10.94v5.34h-18.64V432.32L532.22,432.32z
		 M555.59,407.11h16.72v5.16h-10.68v5.69c0.44-0.06,0.88-0.1,1.31-0.13c0.44-0.03,0.88-0.04,1.31-0.04c3.01,0,5.33,0.87,6.96,2.6
		c1.63,1.74,2.45,4.25,2.45,7.55c0,1.25-0.23,2.49-0.7,3.72c-0.47,1.22-1.17,2.32-2.1,3.28c-0.93,0.96-2.11,1.74-3.52,2.34
		c-1.42,0.6-3.07,0.9-4.97,0.9c-0.96,0-1.79-0.04-2.49-0.11c-0.7-0.07-1.33-0.17-1.88-0.28c-0.55-0.12-1.07-0.26-1.55-0.44
		c-0.48-0.17-0.99-0.36-1.51-0.57l0.35-5.43c1.17,0.47,2.17,0.83,3.02,1.09c0.85,0.26,1.74,0.39,2.67,0.39
		c0.99,0,1.84-0.16,2.54-0.48c0.7-0.32,1.27-0.74,1.71-1.25c0.44-0.51,0.76-1.06,0.96-1.64c0.2-0.58,0.31-1.14,0.31-1.66
		c0-1.08-0.22-1.96-0.66-2.65c-0.44-0.69-0.97-1.23-1.6-1.62c-0.63-0.39-1.29-0.66-1.99-0.81c-0.7-0.15-1.31-0.22-1.84-0.22
		c-0.76,0-1.53,0.08-2.32,0.24c-0.79,0.16-1.62,0.36-2.49,0.59V407.11L555.59,407.11z M596.08,426.28c0,0.58,0.02,1.26,0.07,2.04
		c0.04,0.77,0.18,1.51,0.39,2.21c0.22,0.7,0.55,1.29,1.01,1.77c0.45,0.48,1.07,0.72,1.86,0.72c0.7,0,1.28-0.23,1.73-0.68
		c0.45-0.45,0.81-1.02,1.07-1.71c0.26-0.69,0.44-1.41,0.53-2.19c0.09-0.77,0.13-1.49,0.13-2.17c0-0.9-0.05-1.78-0.15-2.63
		c-0.1-0.85-0.28-1.6-0.52-2.25c-0.25-0.66-0.6-1.18-1.05-1.58c-0.45-0.39-1.03-0.59-1.73-0.59c-0.76,0-1.36,0.2-1.82,0.59
		c-0.45,0.39-0.79,0.92-1.01,1.58c-0.22,0.66-0.36,1.41-0.42,2.25C596.11,424.5,596.08,425.38,596.08,426.28L596.08,426.28z
		 M609.77,432.54c0,0.73,0.01,1.36,0.02,1.88c0.01,0.52,0.03,0.98,0.04,1.38c0.01,0.39,0.03,0.74,0.04,1.03
		c0.01,0.29,0.04,0.57,0.07,0.83h-6.56c-0.06-0.44-0.1-0.96-0.13-1.55c-0.03-0.6-0.04-1.29-0.04-2.08h-0.09
		c-0.17,0.35-0.41,0.75-0.7,1.2c-0.29,0.45-0.68,0.89-1.16,1.31c-0.48,0.42-1.08,0.77-1.79,1.05c-0.72,0.28-1.57,0.42-2.56,0.42
		c-1.28,0-2.42-0.3-3.41-0.9c-0.99-0.6-1.83-1.44-2.52-2.52c-0.69-1.08-1.2-2.38-1.55-3.89c-0.35-1.52-0.52-3.18-0.52-4.99
		c0-1.52,0.15-2.96,0.44-4.33c0.29-1.37,0.76-2.56,1.4-3.57c0.64-1.01,1.47-1.81,2.49-2.41c1.02-0.6,2.25-0.9,3.68-0.9
		c1.61,0,2.88,0.36,3.83,1.09c0.95,0.73,1.63,1.6,2.04,2.63h0.09v-13.39h6.91V432.54L609.77,432.54z M634.02,428.08h-13.44
		c0,0.67,0.11,1.32,0.33,1.95c0.22,0.63,0.56,1.18,1.03,1.66c0.47,0.48,1.06,0.87,1.77,1.16c0.72,0.29,1.55,0.44,2.52,0.44
		c1.2,0,2.36-0.18,3.48-0.55c1.12-0.37,2.11-0.78,2.95-1.25l0.13,5.21c-1.11,0.41-2.29,0.73-3.54,0.96
		c-1.25,0.23-2.48,0.35-3.68,0.35c-2.01,0-3.74-0.29-5.19-0.87c-1.44-0.58-2.64-1.39-3.59-2.43c-0.95-1.04-1.65-2.28-2.1-3.72
		c-0.45-1.44-0.68-3.04-0.68-4.79c0-1.52,0.22-2.98,0.66-4.4c0.44-1.42,1.09-2.66,1.95-3.74c0.86-1.08,1.92-1.94,3.17-2.58
		c1.25-0.64,2.7-0.96,4.33-0.96c0.35,0,0.83,0.02,1.44,0.07c0.61,0.04,1.29,0.17,2.03,0.39c0.74,0.22,1.5,0.56,2.25,1.03
		c0.76,0.47,1.44,1.15,2.06,2.04c0.61,0.89,1.12,2.01,1.51,3.37c0.39,1.36,0.59,3.03,0.59,5.01V428.08L634.02,428.08z
		 M627.72,424.31c0-0.73-0.05-1.43-0.15-2.1c-0.1-0.67-0.29-1.27-0.57-1.79c-0.28-0.53-0.65-0.94-1.12-1.25
		c-0.47-0.31-1.05-0.46-1.75-0.46c-0.88,0-1.55,0.23-2.04,0.7c-0.48,0.47-0.83,1.01-1.05,1.64c-0.22,0.63-0.35,1.25-0.39,1.88
		c-0.04,0.63-0.07,1.09-0.07,1.38H627.72L627.72,424.31z M668.9,428.08h-13.44c0,0.67,0.11,1.32,0.33,1.95
		c0.22,0.63,0.56,1.18,1.03,1.66c0.47,0.48,1.06,0.87,1.77,1.16c0.71,0.29,1.55,0.44,2.52,0.44c1.2,0,2.36-0.18,3.48-0.55
		c1.12-0.37,2.11-0.78,2.95-1.25l0.13,5.21c-1.11,0.41-2.29,0.73-3.55,0.96c-1.25,0.23-2.48,0.35-3.68,0.35
		c-2.01,0-3.74-0.29-5.19-0.87c-1.44-0.58-2.64-1.39-3.59-2.43c-0.95-1.04-1.65-2.28-2.1-3.72c-0.45-1.44-0.68-3.04-0.68-4.79
		c0-1.52,0.22-2.98,0.66-4.4c0.44-1.42,1.09-2.66,1.95-3.74c0.86-1.08,1.92-1.94,3.17-2.58c1.25-0.64,2.7-0.96,4.33-0.96
		c0.35,0,0.83,0.02,1.44,0.07c0.61,0.04,1.29,0.17,2.04,0.39c0.74,0.22,1.5,0.56,2.25,1.03c0.76,0.47,1.44,1.15,2.06,2.04
		c0.61,0.89,1.12,2.01,1.51,3.37c0.39,1.36,0.59,3.03,0.59,5.01V428.08L668.9,428.08z M662.6,424.31c0-0.73-0.05-1.43-0.15-2.1
		c-0.1-0.67-0.29-1.27-0.57-1.79c-0.28-0.53-0.65-0.94-1.12-1.25c-0.47-0.31-1.05-0.46-1.75-0.46c-0.88,0-1.55,0.23-2.04,0.7
		c-0.48,0.47-0.83,1.01-1.05,1.64c-0.22,0.63-0.35,1.25-0.39,1.88c-0.04,0.63-0.07,1.09-0.07,1.38H662.6L662.6,424.31z
		 M685.57,423.61c0-1.43-0.27-2.38-0.81-2.87c-0.54-0.48-1.16-0.72-1.86-0.72c-1.11,0-1.89,0.44-2.34,1.31
		c-0.45,0.88-0.68,2.06-0.68,3.54v12.78h-6.91v-18.03c0-1.11-0.02-2.04-0.04-2.78c-0.03-0.74-0.07-1.41-0.13-1.99h6.3
		c0.06,0.5,0.1,1.06,0.13,1.71c0.03,0.64,0.04,1.34,0.04,2.1h0.09c0.52-1.25,1.28-2.26,2.25-3.02c0.98-0.76,2.37-1.14,4.18-1.14
		c1.25,0,2.31,0.22,3.17,0.66c0.86,0.44,1.55,1.03,2.08,1.77c0.53,0.74,0.9,1.61,1.12,2.6c0.22,0.99,0.33,2.06,0.33,3.19v14.92
		h-6.91V423.61L685.57,423.61z M716.73,428.08H703.3c0,0.67,0.11,1.32,0.33,1.95c0.22,0.63,0.56,1.18,1.03,1.66
		c0.47,0.48,1.06,0.87,1.77,1.16c0.71,0.29,1.55,0.44,2.52,0.44c1.2,0,2.36-0.18,3.48-0.55c1.12-0.37,2.11-0.78,2.95-1.25l0.13,5.21
		c-1.11,0.41-2.29,0.73-3.54,0.96c-1.25,0.23-2.48,0.35-3.68,0.35c-2.01,0-3.74-0.29-5.19-0.87c-1.44-0.58-2.64-1.39-3.59-2.43
		c-0.95-1.04-1.65-2.28-2.1-3.72c-0.45-1.44-0.68-3.04-0.68-4.79c0-1.52,0.22-2.98,0.66-4.4c0.44-1.42,1.09-2.66,1.95-3.74
		c0.86-1.08,1.92-1.94,3.17-2.58c1.25-0.64,2.7-0.96,4.33-0.96c0.35,0,0.83,0.02,1.44,0.07c0.61,0.04,1.29,0.17,2.04,0.39
		c0.74,0.22,1.5,0.56,2.25,1.03c0.76,0.47,1.44,1.15,2.06,2.04c0.61,0.89,1.12,2.01,1.51,3.37c0.39,1.36,0.59,3.03,0.59,5.01V428.08
		L716.73,428.08z M710.43,424.31c0-0.73-0.05-1.43-0.15-2.1c-0.1-0.67-0.29-1.27-0.57-1.79c-0.28-0.53-0.65-0.94-1.12-1.25
		c-0.47-0.31-1.05-0.46-1.75-0.46c-0.88,0-1.55,0.23-2.04,0.7c-0.48,0.47-0.83,1.01-1.05,1.64c-0.22,0.63-0.35,1.25-0.39,1.88
		c-0.04,0.63-0.07,1.09-0.07,1.38H710.43L710.43,424.31z M720.8,419.63c0-1.11-0.02-2.04-0.04-2.78c-0.03-0.74-0.07-1.41-0.13-1.99
		h6.3c0.03,0.67,0.06,1.36,0.09,2.06c0.03,0.7,0.06,1.39,0.09,2.06h0.09c0.35-0.61,0.69-1.19,1.03-1.73
		c0.34-0.54,0.73-1.01,1.18-1.42c0.45-0.41,1.01-0.73,1.66-0.96c0.66-0.23,1.48-0.35,2.47-0.35h1.01v6.39
		c-0.38-0.09-0.74-0.15-1.07-0.2c-0.33-0.04-0.75-0.07-1.25-0.07c-1.02,0-1.82,0.2-2.41,0.59c-0.58,0.39-1.04,0.92-1.36,1.58
		c-0.32,0.66-0.52,1.39-0.61,2.21c-0.09,0.82-0.13,1.63-0.13,2.45v10.2h-6.91V419.63L720.8,419.63z M743.65,426.2
		c0,2.25,0.28,3.99,0.85,5.23c0.57,1.24,1.47,1.86,2.69,1.86c1.23,0,2.12-0.62,2.69-1.86s0.85-2.98,0.85-5.23
		c0-2.25-0.28-3.97-0.85-5.16c-0.57-1.2-1.47-1.79-2.69-1.79c-1.23,0-2.12,0.6-2.69,1.79C743.93,422.23,743.65,423.95,743.65,426.2
		L743.65,426.2z M736.47,426.2c0-1.69,0.23-3.26,0.7-4.71c0.47-1.44,1.14-2.68,2.03-3.7c0.89-1.02,2.01-1.82,3.35-2.41
		c1.34-0.58,2.89-0.88,4.64-0.88c1.75,0,3.3,0.29,4.64,0.88c1.34,0.58,2.46,1.39,3.35,2.41c0.89,1.02,1.57,2.25,2.03,3.7
		c0.47,1.44,0.7,3.01,0.7,4.71c0,1.72-0.23,3.3-0.7,4.75c-0.47,1.44-1.15,2.69-2.03,3.74c-0.89,1.05-2.01,1.87-3.35,2.45
		c-1.34,0.58-2.89,0.87-4.64,0.87c-1.75,0-3.3-0.29-4.64-0.87c-1.34-0.58-2.46-1.4-3.35-2.45c-0.89-1.05-1.57-2.3-2.03-3.74
		C736.71,429.5,736.47,427.92,736.47,426.2L736.47,426.2z M786.01,426.68c-0.7,0-1.46,0.03-2.28,0.09c-0.82,0.06-1.58,0.22-2.3,0.48
		c-0.71,0.26-1.31,0.66-1.79,1.18c-0.48,0.52-0.72,1.27-0.72,2.23c0,0.76,0.13,1.34,0.39,1.73c0.26,0.39,0.56,0.69,0.9,0.88
		c0.34,0.19,0.66,0.3,0.99,0.33c0.32,0.03,0.55,0.04,0.7,0.04c0.15,0,0.45-0.04,0.9-0.11c0.45-0.07,0.92-0.28,1.4-0.63
		c0.48-0.35,0.91-0.9,1.27-1.66c0.37-0.76,0.55-1.84,0.55-3.24V426.68L786.01,426.68z M775.12,415.96c0.44-0.15,0.96-0.3,1.55-0.46
		c0.6-0.16,1.22-0.31,1.86-0.46c0.64-0.15,1.3-0.27,1.99-0.37c0.69-0.1,1.33-0.15,1.95-0.15c2.01,0,3.65,0.2,4.92,0.59
		c1.27,0.39,2.27,0.96,3,1.71c0.73,0.74,1.23,1.63,1.51,2.67c0.28,1.04,0.42,2.18,0.42,3.44v8.32c0,0.85,0,1.59,0,2.23
		c0,0.61,0.01,1.17,0.02,1.66c0.01,0.5,0.04,0.95,0.07,1.36c0.03,0.41,0.06,0.8,0.09,1.18h-6.3l-0.18-3.15h-0.09
		c-0.09,0.35-0.31,0.73-0.66,1.14c-0.35,0.41-0.8,0.79-1.36,1.14c-0.55,0.35-1.2,0.64-1.93,0.88c-0.73,0.23-1.5,0.35-2.32,0.35
		c-2.13,0-3.84-0.63-5.12-1.88c-1.28-1.25-1.93-2.93-1.93-5.03c0-1.25,0.23-2.32,0.68-3.19c0.45-0.88,1.03-1.6,1.73-2.17
		c0.7-0.57,1.48-1.01,2.34-1.31c0.86-0.31,1.71-0.53,2.54-0.68c0.83-0.15,1.6-0.23,2.32-0.26c0.72-0.03,1.28-0.04,1.68-0.04h2.1
		c0-1.08-0.17-1.92-0.53-2.52c-0.35-0.6-0.76-1.04-1.22-1.31c-0.47-0.28-0.93-0.44-1.4-0.48c-0.47-0.04-0.83-0.07-1.09-0.07
		c-0.88,0-1.81,0.13-2.8,0.39c-0.99,0.26-2.17,0.8-3.55,1.62L775.12,415.96L775.12,415.96z M797.26,404.84h6.91v32.82h-6.91V404.84
		L797.26,404.84z M820.24,432.32l2.23-2.49c0.73-0.85,1.61-1.81,2.65-2.89c1.03-1.08,2.01-2.22,2.93-3.41
		c0.92-1.2,1.71-2.41,2.36-3.63c0.66-1.23,0.98-2.41,0.98-3.55c0-1.23-0.38-2.21-1.14-2.95c-0.76-0.74-1.75-1.12-2.98-1.12
		c-0.5,0-1.01,0.07-1.55,0.22c-0.54,0.15-1.08,0.34-1.62,0.57c-0.54,0.23-1.06,0.49-1.55,0.77c-0.5,0.28-0.93,0.56-1.31,0.85
		l-0.48-6.35c1.61-0.5,3.11-0.91,4.53-1.25c1.42-0.34,2.91-0.5,4.49-0.5c1.2,0,2.33,0.2,3.39,0.61c1.06,0.41,2,0.99,2.8,1.75
		c0.8,0.76,1.44,1.66,1.9,2.71c0.47,1.05,0.7,2.23,0.7,3.55c0,1.58-0.36,3.17-1.09,4.79c-0.73,1.62-1.6,3.15-2.6,4.6
		c-1.01,1.44-2.06,2.75-3.15,3.92c-1.09,1.17-1.99,2.09-2.69,2.76l-1.09,1.05h10.94v5.34h-18.64V432.32L820.24,432.32z
		 M861.33,426.28c0,0.58,0.02,1.26,0.07,2.04c0.04,0.77,0.18,1.51,0.39,2.21c0.22,0.7,0.55,1.29,1.01,1.77
		c0.45,0.48,1.07,0.72,1.86,0.72c0.7,0,1.28-0.23,1.73-0.68c0.45-0.45,0.81-1.02,1.07-1.71c0.26-0.69,0.44-1.41,0.52-2.19
		c0.09-0.77,0.13-1.49,0.13-2.17c0-0.9-0.05-1.78-0.15-2.63c-0.1-0.85-0.28-1.6-0.53-2.25c-0.25-0.66-0.6-1.18-1.05-1.58
		c-0.45-0.39-1.03-0.59-1.73-0.59c-0.76,0-1.36,0.2-1.82,0.59c-0.45,0.39-0.79,0.92-1.01,1.58c-0.22,0.66-0.36,1.41-0.42,2.25
		C861.36,424.5,861.33,425.38,861.33,426.28L861.33,426.28z M875.03,432.54c0,0.73,0.01,1.36,0.02,1.88
		c0.01,0.52,0.03,0.98,0.04,1.38c0.01,0.39,0.03,0.74,0.04,1.03c0.02,0.29,0.04,0.57,0.07,0.83h-6.56c-0.06-0.44-0.1-0.96-0.13-1.55
		c-0.03-0.6-0.04-1.29-0.04-2.08h-0.09c-0.18,0.35-0.41,0.75-0.7,1.2c-0.29,0.45-0.68,0.89-1.16,1.31
		c-0.48,0.42-1.08,0.77-1.79,1.05c-0.72,0.28-1.57,0.42-2.56,0.42c-1.28,0-2.42-0.3-3.41-0.9c-0.99-0.6-1.83-1.44-2.52-2.52
		c-0.69-1.08-1.2-2.38-1.55-3.89c-0.35-1.52-0.53-3.18-0.53-4.99c0-1.52,0.15-2.96,0.44-4.33c0.29-1.37,0.76-2.56,1.4-3.57
		c0.64-1.01,1.47-1.81,2.49-2.41c1.02-0.6,2.25-0.9,3.68-0.9c1.6,0,2.88,0.36,3.83,1.09c0.95,0.73,1.63,1.6,2.04,2.63h0.09v-13.39
		h6.92V432.54L875.03,432.54z M899.27,428.08h-13.44c0,0.67,0.11,1.32,0.33,1.95c0.22,0.63,0.56,1.18,1.03,1.66
		c0.47,0.48,1.06,0.87,1.77,1.16c0.71,0.29,1.55,0.44,2.52,0.44c1.2,0,2.36-0.18,3.48-0.55c1.12-0.37,2.11-0.78,2.95-1.25l0.13,5.21
		c-1.11,0.41-2.29,0.73-3.55,0.96c-1.25,0.23-2.48,0.35-3.68,0.35c-2.01,0-3.74-0.29-5.19-0.87c-1.44-0.58-2.64-1.39-3.59-2.43
		c-0.95-1.04-1.65-2.28-2.1-3.72c-0.45-1.44-0.68-3.04-0.68-4.79c0-1.52,0.22-2.98,0.66-4.4c0.44-1.42,1.09-2.66,1.95-3.74
		c0.86-1.08,1.92-1.94,3.17-2.58c1.25-0.64,2.7-0.96,4.33-0.96c0.35,0,0.83,0.02,1.44,0.07c0.61,0.04,1.29,0.17,2.04,0.39
		c0.74,0.22,1.5,0.56,2.25,1.03c0.76,0.47,1.44,1.15,2.06,2.04c0.61,0.89,1.12,2.01,1.51,3.37c0.39,1.36,0.59,3.03,0.59,5.01V428.08
		L899.27,428.08z M892.97,424.31c0-0.73-0.05-1.43-0.15-2.1c-0.1-0.67-0.29-1.27-0.57-1.79c-0.28-0.53-0.65-0.94-1.12-1.25
		c-0.47-0.31-1.05-0.46-1.75-0.46c-0.88,0-1.55,0.23-2.03,0.7c-0.48,0.47-0.83,1.01-1.05,1.64c-0.22,0.63-0.35,1.25-0.39,1.88
		c-0.04,0.63-0.07,1.09-0.07,1.38H892.97L892.97,424.31z M912.71,414.86h3.98v-3.72c0-0.9,0.1-1.77,0.31-2.6
		c0.2-0.83,0.58-1.56,1.12-2.19c0.54-0.63,1.27-1.12,2.19-1.49c0.92-0.37,2.09-0.55,3.52-0.55c1.23,0,2.19,0.07,2.89,0.22
		c0.7,0.15,1.24,0.25,1.62,0.31l-0.18,4.81c-0.52-0.23-1.12-0.35-1.79-0.35c-1.02,0-1.74,0.22-2.14,0.66
		c-0.41,0.44-0.61,1.26-0.61,2.45v2.45h4.16v4.86h-4.16v17.94h-6.91v-17.94h-3.98V414.86L912.71,414.86z M950.35,428.08h-13.44
		c0,0.67,0.11,1.32,0.33,1.95c0.22,0.63,0.56,1.18,1.03,1.66c0.47,0.48,1.06,0.87,1.77,1.16c0.71,0.29,1.55,0.44,2.52,0.44
		c1.2,0,2.36-0.18,3.48-0.55c1.12-0.37,2.11-0.78,2.95-1.25l0.13,5.21c-1.11,0.41-2.29,0.73-3.55,0.96
		c-1.25,0.23-2.48,0.35-3.68,0.35c-2.01,0-3.74-0.29-5.19-0.87c-1.44-0.58-2.64-1.39-3.59-2.43c-0.95-1.04-1.65-2.28-2.1-3.72
		c-0.45-1.44-0.68-3.04-0.68-4.79c0-1.52,0.22-2.98,0.66-4.4c0.44-1.42,1.09-2.66,1.95-3.74c0.86-1.08,1.92-1.94,3.17-2.58
		c1.25-0.64,2.7-0.96,4.33-0.96c0.35,0,0.83,0.02,1.44,0.07c0.61,0.04,1.29,0.17,2.04,0.39c0.74,0.22,1.5,0.56,2.25,1.03
		c0.76,0.47,1.44,1.15,2.06,2.04c0.61,0.89,1.12,2.01,1.51,3.37c0.39,1.36,0.59,3.03,0.59,5.01V428.08L950.35,428.08z
		 M944.04,424.31c0-0.73-0.05-1.43-0.15-2.1c-0.1-0.67-0.29-1.27-0.57-1.79c-0.28-0.53-0.65-0.94-1.12-1.25
		c-0.47-0.31-1.05-0.46-1.75-0.46c-0.88,0-1.55,0.23-2.04,0.7c-0.48,0.47-0.83,1.01-1.05,1.64c-0.22,0.63-0.35,1.25-0.39,1.88
		c-0.04,0.63-0.07,1.09-0.07,1.38H944.04L944.04,424.31z M968.12,426.28c0-0.9-0.03-1.78-0.09-2.63c-0.06-0.85-0.2-1.6-0.42-2.25
		c-0.22-0.66-0.55-1.18-1.01-1.58c-0.45-0.39-1.06-0.59-1.82-0.59c-0.7,0-1.28,0.2-1.73,0.59c-0.45,0.39-0.8,0.92-1.05,1.58
		c-0.25,0.66-0.42,1.41-0.53,2.25c-0.1,0.85-0.15,1.72-0.15,2.63c0,0.67,0.04,1.39,0.13,2.17c0.09,0.77,0.26,1.5,0.52,2.19
		c0.26,0.69,0.62,1.25,1.07,1.71c0.45,0.45,1.03,0.68,1.73,0.68c0.79,0,1.4-0.24,1.84-0.72c0.44-0.48,0.77-1.07,0.99-1.77
		c0.22-0.7,0.36-1.44,0.42-2.21C968.09,427.55,968.12,426.87,968.12,426.28L968.12,426.28z M954.42,404.84h6.91v13.39h0.09
		c0.41-1.02,1.09-1.9,2.03-2.63c0.95-0.73,2.23-1.09,3.83-1.09c1.43,0,2.66,0.3,3.68,0.9c1.02,0.6,1.85,1.4,2.49,2.41
		c0.64,1.01,1.11,2.2,1.4,3.57c0.29,1.37,0.44,2.82,0.44,4.33c0,1.81-0.18,3.47-0.53,4.99c-0.35,1.52-0.87,2.82-1.55,3.89
		c-0.69,1.08-1.53,1.92-2.52,2.52c-0.99,0.6-2.13,0.9-3.41,0.9c-0.99,0-1.85-0.14-2.56-0.42c-0.71-0.28-1.31-0.63-1.79-1.05
		c-0.48-0.42-0.87-0.86-1.16-1.31c-0.29-0.45-0.53-0.85-0.7-1.2h-0.09c0,0.79-0.02,1.48-0.04,2.08c-0.03,0.6-0.07,1.12-0.13,1.55
		h-6.56c0.03-0.26,0.05-0.54,0.07-0.83c0.01-0.29,0.03-0.63,0.04-1.03c0.01-0.39,0.03-0.85,0.04-1.38c0.02-0.53,0.02-1.15,0.02-1.88
		V404.84L954.42,404.84z M979.54,419.63c0-1.11-0.01-2.04-0.04-2.78c-0.03-0.74-0.07-1.41-0.13-1.99h6.3
		c0.03,0.67,0.06,1.36,0.09,2.06c0.03,0.7,0.06,1.39,0.09,2.06h0.09c0.35-0.61,0.69-1.19,1.03-1.73c0.33-0.54,0.73-1.01,1.18-1.42
		c0.45-0.41,1.01-0.73,1.66-0.96c0.66-0.23,1.48-0.35,2.47-0.35h1.01v6.39c-0.38-0.09-0.74-0.15-1.07-0.2
		c-0.34-0.04-0.75-0.07-1.25-0.07c-1.02,0-1.82,0.2-2.41,0.59c-0.58,0.39-1.04,0.92-1.36,1.58c-0.32,0.66-0.53,1.39-0.61,2.21
		c-0.09,0.82-0.13,1.63-0.13,2.45v10.2h-6.91V419.63L979.54,419.63z M1015.21,428.08h-13.44c0,0.67,0.11,1.32,0.33,1.95
		c0.22,0.63,0.56,1.18,1.03,1.66c0.47,0.48,1.06,0.87,1.77,1.16c0.71,0.29,1.55,0.44,2.52,0.44c1.2,0,2.36-0.18,3.48-0.55
		c1.12-0.37,2.11-0.78,2.95-1.25l0.13,5.21c-1.11,0.41-2.29,0.73-3.55,0.96c-1.25,0.23-2.48,0.35-3.68,0.35
		c-2.01,0-3.74-0.29-5.19-0.87c-1.44-0.58-2.64-1.39-3.59-2.43c-0.95-1.04-1.65-2.28-2.1-3.72c-0.45-1.44-0.68-3.04-0.68-4.79
		c0-1.52,0.22-2.98,0.66-4.4c0.44-1.42,1.09-2.66,1.95-3.74c0.86-1.08,1.92-1.94,3.17-2.58c1.25-0.64,2.7-0.96,4.33-0.96
		c0.35,0,0.83,0.02,1.44,0.07c0.61,0.04,1.29,0.17,2.04,0.39c0.74,0.22,1.5,0.56,2.25,1.03c0.76,0.47,1.44,1.15,2.06,2.04
		c0.61,0.89,1.12,2.01,1.51,3.37c0.39,1.36,0.59,3.03,0.59,5.01V428.08L1015.21,428.08z M1008.9,424.31c0-0.73-0.05-1.43-0.15-2.1
		c-0.1-0.67-0.29-1.27-0.57-1.79c-0.28-0.53-0.65-0.94-1.12-1.25c-0.47-0.31-1.05-0.46-1.75-0.46c-0.88,0-1.55,0.23-2.03,0.7
		c-0.48,0.47-0.83,1.01-1.05,1.64c-0.22,0.63-0.35,1.25-0.39,1.88c-0.04,0.63-0.07,1.09-0.07,1.38H1008.9L1008.9,424.31z
		 M1019.28,419.63c0-1.11-0.01-2.04-0.04-2.78c-0.03-0.74-0.07-1.41-0.13-1.99h6.3c0.03,0.67,0.06,1.36,0.09,2.06
		c0.03,0.7,0.06,1.39,0.09,2.06h0.09c0.35-0.61,0.69-1.19,1.03-1.73c0.34-0.54,0.73-1.01,1.18-1.42c0.45-0.41,1.01-0.73,1.66-0.96
		c0.66-0.23,1.48-0.35,2.47-0.35h1.01v6.39c-0.38-0.09-0.74-0.15-1.07-0.2c-0.34-0.04-0.75-0.07-1.25-0.07
		c-1.02,0-1.82,0.2-2.41,0.59c-0.58,0.39-1.04,0.92-1.36,1.58c-0.32,0.66-0.53,1.39-0.61,2.21c-0.09,0.82-0.13,1.63-0.13,2.45v10.2
		h-6.91V419.63L1019.28,419.63z"/>
	<path class="st3" d="M1042.12,426.2c0,2.25,0.29,3.99,0.85,5.23c0.57,1.24,1.47,1.86,2.69,1.86s2.12-0.62,2.69-1.86
		c0.57-1.24,0.85-2.98,0.85-5.23c0-2.25-0.28-3.97-0.85-5.16c-0.57-1.2-1.47-1.79-2.69-1.79s-2.12,0.6-2.69,1.79
		C1042.41,422.23,1042.12,423.95,1042.12,426.2L1042.12,426.2z M1034.94,426.2c0-1.69,0.23-3.26,0.7-4.71
		c0.47-1.44,1.14-2.68,2.04-3.7c0.89-1.02,2.01-1.82,3.35-2.41c1.34-0.58,2.89-0.88,4.64-0.88c1.75,0,3.3,0.29,4.64,0.88
		c1.34,0.58,2.46,1.39,3.35,2.41c0.89,1.02,1.57,2.25,2.04,3.7c0.47,1.44,0.7,3.01,0.7,4.71c0,1.72-0.23,3.3-0.7,4.75
		c-0.47,1.44-1.15,2.69-2.04,3.74c-0.89,1.05-2.01,1.87-3.35,2.45c-1.34,0.58-2.89,0.87-4.64,0.87c-1.75,0-3.3-0.29-4.64-0.87
		c-1.34-0.58-2.46-1.4-3.35-2.45c-0.89-1.05-1.57-2.3-2.04-3.74C1035.18,429.5,1034.94,427.92,1034.94,426.2L1034.94,426.2z"/>
	<path class="st4" d="M1242.8,469.79c-10.38,20.87-17.29,39.18-20.56,58.02c-3.28,18.88-2.93,38.3,1.21,61.38
		c4.89,27.3,23.85,45.79,46.4,54.09c10.6,3.9,21.98,5.56,33.08,4.82c11.08-0.73,21.87-3.85,31.27-9.5
		c18.08-10.85,31.07-31.06,31.3-61.65c0.1-13.79-6.3-25.52-16.19-33.95c-5.2-4.43-11.37-7.94-18.07-10.37
		c-6.71-2.43-13.94-3.76-21.28-3.81c-16.45-0.12-33.41,6.18-45.99,20.96c-0.44,0.52-0.89,0.75-1.32,0.72
		c-1.06-0.08-1.52-1.98-1.17-5.15c0.3-2.76,1.13-6.63,2.57-11.13c5.87-18.26,22.04-47.06,55.58-54.49
		c0.32-5.17-0.34-17.05-2.32-27.24c-1.35-6.92-3.28-13.02-5.89-15.57c-2.39-0.28-9.06-0.02-15.27,0.7
		c-4.7,0.55-9.11,1.37-11.08,2.42c-3.93,2.08-6.49,3.25-8.5,4.16c-3.88,1.77-5.65,2.58-11.79,7.59l0,0L1242.8,469.79L1242.8,469.79z
		 M1220.87,527.58c3.31-19.03,10.28-37.5,20.75-58.54l0.07-0.13l22.2-18.19h0c6.27-5.12,8.1-5.95,12.09-7.77
		c1.98-0.9,4.5-2.05,8.43-4.13c2.15-1.14,6.72-2,11.57-2.57c6.5-0.76,13.56-1.01,15.84-0.67l0.21,0.03l0.16,0.15
		c2.94,2.69,5.05,9.16,6.48,16.48c2.07,10.65,2.71,23.17,2.31,28.11l-0.04,0.51l-0.5,0.11c-33.24,7.11-49.26,35.62-55.06,53.68
		c-1.41,4.4-2.22,8.18-2.51,10.86c-0.25,2.27-0.28,3.61-0.1,3.62c0.02,0,0.03-0.08,0.17-0.23c12.87-15.12,30.22-21.56,47.05-21.44
		c7.5,0.05,14.9,1.41,21.75,3.89c6.85,2.48,13.16,6.08,18.49,10.62c10.19,8.68,16.78,20.78,16.68,35
		c-0.22,31.14-13.5,51.74-31.96,62.83c-9.6,5.76-20.6,8.95-31.89,9.7c-11.28,0.75-22.86-0.94-33.64-4.9
		c-22.98-8.46-42.29-27.31-47.28-55.15C1217.92,566.19,1217.56,546.61,1220.87,527.58L1220.87,527.58z M1274.44,586.94
		c0.47-7.62,6.15-14.99,13.13-19.81c2.99-2.06,6.26-3.66,9.55-4.6c3.31-0.95,6.65-1.23,9.74-0.66c6.27,1.15,11.48,5.76,13.36,15.37
		c1.95,9.93-4.53,18.05-13.18,22.76c-4.37,2.38-9.31,3.9-13.98,4.32c-4.72,0.43-9.18-0.24-12.56-2.23
		C1276.02,599.46,1273.21,594.54,1274.44,586.94L1274.44,586.94z M1288.36,568.26c-5.55,3.83-10.07,9.33-11.69,15.2
		c-0.57,2.05-1.01,6.31-0.86,8.34c0.33,4.35,2.37,7.33,5.4,9.11c3.12,1.84,7.3,2.45,11.74,2.04c4.49-0.41,9.23-1.87,13.44-4.16
		c8.17-4.45,14.29-12.06,12.48-21.29c-1.76-8.94-6.53-13.22-12.25-14.28c-2.87-0.53-5.99-0.26-9.12,0.63
		C1294.35,564.76,1291.22,566.29,1288.36,568.26L1288.36,568.26z"/>
	<path class="st5" d="M1310.14,435.3c-8.61-3.18-45.15,3.09-49.08,10.39c-2.34,4.35-24.89,10.26-32.85,37.48
		c-4.54,15.52-12.21,23.79-13.64,43.05c-2.36,31.89-10.23,59.77,13.33,88.79c0.3,0.36,23.78,23.06,24.93,23.93
		c6.26,4.75,11.79,9.75,20.14-2.5c7.64-11.21-8.64-16.49-16.92-27.74c-12.1-16.42-17.22-25.75-20.56-47.14
		c-3.19-20.44,5.62-57.11,13.97-76.07c10.44-23.66,3.15-27.72,32.66-42.77C1285.42,441.04,1307.2,434.21,1310.14,435.3
		L1310.14,435.3z"/>
	<path class="st6" d="M1242.24,469.35c-20.9,41.97-27.78,73.64-19.48,119.97c14.04,78.33,142.71,84.81,143.42-12.35
		c0.33-45.15-67.85-68.6-102.75-27.62c-5.65,6.63,4.16-57.78,56.84-69.05c0.68-8.23-1.59-37.66-8.56-44.03
		c-3.88-0.57-22.14,0.6-26.98,3.16c-11.7,6.2-11.06,4.2-20.4,11.82L1242.24,469.35L1242.24,469.35z M1275.93,583.56
		c0.02-0.06,0.03-0.12,0.05-0.18c5.04-18.58,38.18-33.47,43.57-6.01c4.82,24.52-44.02,37.81-44.5,13.56
		c-0.02-1.21,0.09-2.51,0.32-3.9L1275.93,583.56L1275.93,583.56z"/>
	<path class="st7" d="M1306.1,482.58c-26.5,15.25-32.02,19.48-42.37,49.67c-0.04,0.12-5.55,36.28,3.85,23.33
		c11.44-15.76,44.89-29.58,64.99-16c21.85,14.76,15.81,27.5,21.85,49.11c4.45,15.89-2.37,41.47-19.81,47.17
		c-27.09,8.86-39.8,7.24-64.67-9.97c-24.64-17.05-34.75-42.51-34.65-71.73c0.08-22.54-1.5-34.12,7.19-55.86
		c8.39-21.02,25.05-37.48,43.18-50.18c9.2-6.43,11.66-10.8,25.37-8.94C1312.82,449.75,1321.88,473.5,1306.1,482.58L1306.1,482.58z
		 M1279.18,600.41c-0.13-9.07-21.03-16.54,11.6-38.74c17.48-11.9,58.92,2.61,35.06,35.56c-8.37,11.56-25.33,13.22-38.28,8.25
		c-4.91-1.88-5.31-3.35-9.32-5.36L1279.18,600.41L1279.18,600.41z"/>
	<path class="st8" d="M1276.81,466.4c-6.84,3.94-29.23,21.06-29.23,29.56c0,9.79-6.64,21.96-8.49,37.42
		c-1.64,13.68-1.51,33.46,2.67,46.47c3.14,9.79-0.28,7.76,7.73,19.36c18.5,26.78,32.65,24.75,64.19,25.31
		c20.98,0.37,37.74-27.95,9.06-10.68c-11.73,7.06-26.32,4.53-38.66,1.24c-19.47-5.19-17.56-28.97-10.9-42.44
		c8.76-17.74,38.09-13.68,36.24-27.12c-1.25-9.03-43.61,13.06-51.53,24.54c-11.57,16.77-0.78-36.64,0.76-40.63
		c19.93-51.51,42.5-44.48,47.78-57.03c4.92-11.68,2.57-11.81,2.57-24.51C1300.81,446,1286.64,460.74,1276.81,466.4L1276.81,466.4z"
		/>
	<path class="st9" d="M1273.16,701.38l42.19-149.75l-4.15,2.86l-41.89,148.2C1270.65,702.37,1271.99,701.72,1273.16,701.38
		L1273.16,701.38z"/>
	<path class="st10" d="M1269.31,702.68l41.89-148.2l-8.68-3.58l-38.68,148.9C1265.32,702.87,1267.32,703.14,1269.31,702.68
		L1269.31,702.68z"/>
	<path class="st9" d="M1295.35,580.13c2.99,2.2-10.54-1.08-6.28-16.24c9.07-32.27,19.37-20.91,25.99-15.97
		c8.13,6.07-3.67,39.91-13.36,34.38L1295.35,580.13L1295.35,580.13z"/>
	<path class="st11" d="M1294.98,555.88c4.09-8.81,8.58-15.7,18.15-8.08c3.17,2.53,1.07,4.97,0.39,10.13
		c-0.98,7.4-3.04,18.04-11.51,23.73C1298.32,584.14,1283.94,579.64,1294.98,555.88L1294.98,555.88z"/>
	<path class="st12" d="M1291.81,576.33c-4.37-4.46,3.02-21.47,5.46-26.8c4.48-9.8,16.6-1.26,13.38-1.46
		c-8.55-0.52-22.89,16.45-16.81,29.44C1293.46,577.42,1292.06,576.58,1291.81,576.33L1291.81,576.33z"/>
	<path class="st13" d="M1298.5,658.35c2.48-0.59,5.43-11.32,3.06-14.57c-2.28-3.13-3.22-6.52-6.33-8.69
		c-5.16-3.61-5.09-2.83-10.31-4.82c-2.85-1.09-19.9-3.67-21.41-1.5c-8.69,12.45-32.2-3.5-44.37-8.35
		c-11.04-4.4-20.28,34.99-15.57,34.63c1.31-0.1,53.2,27.33,63.05,29.17c4.86,0.91,9.94,1.56,14.36,4.13
		c0.11,0.06,8.99,3.27,9.82,1.49c4.98-10.75-13.13-8.77-14.04-12.06c-1.01-3.62-4.83-6.83-8.19-8.61
		c0.78,0.41,16.12,2.95,15.06,5.41c-0.81,1.87,0.87,1.37-1.3,3.17c-2.46,2.04,6.19,2.72,7.02,1.15c1.46-2.76,3.12-4.24,2.96-7.84
		c-0.05-1.01,3.11-1.17,5.1-4.93c3.17-5.97-1.81-8.14,0.57-8.43L1298.5,658.35L1298.5,658.35z"/>
	<path class="st14" d="M1287.5,638.32c1.18,0.55,3.19-1.68,3.19-1.69c-0.36-3.9-5.48-2.89-9.62-5.08c-3.05-1.62-3.96-2.11-7.14-3.32
		c-2.94-1.13-4.24-0.88-7.28-0.54c-0.17,0.02-9.66,2.88-6.44,4.59c1.79,0.95,4.81,2.75,2.87,5.1c-0.2,0.25-4.51,0.65-2.31,5.04
		c0.93,1.87,0.74,3.21-3.32,5.75c0.13,3.71,1.6,6.58,1.82,6.8c1.62,1.63-3.6,7.92-6.04,8.83c0.12,0.03,4.75,3.88,5.62,4.35
		c2.77,1.47,5.94,1.73,4.21-3.9c-3.18-10.37,5.64-6.36,12.27-3.56c2.28,0.96,12.08,5.15,11.7,0.12
		c-0.18-2.36-13.74-5.95-15.33-10.64c-0.87-2.56,2.56-3.35,4.7-2c3.89,2.45,18.12,7.1,13,0.34c-3.12-4.12-13.21-4.25-14.65-9.15
		C1272.8,632.69,1274.38,632.17,1287.5,638.32L1287.5,638.32z"/>
	<path class="st15" d="M1258.47,676.06c-1.14-0.64-6.53-5.3-7.38-5.02c-6.19,2.01-3.9,1.69-11.36-1.33
		c-12.63-5.1-9.98-5.08-3.79-6.83c9.77-2.77-15.06-5.13-13.98-7.97c0.82-2.15,11.65-1.98,12.54-3.6c3.33-6.05-11.82-4.08-5.52-8.11
		c0.87-0.55,12.64-0.82,17.9-2.17c3.57-0.92-9.64-1.62-9.21-1.33c0.86,0.56,21.31-6.16,20.87-7.32c-0.91-2.38,1.56-0.97,0.53,2.36
		c-0.2,0.65,1.5,1.1,1.07,1.79c-0.65,1.06-2.42,2.87-3.08,4.01c-0.79,1.36,1.65,0.83,0.92,2.24c-1.6,3.1-1.68,7.6-3.09,11.01
		c-1.77,4.26-5.59,8.01-3.66,10.6c2.81,3.77,6.71,3.3,8.98,5.82C1263.45,673.81,1261.58,677.79,1258.47,676.06L1258.47,676.06z"/>
	<path class="st14" d="M1287.82,686.48c-1.21,1.91-1.08,4.36,1.65,2.62C1292.25,687.34,1290.95,681.53,1287.82,686.48
		L1287.82,686.48z"/>
	<path class="st16" d="M1292.57,670.58c1.48-1.27,0.1-3.15-0.61-5.45c-0.92-2.99-1.82-4.55-2.51-5.29c-0.9-0.98-9.71-5.22-9.38-4.71
		c0.17,0.26,8.62,5.2,8.76,5.46c0.36,0.66,1.41,3.52,1.66,4.19c1.4,3.72,0.58,5.1,1.06,5.86
		C1291.83,671.08,1292.28,670.83,1292.57,670.58L1292.57,670.58z"/>
	<path class="st16" d="M1298.1,657.49c-2.85-5.86-0.2-4.05-4.79-9.73c-0.83-1.03-1.52-1.83-2.09-2.49
		c-3.68-4.29-2.54-1.91-10.19-4.83c-4.31-1.65-0.7,1.9,1.12,2.08c0.81,0.08,6.43,1.9,6.67,2.18c1.75,2.12,3.83,3.81,6.27,7.3
		C1296.11,653.44,1296.3,659.21,1298.1,657.49L1298.1,657.49z"/>
	<path class="st16" d="M1273.25,675.5c0.88,0.93,5.82,3.58,3.76,2.2c-0.29-0.19-9.23-11.77-9.39-11.84c-0.19-0.08-3.87-7.71-3,0.35
		C1265.01,669.81,1272.58,674.78,1273.25,675.5L1273.25,675.5z"/>
	<path class="st16" d="M1270.34,669.61c4.18,0.92,14.16,2.97,13.29,4.97c-0.81,1.87,0.87,1.37-1.3,3.17
		c-0.15,0.12-0.26,0.24-0.33,0.35c0.26,0.64,0.49,1.04,0.86,0.98c2.6-0.43,1.01-3.89,2.33-4.57c2.75-1.4-1.95-2.56-2.68-2.53
		c-6.64,0.24-2.42-3.24-3.49-3.14c-1.71,0.16-6.49,0.88-5.19-2.5c0.55-1.41-3.49,0.66-5.52-2.17c-1.14-1.58-3.82-2.74-3.75-1.13
		c0.12,2.91,0.31,2.43,1.94,3.53c0.07,0.05,0.15,0.1,0.22,0.15C1268.4,667.92,1269.38,668.84,1270.34,669.61L1270.34,669.61z"/>
	<path class="st14" d="M1297.8,638.6c-2.01,0.33-0.25,0.59,0.75,1.97c2.58,3.58,2.27,2.81,2.01,6.99c-0.04,0.57-0.27,3.89-1.75,3
		c-3.91-2.35-10.4-8.76-4.09-11.66C1295.47,638.56,1296.95,638.73,1297.8,638.6L1297.8,638.6z"/>
	<path class="st14" d="M1297.13,659.24c1.01,3.41,1.24,3.35-0.39,7.05c-0.38,0.85-2.49,3.9-2-0.19c0.61-5.14-1.5-7.04-1.31-11.53
		C1293.72,647.3,1296.25,656.29,1297.13,659.24L1297.13,659.24z"/>
	<path class="st14" d="M1287.56,659.8c2.27,4.53,4.34,10.14,2.83,15.14c-1.51,4.99-3.49,3.93-2.17,1.5c0.62-1.15,0.47-3.94,0.1-5.42
		c-0.43-1.69-0.98-8.81-0.74-10.35C1287.71,659.81,1287.41,659.49,1287.56,659.8L1287.56,659.8z"/>
	<path class="st17" d="M1449.42,490.37c-5.83-15.91-16.25-23.31-30.82-34.64c-0.16-0.12-12.75-3.97-26.99-3.21
		c-52.02,2.77-47.82-1.02-69.04,47.17c-16.4,37.23-7.95,108.45,23.95,137.01c21.08,18.87,57.06,16.92,84.75,12.6
		c23.31-3.63,38.98-65.24,40.11-82.99c2.3-36.18-11.99-53.98-18.11-69.04C1452.31,494.92,1451.07,492.91,1449.42,490.37
		L1449.42,490.37z"/>
	<path class="st7" d="M1411.32,454.43c0.05-2.2-71.71-11.04-80.95,64.05c-4.7,38.19,2.19,93.41,35.73,117.04
		c30.99,21.84,87.94,11.74,99.88-34.68c9.02-35.08-18.62-122.78-62.99-143.74c-5.47-2.59-5.54-2.84-11.38-4.57L1411.32,454.43
		L1411.32,454.43z"/>
	<path class="st18" d="M1402.5,459.21c-15.77-6.37-42.53,17.74-62.6,19.36c-15.3,1.23,7.51,5.93,18.53-2.34
		C1359.52,475.41,1400.29,454.83,1402.5,459.21L1402.5,459.21z"/>
	<path class="st16" d="M1402.57,454.53c-17.88,4.37-40.83,19.36-45.4,63.94c-3.92,38.19,1.83,93.41,29.79,117.04
		c25.84,21.84,73.32,11.74,83.27-34.68c7.52-35.08-15.52-122.78-52.51-143.74c-1.76-1-2.85-1.65-3.8-2.17
		c-1-0.13-2.01-0.26-3.05-0.36C1408.47,454.34,1405.25,454.59,1402.57,454.53L1402.57,454.53z"/>
	<path class="st6" d="M1333.97,480.87c-0.69,5.42,36.69,15.49,33.41,22.59c-3.87,0.8-7.59-8.11-20.34-12.72
		C1344.47,489.81,1333.64,483.48,1333.97,480.87L1333.97,480.87z"/>
	<path class="st6" d="M1365.01,505.32c0.04,0.08-19.66,10.05-22.24,12.87c-0.1,0.11-36.22,24.42-22.79,21.27
		C1321.6,539.07,1370.31,511.43,1365.01,505.32L1365.01,505.32z"/>
	<path class="st6" d="M1319.98,541.8c-2.95,5.07,56.32,31.63,40.52,17C1358.39,556.85,1326.18,537.05,1319.98,541.8L1319.98,541.8z"
		/>
	<path class="st6" d="M1325.95,592.18c-2.42-0.22,18.09-11.46,21.42-14.98c7.17-7.59,22.29-18.38,9.82-4.5
		c-12.98,14.45-21.57,12.67-29.88,20.17c-4.57,7.44,30.16,1.05,44.54,14.02c11.16,10.06-62.89-11.63-48.51-10.96L1325.95,592.18
		L1325.95,592.18z"/>
	<path class="st6" d="M1371.95,609.93c-8.59,6.3-20.63,16.28-21.1,28.13c-0.23,5.95,15.74-12.77,18.33-18.09
		c1.83-3.76,3.34-4.37,1.97-9.61L1371.95,609.93L1371.95,609.93z"/>
	<path class="st6" d="M1359.78,641.84c-7.96-1.73,51.77-20.73,21.91-3.6C1377.86,640.44,1360.09,647.27,1359.78,641.84
		L1359.78,641.84z"/>
	<path class="st6" d="M1402.34,639.21c0.84-3.29-44.03,11.85-17.55,7.54c1.54-0.25,15.95-6.94,17.52-8.05L1402.34,639.21
		L1402.34,639.21z"/>
	<path class="st6" d="M1409.02,650.31c3.12-0.51,0.85-2.25-2.39-8.4c-1.65-3.14-8.14-3.87,1.49,7.89
		C1408.62,650.39,1409.09,650.3,1409.02,650.31L1409.02,650.31z"/>
	<path class="st6" d="M1373.56,648.69c21.05-11.68,29.67-25.36,1.11-0.48C1374.48,648.37,1373.67,648.63,1373.56,648.69
		L1373.56,648.69z"/>
	<path class="st8" d="M1415.07,460.63c6.44,3.14,12.64,6.14,18.62,9.02c5.22,6.83,10.32,13.48,15.29,19.94
		c2.37,4.4,4.7,8.74,7.01,13.03c2.84,8.07,5.64,16.05,8.43,24c1.22,8.8,2.45,17.64,3.7,26.52c0.48,12.28,0.98,24.77,1.5,37.45
		c-4.04,10.98-8.27,22.51-12.71,34.61c-2.89,3.64-5.87,7.38-8.91,11.21c-2.06-0.02-4.16-0.07-6.28-0.1
		c-2.89,3.76-5.84,7.61-8.87,11.54c-3.09-0.68-6.27-1.37-9.46-2.09c-3.15,0.37-6.35,0.71-9.61,1.06
		c-4.63-3.42-9.36-6.94-14.18-10.56c-2.56,0.57-5.14,1.14-7.74,1.73c-1.5-3.06-3.02-6.17-4.52-9.28
		c-5.18-3.39-10.48-6.89-15.92-10.45c-0.24-5.26-0.48-10.5-0.71-15.73c-2.33-6.34-4.66-12.74-7.01-19.18
		c-1.95-15.82-3.9-31.5-5.81-47.07c0.68-4.16,1.38-8.31,2.08-12.44c1.13-11.12,2.24-22.03,3.34-32.75c2.51-2.6,4.96-5.17,7.39-7.7
		c2.95-4,5.81-7.93,8.65-11.78c5.13-2.71,10.09-5.32,14.9-7.83C1401.51,462.67,1408.45,461.63,1415.07,460.63L1415.07,460.63z"/>
	<path class="st19" d="M1464.49,582.23c-0.12-6.99-0.24-13.91-0.35-20.77c-0.86-1.14-1.73-2.3-2.6-3.47
		c-4.8-0.01-9.77-0.02-14.91-0.02c-2.23,0-1.14,7.16-0.95,13.38c0.3,9.81,0.52,22.93,0.96,33.29c0.44,10.49,1.11,18.07,2.28,16.27
		c3.05-4.71,6.03-9.32,8.93-13.8c1.26-2.5,2.49-4.97,3.71-7.42C1462.54,593.79,1463.51,587.96,1464.49,582.23L1464.49,582.23z"/>
	<path class="st20" d="M1436.85,557.79c1.15,2.58,0.33,21.24,0.37,39.1c0.04,18.3,0.98,35.52,5.75,31.73
		c8.22-6.53,2.31-6.08,3.2-26.14c0.68-15.27-1.93-23.42-1.12-40.55C1445.57,550.84,1437.27,556.57,1436.85,557.79L1436.85,557.79z"
		/>
	<path class="st21" d="M1420.24,557.08c12.09,5.26,15.29-4.34,15.74,33.48c0.06,5.55,4.41,42.09-6.89,42.6
		c-12.32,0.56-0.75-15.9-7.35-30.51c-1.08-2.38-2.61-32.51-0.54-38.97C1421.84,561.63,1419.1,556.58,1420.24,557.08L1420.24,557.08z
		"/>
	<path class="st21" d="M1414.89,466.89c1.97,1.36,3.95,2.72,5.88,4.06c0.61,5.25-0.87,10.76-0.29,22.44
		c0.19,3.86,1.72,17.22,1.79,20.68c0.15,7.19-2.16,11.79-0.86,16.11c1.33,4.43,0.87,15.59-1.96,15.59c-7-0.01-10.91,2.17-20.24-0.56
		c-6.8-1.99-24.4-4.57-30.48-7.48c-0.72-7.77-1.43-15.54-2.15-23.26c1.63-4.25,3.24-8.47,4.84-12.66
		c4.36-7.34,8.58-14.46,12.66-21.35c3.95-3.45,7.8-6.79,11.53-10.04C1402.32,469.18,1408.75,468.02,1414.89,466.89L1414.89,466.89z"
		/>
	<path class="st6" d="M1425.9,473.7c3.6,2.35,7.13,4.66,10.58,6.91c0.89,1.93,3.21,3.08,4.79,4.94c3.66,6.41,7.27,12.74,10.81,18.95
		c1.31,4.88,2.63,9.77,3.94,14.64c1.17,2.13,2.34,4.26,3.49,6.39c0.86,7.01,1.7,14.06,2.56,21.14c-0.67,2.92-1.34,5.85-2.02,8.8
		c-4.62-0.19-9.38-0.38-14.3-0.59c-5.1-0.22-10.36-0.44-15.83-0.65c-2-3.01-4-6.06-6.04-9.13c-1.05-1.58-0.77-30.46-1.16-36.24
		c-0.72-10.8-1.12-24.34,0.16-27.78c1.45-3.9-0.04-2.54,0.99-4.31C1424.58,475.58,1425.24,474.56,1425.9,473.7L1425.9,473.7z"/>
	<path class="st22" d="M1413.18,501.52c2.17-5.14-19.23-9.22-12.4,9.64c8.48,23.42,22.21,8.26,14.31-8.51
		C1414.7,501.81,1412.99,501.97,1413.18,501.52L1413.18,501.52z"/>
	<path class="st22" d="M1394.35,623.1c0.13-0.07-15.77-22.42-18.25-38.28c-6.69-42.77-9.11-28.18,25.71-27.91
		c20.04,0.16,11.9,1.7,12.98,42.8c0.18,6.86,3.08,29.94-2.3,30.7C1411.33,630.57,1394.34,623.1,1394.35,623.1L1394.35,623.1z"/>
	<path class="st23" d="M1403.21,597.5c-8.17-0.43-20.46-32.58-7.41-22.18c1.78,1.42,13.08-4.61,8.19,20.61
		C1403.71,597.37,1404.54,597.57,1403.21,597.5L1403.21,597.5z"/>
	<path class="st24" d="M1420.37,557.73c0.32-0.95,0.62-1.92,0.94-2.87c0.94,0.18,1.88,0.36,2.8,0.53c0.68,0.59,1.34,1.18,2.01,1.77
		c0.31,6.48,0.61,13,0.91,19.57c-0.05,13.02-0.08,26.29-0.12,39.79c0.74,9.26-0.23,9.31,3.88,4.97c-0.02-2.91-0.05-5.84-0.06-8.73
		c0.08-8.89,0.18-17.64,0.25-26.31c-0.5-9.34-0.33-18.48-0.83-27.63c0.58-0.59,0.46-1.33,1.02-1.94c1.27-0.02,2.14,0.58,2.77,1.63
		c0.68,1.13,0.21,2.62,0.43,4.6c0.49,4.58,0.94,11.11,1.16,16.81c0.13,3.44,0.26,6.88,0.38,10.34c-0.18,9.63-0.37,19.43-0.58,29.36
		c0.64,6.22,0.78,5.26-0.34,11.24c-1.04,0.71-2.08,1.45-3.14,2.19c-11.42,6.6-10.59-1.31-10.33-19.48
		c0.92-9.6,0.27-12.29-0.61-21.79c0.21-4.46,0.43-8.92,0.64-13.33C1421.14,571.49,1420.75,564.59,1420.37,557.73L1420.37,557.73z"/>
	<path class="st24" d="M1440.52,626.53c0.83-0.35,3.02-2.64,3.84-2.99c0.42-18.27-0.21-27.09-1.04-44.81
		c-0.11-0.43-0.11-3.48-0.24-3.88c-1.33,1.16-2.68,2.34-4.03,3.5c-0.39,2.97-0.24,4.95-0.62,7.97
		C1439.27,601.45,1438.76,609.79,1440.52,626.53L1440.52,626.53z"/>
	<path class="st24" d="M1439.1,575.46c-0.05-0.18-1.55-11.23-0.39-16.45c0.47-2.17,3.06,0.5,3.75,0.15
		c1.29,0.15,1.05-0.29,1.21,2.01c0.15,2.12-0.78,9.86-0.79,11.46C1441.64,573.56,1440.37,574.5,1439.1,575.46L1439.1,575.46z"/>
	<path class="st24" d="M1447.34,615.76c0.43,0.77,0.87,1.56,1.29,2.34c1.11-1.19,2.73-4.74,3.79-5.89
		c-0.17-7.72-0.84-13.06-1.01-20.66c0.23-5.21-0.77-15.2-1.29-20.42c0.44,0.45,0.88,0.9,1.32,1.33c1.28,8.52,3.28,17.31,4.17,26.02
		c0.85,1.13,1.67,2.25,2.5,3.36c1.05-1.94,2.07-3.87,3.08-5.79c0.32-3.65,1.32-8.69,1.62-12.33c0.29-3.48-0.1-5.63,0.18-9.15
		c0.04-4.14,0.07-8.23,0.11-12.31c-0.77-0.96-1.53-1.93-2.29-2.9c-4.21,1.5-3,0.05-1.92,8.97c0.25,3.34,0.47,12.54,0.49,16.53
		c-0.24,1.16-0.92,1.47-1.18,2.65c-0.88-4.24-1.31-9.35-2.19-13.58c-0.49-4.11-1.44-7.37-1.95-11.46c-1-1.46-2.03-2.9-3.05-4.36
		c-1.1,0.24-2.22,0.45-3.35,0.69c-0.78,0.2-1.59,0.39-2.38,0.6c0.12,6.09,0.23,12.23,0.35,18.41c0.89,7.71,1.09,10.68,1.12,18.54
		C1446.94,602.79,1447.14,609.23,1447.34,615.76L1447.34,615.76z"/>
	<path class="st24" d="M1420.5,538.05c-0.24,8-0.42,7.69-6.38,5.87c-4.82-0.27-10.17-1.25-15.31-1.56
		c-5.75-2.34-11.32-3.94-17.48-6.39c-9.67-0.9-7.58,1.6-12.22-12.07c2.23-14.69,5.13-19.06,10.11-30.61
		c2.96-4.01,5.85-7.94,8.68-11.82c3.43-2.49,6.74-4.94,9.98-7.35c4.13-1.04,8.16-2.06,12.08-3.05c12.35-3.11,9.43,6.54,8.6,21.49
		c-0.89-0.21-1.81-0.43-2.71-0.65c-2.99-0.72-2.33-1.45-3.81-6.74c-1.04-3.77-4.36-1.78-4.46-1.73
		c-11.47,5.2-12.04,4.24-21.11,17.61c-1.13,2.8-2.28,5.66-3.45,8.53c-4.16,10.24-1.81,9.39,4.13,16c7.96,2.3,12.06,4.53,19.53,6.65
		c3.78,0.38,7.48,0.78,11.09,1.15c0.41,0.15,0.83,0.33,1.25,0.42C1420.97,534.23,1420.64,533.64,1420.5,538.05L1420.5,538.05z"/>
	<path class="st24" d="M1423.46,532.11c0.36-0.57,0.72-1.11,1.11-1.66c1.52,0.38,3.02,0.73,4.51,1.09c0.38,1.65,0.75,3.29,1.13,4.95
		c5.22,5.18,6.85,4.11,12.19,4.93c2.64,0.43,5.24,1.88,7.79,2.29c3.39-0.6,5.02-0.33,4.8-1.99c-0.22-6.1,0.22-7.08-2.1-11.91
		c-6.89-1.99-9.65-7.57-17.03-9.15c-2.61-1.19-6.11-0.52-8.84-1.74c-0.79-1.16-1.89-5.17-2.68-6.33c-0.25-4.76-0.22-6.66-0.48-11.37
		c-1.64-15.12-1.41-12.89,0.58-23.07c-0.25-0.99,0.45-0.78,1.11-2.07c13.21,9.82,12.73,8.45,23.25,25.43
		c0.58,1.26,1.16,2.48,1.74,3.71c0.53,1.1,1.08,2.18,1.6,3.25c-0.54,3.65-0.04,4.81-1.57,6.99c-0.81-0.74-2.14-2.56-2.98-3.33
		c-1-1.76-0.73-2.61-0.81-4.57c-1.74-2.51-2.88-3.67-4.68-6.23c-5.67-6.68-6.89-10.79-12.82-9.89c-0.12,1.99-0.25,4.02-0.37,6.04
		c0.19,6.71-0.08,5.12,2.78,11.42c5.01,2.57,7.83,6.45,17.37,9.58c6.42,4.76,7.07,0.97,9.64,12.73c2.46,16.6,4.56,23.82-5.21,21.87
		c-3.95-0.78-8-1.46-12.16-2.12c-4.28-0.67-8.69-1.33-13.22-2.08c-0.77-1.13-1.54-2.29-2.32-3.43
		C1422.45,540.53,1423.52,539.62,1423.46,532.11L1423.46,532.11z"/>
	<path class="st24" d="M1412.02,492.81c-2.26-0.71-4.5-0.85-6.74-0.46c-5.61,0.99-8.17,5.47-8.57,15.17
		c-0.34,8.4-0.6,8.11,4.98,17.62c3.06,2.7,6.05,5.35,9.85,5.48c3.28-1,5.9-3.12,8.02-6.11c0.45-2.53,0.92-5.54,1.33-9.6
		c-0.46-3.31-0.95-6.69-1.72-10.15C1417.03,495.1,1417.93,497.38,1412.02,492.81L1412.02,492.81z M1404.59,517.93
		c5.44,4.46,5.65,3.11,9,1.17c0.75-1.73,2.04-4.61,2.11-6.18c0.14-2.98-0.34-4.88-2.72-9.33c-1.13-1.13-2.76-2.16-4.85-3.09
		c-4,2.59-4.06,1.03-5.17,7.88C1402.58,512.09,1403.27,515.19,1404.59,517.93L1404.59,517.93z"/>
	<path class="st24" d="M1380.94,597.27c1.1-0.51,2.22-1.03,3.32-1.51c1.74-3.44,1.73-2.54,1.82-6.93c-2.12-3.35-4.3-6.73-6.45-10.12
		c-0.94-4.35-1.87-8.69-2.8-13c0.06-2.26,0.13-4.5,0.19-6.73c2.69-0.41,5.34-0.85,7.95-1.26c4.42,1.52,8.74,3.02,12.94,4.45
		c2.09-0.19,4.14-0.38,6.17-0.56c2.55,1.23,5.08,2.45,7.56,3.63c0.17,3.95,0.34,7.94,0.51,11.94c-0.02,3.66-0.03,7.35-0.05,11.08
		c0.31,4.4,0.62,8.85,0.92,13.3c-2.38,20.3,1.2,19.33-6.91,14.79c-2.41-2.84-4.88-5.76-7.36-8.66c-0.98-0.03-1.96-0.07-2.94-0.08
		c-1.12,0.26-2.24,0.53-3.35,0.8c-0.68,2.66-1.39,5.34-2.12,8c6.02,8.26,5.86,10.72,13.38,12.01c1.16,1.25,2.32,2.52,3.49,3.77
		c13.51,7.25,11.01,1.7,11.44-22.43c0.39-3.73-0.2-9.15,0.19-12.82c-0.42-6.42,0.12-11.05-0.28-17.41
		c-0.01-17.64,2.47-19.53-6.34-29.22c-4.98-0.35-10.1-0.74-15.37-1.1c-4.37-2.1-8.85-4.26-13.43-6.46
		c-8.36,1.53-16.58-1.77-17.01,10.54c0.47,5.05,0.91,10.08,1.38,15.13c1.36,5.43,2.71,10.92,4.03,16.39c1.2,2.24,2.39,4.5,3.59,6.73
		c1.14,2.65,2.3,5.29,3.46,7.89C1379.55,598.74,1380.24,598.01,1380.94,597.27L1380.94,597.27z"/>
	<path class="st24" d="M1379.72,620.48c0.93-0.57,1.86-1.15,2.79-1.74c0.33-0.95,0.63-1.9,0.94-2.84c4.18-3,4.94-6.68,7.66-12.41
		c1.72-2.26,3.41-4.49,5.1-6.71c1.64,2.27,3.3,4.48,4.92,6.7c4.92,2.06,8.11,6.46,8.15-1.27c0.13-4.45,0.31-8.75,0.52-13.11
		c-0.16-3.39-0.31-5.18-0.83-8.47c0.21-2.59,0.41-5.15,0.64-7.7c-1.2-5.16-0.5-4.36-3.69-4.58c-3.85-1.14-7.78-2.28-11.81-3.47
		c-2.05-0.12-4.11-0.28-6.21-0.4c-2.59,0.29-2.37-0.58-2.4,3.33c-0.03,2.52-0.05,5.04-0.07,7.54c0.95,3.99,1.91,7.97,2.85,11.94
		c0.75,0.76,1.48,1.51,2.23,2.27c-0.95,1.81-1.88,3.62-2.83,5.44c-2.05,2.6-4.91,7.21-7.05,9.92c-0.87,2.59-1.76,5.22-2.66,7.87
		C1373.95,616.46,1375.75,615.88,1379.72,620.48L1379.72,620.48z M1395.19,585.2c-1.03-2.62-2.05-5.23-3.07-7.85
		c0.2-1.43,1.34-1.12,2.32-1.28c1.44,0.06,2.86,0.12,4.28,0.2c0.71,0.23,1.42,0.49,2.1,0.74c0.55,0.11,1.11,0.19,1.66,0.3
		c0.29,0.24,0.57,0.5,0.86,0.77c-0.08,0.75-0.15,1.55-0.23,2.32c0.58,3.41,0.61,3.15,0.31,6.6c-0.11,1.01-0.2,2.04-0.3,3.04
		c0.08,0.73,0.16,1.45,0.24,2.18c-0.26,0.61-0.53,1.24-0.78,1.83c-0.35-0.58-0.68-1.19-1.02-1.78c-0.67-0.31-1.36-0.63-2.05-0.94
		C1398.12,589.83,1396.35,587.32,1395.19,585.2L1395.19,585.2z"/>
	<path class="st24" d="M1428.77,533.27c-1.76-0.16-3.53-0.31-5.31-0.46c1.13-2.61,2.25-5.18,3.38-7.75
		c2.64,0.06,5.23,0.11,7.78,0.19c2.9,1.36,5.75,2.72,8.55,4.03c2.43,1.36,4.83,2.7,7.2,4c0.24,1.44,0.5,2.89,0.76,4.32
		c-0.3,0.48-0.59,0.95-0.87,1.4c-1.23-0.01-2.47-0.06-3.7-0.1c-0.86-0.7-1.71-1.41-2.57-2.12c-1.7-0.87-3.4-1.74-5.12-2.64
		c-1.31-0.29-2.63-0.58-3.95-0.9C1432.88,533.25,1430.84,533.27,1428.77,533.27L1428.77,533.27z"/>
	<path class="st24" d="M1449.92,508.96c-0.07,0.11-0.13,0.22-0.21,0.32c0.3,2.07,0.6,4.15,0.89,6.21c-2-0.35-4.02-0.7-6.07-1.07
		c-2.06-1.72-4.15-3.46-6.27-5.24c-2.09-2.11-4.19-4.24-6.33-6.38c-0.37-1.61-0.74-3.21-1.1-4.85c0.7-0.64,1.38-1.3,2.09-1.95
		c1.34,1.01,2.66,2.03,3.97,3.01c1.11,2.05,2.22,4.09,3.32,6.12c2.02,1.83,4.02,3.65,6.01,5.44
		C1447.46,510.02,1448.7,509.5,1449.92,508.96L1449.92,508.96z"/>
	<polygon class="st9" points="1389.33,378.9 1390.81,382.66 1315.21,502.87 1314.57,498.04 1389.33,378.9 	"/>
	<polygon class="st10" points="1389.33,378.9 1305.02,513.22 1296.83,509.31 1383.77,377.14 1389.33,378.9 	"/>
	<path class="st25" d="M1314.4,484.99c3.03,0.62-6.55-5.9-13.53,5.19c-14.87,23.61-2.11,23.63,4.64,24.96
		c8.28,1.63,22.6-24.54,13.77-27.43L1314.4,484.99L1314.4,484.99z"/>
	<path class="st13" d="M1366.56,392.41l-3.51,1.7l-0.69-0.83l-0.91-4.56l2.35-2.66l2.79-1.9l8.43-4.03l26.01,5.53l5.47,5.12
		l7.7,24.17l16.42,13.66l62.89,51.06c2.31,5.64,2.66,11.75-2.58,18.8c-5.97,8.03-15.92,9.52-25.05,7.8
		c-7.54-1.42-16.44-11.29-21.19-13.68l-14.8-33.53l-36.43-16.99l-13.28-20.41l-5.52,0.36l-3.54-5.18l-0.69-4.09l6.06-2.28
		l11.16-0.32l-10.41-0.64l-6.56,2.36l-1.97-0.67l-0.65-5.19l1.05-2.78l4.87-2.9l-6.75,1.24l-0.22,1.77l-1.83,3.04l-1.69,1.49
		l-2.37-0.62l-0.58-4.38l-0.19-3.94l2.81-3.63L1366.56,392.41L1366.56,392.41z"/>
	<path class="st15" d="M1399.67,385.3c-3.51-0.75-19.42-8.61-23.82-4.8c-0.03,0.03,2.48-0.13,10.76,2.09
		c4.49,1.2,12.71,5.36,14.98,5.37c3.61,0.01,4.62,2.33-1.86,5.21c-2.34,1.04,9.64,8.83-1.9,8.41c-6.04-0.22,4.9,9.35-1.02,9.66
		c-1.18,0.06-3.19-0.62-2.31,1.7c2.02,5.29,22.19,16.03,26.73,16.29c9.03,0.51,6.31,12.81,16.15,22.11
		c28.71,27.15,41.05,28.75,57.62,37.47c0.49-4.62-1.11-8.86-3.34-12.88c-6.47-5.64-14.86-12.34-24.79-18.7
		c-13.52-8.66-22.57-16.21-32.53-25.2c-7.88-7.12-13.62-12.92-15.11-15.86C1408.28,394.4,1409.41,387.38,1399.67,385.3
		L1399.67,385.3z"/>
	<path class="st16" d="M1401.21,400.97c-1.27,1.41-20.3,0.32-10.29-2.18c2.6-0.65,3.34-3.45,2.4-4.47c-1.4-1.5-6.32-2.52-10-3.58
		c-5.47-1.57-9-2.68-0.71-1.07c3.71,0.72,8.63,1.61,11.72,2.47C1403.43,394.69,1385.13,394.87,1401.21,400.97L1401.21,400.97z"/>
	<path class="st16" d="M1370.41,412.73c9.63-5.34,18.26,0.37,17.61-3.2c-0.38-2.07-9.61-3.97-5.59,0.27
		C1382.58,409.12,1367.71,409.51,1370.41,412.73L1370.41,412.73z"/>
	<path class="st16" d="M1370.42,402.41c2.51-1.54,20.23-0.71,18.54-4.82c-2.81-1.6-3.67,5.54-11.59-3.73
		c-1.33-1.56-5.42,0.15,0.08,1.34c1.17,0.25,1.87,3.38,5.7,4.1c-0.2-0.04-7.01,0.25-7.81,1.26L1370.42,402.41L1370.42,402.41z"/>
	<path class="st16" d="M1427.91,445.74c-0.23,0.21-9.53-5.97-14.96-6.33c-30.13-2-24.01-23.11-40.16-24.94
		c-1.46-0.17-1.6,5.07,6.1,8.14c13.49,5.37,6.43,22.18,27.06,20.02c6.91-0.72,21.27,4.24,21.29,4.14
		C1427.48,445.49,1427.18,446.4,1427.91,445.74L1427.91,445.74z"/>
	<path class="st9" d="M1376.35,420.83c3.87,1.24,4.2-4.67,5.13,0.31c1.01,5.43,2.59-3.9,3.53,2.48c0.6,4.09,6.56-2.8,1.79,3.29
		c-1.38,1.77,10.29,10.78,7.23,14.99c-1.56,2.14-4.31-11.27-15.16-18.79C1378.67,422.97,1361.61,416.13,1376.35,420.83
		L1376.35,420.83z"/>
	<path class="st14" d="M1369.62,390.85c-0.01,0.04-5.97,3.78-7.4,5.61c-0.53,0.68-0.97,1.39-1.33,2.11
		c-2.12,4.25,0.18,9.92,1.21,9.14c0.59-0.45-0.42-3.91,0.08-8.94C1362.66,393.97,1382.75,384.45,1369.62,390.85L1369.62,390.85z"/>
	<path class="st14" d="M1378.81,402.26c-0.63,0.26-16.55-1.01-6.21,4.96c0.07,0.04,10.24,2.77,2.38-1.38
		C1369.68,403.04,1378.14,402.54,1378.81,402.26L1378.81,402.26z"/>
	<path class="st14" d="M1378.57,412.16c-4.98-1.59-9.32,0.72-1.9,2.45c4.71,1.1,7.93,7.79,12.32,7.72
		C1400.26,422.17,1381.8,413.19,1378.57,412.16L1378.57,412.16z"/>
	<path class="st26" d="M1371.53,392.26c-0.22,0.09-14.78,9.66-0.96,7.86c1.7-0.22,2.47-6.71,3.5-8.61c0.32-0.58-0.68-0.03-1.51,0.3
		C1372.09,392,1371.66,392.21,1371.53,392.26L1371.53,392.26z"/>
	<path class="st26" d="M1364.43,407.23c-4.8,3.99-3.98-8.94-1.04-6.98C1364.13,398.83,1370.06,402.55,1364.43,407.23L1364.43,407.23
		z"/>
	<path class="st26" d="M1367.7,389.61c2.46-0.63,3.93-1.16,5.52-2.3c6.98-5,14.63-1.25,20.88,1.39c2.64,1.11-6.77-7.18-17.55-6.4
		c-3.84,0.28-7.75,1.74-11.15,5.02C1361.71,390.87,1366.56,389.91,1367.7,389.61L1367.7,389.61z"/>
	<path class="st26" d="M1375.47,391.62c0.68,1.54,4.03,1,4.89,3.53c1.41,4.14,18.7,2.28,9.72-1.25
		C1388.57,393.31,1373.43,387.04,1375.47,391.62L1375.47,391.62z"/>
	<path class="st26" d="M1393.71,406.29c-1.98-5.42-4.71-3.44-14.5-3.43c-8.63,0.01-5.37,4.27,3.77,3.16
		c0.23-0.03,11.79,5.92,9.7,2.86C1392.06,407.96,1394.19,407.59,1393.71,406.29L1393.71,406.29z"/>
	<path class="st14" d="M1372.19,381.47c-17.74,8.11-9.32,13.46-9.49,12.57c-0.31-1.57,0.82-3.79,0.44-4.9
		C1362.23,386.49,1372.56,381.3,1372.19,381.47L1372.19,381.47z"/>
	<path class="st11" d="M1312.29,483.98c-4.31,1.66-4.57,0.46-8.75,5.38c-2.31,2.72-7.68,12.23-7.68,15.71
		c0,4.52,1.63,4.39,3.57,7.66c0.06,0.1,5.42,2.38,8.35-0.55c2.82-2.82,1.35-0.66,3.51-4.54c1.22-2.19,4.82-1.9,7.17-11.88
		c1.13-4.81,1.91-3.95-1.07-8.5c-0.96-1.46-4.63-1.2-5.45-2.77C1311.54,484.42,1311.94,484.11,1312.29,483.98L1312.29,483.98z"/>
	<path class="st12" d="M1311.48,484.8c-4.05,1.55-4.29,0.44-8.21,5.05c-2.17,2.55-7.21,11.47-7.21,14.75c0,4.24,1.53,4.12,3.35,7.18
		c0.06,0.1,11.46,0.89,7.84-0.51c-7.73-2.98-6.67-16.99,3.91-25.98C1310.78,485.22,1311.15,484.93,1311.48,484.8L1311.48,484.8z"/>
</g>
</svg>
