<?xml version="1.0" encoding="UTF-8"?>
<!DOCTYPE svg PUBLIC "-//W3C//DTD SVG 1.1//EN" "http://www.w3.org/Graphics/SVG/1.1/DTD/svg11.dtd">
<!-- Creator: CorelDRAW X7 -->
<svg xmlns="http://www.w3.org/2000/svg" xml:space="preserve" width="1022px" height="496px" version="1.1" style="shape-rendering:geometricPrecision; text-rendering:geometricPrecision; image-rendering:optimizeQuality; fill-rule:evenodd; clip-rule:evenodd"
viewBox="0 0 411 199"
 xmlns:xlink="http://www.w3.org/1999/xlink">
 <defs>
  <style type="text/css">
   <![CDATA[
    .fil3 {fill:#00549C}
    .fil4 {fill:#008F45}
    .fil0 {fill:#211915}
    .fil1 {fill:#BE0811}
    .fil2 {fill:#D7D8DC}
    .fil5 {fill:#FDED00}
    .fil6 {fill:white}
   ]]>
  </style>
 </defs>
 <g id="Capa_x0020_1">
  <metadata id="CorelCorpID_0Corel-Layer"/>
  <g id="municipalidad_x0020_de_x0020_cosquin.svg">
   <g>
    <path class="fil0" d="M1 48l22 0 -12 -10 -3 -4 5 2 20 6 -12 -18 -2 -4 4 3 18 11 -7 -20 -1 -5 3 4 15 15 -1 -21 0 -5 2 5 10 18 4 -20 1 -5 1 5 5 20 10 -18 2 -5 0 5 -1 21 14 -15 4 -4 -2 5 -6 20 18 -11 4 -3 -3 4 -11 18 20 -6 5 -2 -4 4 -11 10 22 0 1 0 0 1 0 92 0 1 0 0c-1,16 -8,30 -20,40 -12,11 -29,17 -48,17l0 0 0 0 0 0 0 0c-18,0 -35,-6 -47,-17 -12,-10 -20,-25 -20,-41l0 0 0 0 0 -92 0 -1 1 0 0 0z"/>
    <path class="fil1" d="M133 50l-131 0 0 91 0 0 0 0c0,15 7,29 19,40 12,10 28,16 46,16l0 0 0 0 0 0 0 0c18,0 35,-6 46,-16 12,-11 20,-25 20,-40l0 0 0 0 0 -1 0 0 0 -90 0 0z"/>
    <path class="fil0" d="M24 69l87 0 1 0 0 1 0 67 0 2 0 0c0,10 -5,20 -13,26 -8,8 -19,12 -32,12l0 0 0 0 0 0 0 0c-12,0 -23,-4 -31,-12 -8,-7 -14,-17 -14,-28l0 0 0 0 0 -67 0 -1 2 0 0 0z"/>
    <polygon class="fil0" points="131,114 127,117 131,121 131,121 131,122 127,126 126,126 126,126 122,122 119,126 118,126 118,126 114,122 113,121 114,121 118,117 114,114 113,113 114,113 118,109 118,108 119,109 122,113 126,109 126,108 127,109 131,113 131,113 "/>
    <path class="fil2" d="M25 112c1,-1 2,-2 3,-3 4,-4 7,-8 8,-8 0,0 0,0 0,0 0,0 0,0 0,0 1,0 2,1 3,2 1,1 2,2 2,2 2,-1 8,-8 15,-14 4,-4 7,-7 10,-10 0,0 0,0 0,0l0 0c0,0 0,0 0,0 0,0 1,0 1,0 0,0 0,0 0,0l0 -3 -2 0 0 -1 2 0 0 -2 1 0 0 2 2 0 0 1 -2 0 0 3c0,0 0,0 0,0l0 0 0 0c0,0 0,0 0,0 1,1 6,3 10,6 2,2 5,3 7,5 1,0 3,0 4,0 3,0 6,0 7,0 0,0 0,0 0,0l0 0c0,0 1,2 3,3 1,2 3,4 4,5l0 0 0 0 0 0 0 0c0,0 1,0 1,0 0,0 0,0 1,1 1,0 3,1 5,1l0 -31 -85 0 0 41 0 0z"/>
    <path class="fil3" d="M25 117l85 0 0 -13c-2,0 -4,-1 -6,-2 0,0 -1,0 -1,0 0,0 0,-1 -1,-1l0 0 0 0 0 0c-1,0 -3,-3 -5,-5 -1,-1 -2,-2 -2,-2 -1,0 -3,-1 -6,-1 -2,0 -3,0 -4,0l0 0c0,0 0,0 -1,0 -2,-1 -4,-3 -7,-5 -4,-2 -9,-5 -9,-5 0,0 -1,0 -1,0 0,0 0,0 0,0 0,0 0,0 0,0 -3,2 -6,6 -10,9 -6,7 -13,13 -15,14 0,0 0,0 0,0 0,0 0,0 0,0l0 0c0,0 0,0 0,0l0 0 0 0c-1,0 -2,-1 -4,-1 -1,-1 -2,-2 -2,-2 0,0 -4,3 -7,7 -2,1 -3,3 -4,4l0 3 0 0z"/>
    <path class="fil4" d="M25 138c3,-1 6,-2 9,-3 3,-1 7,-2 12,-2 0,0 0,0 0,0 3,0 6,0 9,1 3,0 5,1 8,1 3,0 5,-1 7,-1 2,-1 4,-2 7,-2 0,0 0,0 0,0l0 0c4,0 6,1 8,2 1,1 2,1 4,1 5,1 8,0 11,-1 2,0 4,-1 6,0l0 0c1,0 2,0 3,0 0,0 1,0 1,0l0 -15 -85 0 0 18 0 0 0 0c0,1 0,1 0,1l0 0 0 0z"/>
    <path class="fil2" d="M25 142c4,0 7,-1 10,-2 3,-1 6,-2 11,-2 0,0 0,0 0,0 3,0 6,1 8,1 3,1 5,2 8,2 3,0 6,-1 8,-2 2,-1 4,-2 7,-2 0,0 0,0 0,0 3,0 5,1 7,2 2,0 3,1 5,1 4,0 7,-1 10,-1 2,-1 4,-1 6,-1l0 0c1,0 3,0 4,0 0,0 1,0 1,0 0,0 0,0 0,-1l0 0 0 0 0 -1 0 0 0 0c0,0 -1,0 -1,0 -1,-1 -2,-1 -3,-1 0,0 0,0 0,0 -2,0 -4,1 -6,1 -3,1 -6,1 -11,1l0 0c0,0 0,0 0,0 -2,0 -4,-1 -5,-1 -2,-1 -4,-2 -7,-2 -3,0 -5,0 -7,1 -2,1 -4,2 -7,2l0 0c0,0 0,0 0,0 -3,0 -6,-1 -8,-1 -3,-1 -6,-2 -9,-2 -5,1 -8,2 -12,3 -3,1 -6,2 -9,2 0,1 0,2 0,3l0 0 0 0z"/>
    <path class="fil2" d="M28 151c4,1 7,0 10,-1 3,-1 6,-2 9,-2l0 0 0 0c4,0 6,1 8,2 2,0 3,1 6,1l0 0 0 0c3,0 6,-1 8,-1 3,-1 5,-1 8,-1 2,0 4,1 6,2 1,1 3,1 4,2 4,0 7,-1 9,-2 1,0 2,0 4,-1 0,0 0,0 0,0 3,0 5,0 6,1 1,0 1,0 1,0 1,0 1,-1 1,-2 0,0 -1,0 -2,0 -1,-1 -2,-1 -4,-1l0 0 0 0c-2,0 -4,0 -6,1 -2,0 -4,1 -8,1l0 0c-2,0 -3,-1 -5,-3 -2,-1 -4,-2 -7,-2l0 0c-2,-1 -4,0 -7,1 -2,0 -4,1 -7,1l0 0 0 0c-4,0 -6,-1 -8,-2 -2,0 -5,-1 -8,-1 -4,0 -7,1 -10,2 -3,1 -6,2 -10,1 1,2 1,3 2,4l0 0 0 0z"/>
    <path class="fil4" d="M102 159c-4,0 -8,1 -12,2 -2,0 -3,1 -5,1l0 0 0 0 0 0c-2,0 -4,-1 -5,-1 -2,-1 -3,-1 -4,-1l0 0 0 0 0 0c0,0 0,0 0,0 -2,-1 -4,0 -7,0 -2,1 -5,2 -8,2 -3,0 -4,-1 -6,-2 -1,-1 -3,-1 -6,-2 -2,0 -4,1 -6,1 -3,1 -6,2 -10,1 1,1 3,3 4,4 8,7 19,11 30,11l0 0 0 0 0 0 0 0c12,0 23,-4 31,-11 1,-2 3,-3 4,-5l0 0 0 0z"/>
    <path class="fil2" d="M109 146c-4,-2 -9,-1 -13,0 -3,1 -5,1 -7,1l0 0c-2,0 -4,-1 -5,-2 -1,-1 -2,-2 -3,-2l0 0 0 0c-1,-1 -2,-1 -2,-1 0,-1 0,-1 0,-1 0,0 0,0 0,0 1,-1 2,-1 3,0 0,0 1,0 2,1 3,1 5,1 7,1l0 0 0 0c2,0 4,0 7,-1 4,0 8,-1 12,0 0,-1 0,-2 0,-3 0,0 -1,0 -1,0 -1,0 -3,0 -4,0l0 0 0 0c-2,0 -4,0 -6,1 -3,0 -6,1 -10,1 0,0 0,0 0,0 -2,0 -4,-1 -5,-1 -2,-1 -4,-2 -7,-2 -2,0 -5,1 -7,2 -2,1 -5,2 -8,2l0 0 0 0c-3,0 -5,-1 -8,-2 -2,-1 -5,-1 -8,-1 -5,0 -8,1 -11,2 -3,1 -6,2 -10,2 0,1 0,2 1,4 4,0 7,-1 10,-2 3,-1 6,-2 10,-2 0,0 0,0 0,0l0 0c3,0 6,1 8,1 2,1 4,2 7,2 3,0 6,-1 8,-1 2,-1 5,-1 7,-1l0 0 0 0c3,0 5,1 7,3 2,1 4,2 5,2l0 0c4,0 6,0 8,-1 2,-1 4,-1 6,-1 2,0 3,1 5,1 0,0 1,0 1,1 1,-1 1,-2 1,-3l0 0 0 0z"/>
    <path class="fil2" d="M110 142c-4,0 -8,1 -12,1 -3,1 -5,1 -7,1l0 0 0 0c-2,0 -5,-1 -7,-1 -1,-1 -2,-1 -3,-1 0,-1 -1,-1 -1,-1 0,1 1,1 1,1l0 0c2,1 3,1 4,2 1,1 2,2 4,2l0 0c2,0 4,0 7,-1 4,0 9,-1 13,1 0,-1 1,-2 1,-4l0 0 0 0z"/>
    <path class="fil2" d="M105 156l-1 0c-1,-1 -3,-1 -6,-1 -1,0 -2,1 -3,1 -3,1 -5,2 -9,1l0 0 0 0c-1,0 -3,-1 -4,-1 -2,-1 -4,-2 -6,-2 -2,0 -4,0 -6,1 -3,0 -5,1 -8,1l0 0c-3,0 -5,-1 -7,-1 -1,-1 -3,-2 -6,-2 -4,0 -6,1 -9,2 -3,1 -6,2 -10,1 0,1 1,1 1,1 0,0 0,0 0,0 5,2 8,2 11,1 2,-1 5,-2 7,-2 1,0 1,1 1,1 3,0 5,1 6,2 1,0 3,1 5,1 0,0 0,0 0,0 2,0 5,0 8,-1 3,-1 5,-1 7,-1 1,0 3,1 4,1 2,1 4,1 5,1l0 0c1,0 3,0 5,-1 4,-1 9,-2 14,-1 0,-1 0,-2 1,-2l0 0 0 0z"/>
    <path class="fil2" d="M30 155c4,1 7,0 10,-1 3,-1 5,-2 9,-2l0 0 0 0c3,1 5,1 7,2 2,0 3,1 6,1l0 0 0 0c3,0 5,-1 8,-1 2,-1 4,-1 6,-1 3,0 4,1 6,2 1,1 3,1 4,2 4,0 6,-1 9,-2 1,0 2,0 3,-1 0,0 0,0 0,0 3,0 5,0 6,1 1,0 1,0 1,0 1,-1 1,-2 2,-3 0,0 -1,0 -1,0 -2,-1 -3,-1 -6,-1 -1,0 -3,1 -4,1 -2,1 -5,2 -9,1l0 0 0 0c-2,0 -3,-1 -5,-1 -2,-1 -3,-2 -6,-2 -2,0 -4,0 -7,1 -2,0 -5,1 -8,1l0 0c-3,0 -5,-1 -7,-2 -2,0 -4,-1 -7,-1 -4,0 -6,1 -9,2 -3,0 -6,1 -10,1 0,1 1,2 2,3l0 0 0 0z"/>
    <polygon class="fil5" points="26,48 109,48 118,39 100,45 97,46 99,43 109,27 93,37 90,39 91,36 97,18 84,32 82,34 82,31 83,12 74,29 72,32 72,29 67,10 63,29 63,32 61,29 52,12 53,31 53,34 51,32 38,18 44,36 45,39 42,37 26,27 36,43 38,46 35,45 17,39 "/>
    <polygon class="fil0" points="21,114 17,117 21,121 21,121 21,122 17,126 17,126 16,126 13,122 9,126 8,126 8,126 4,122 4,121 4,121 8,117 4,114 4,113 4,113 8,109 8,108 9,109 13,113 16,109 17,108 17,109 21,113 21,113 "/>
    <polygon class="fil0" points="76,56 72,60 76,63 76,64 76,64 72,68 72,68 71,68 67,64 64,68 63,68 63,68 59,64 59,64 59,63 63,60 59,56 59,56 59,55 63,51 63,51 64,51 67,55 71,51 72,51 72,51 76,55 76,55 "/>
    <polygon class="fil0" points="76,183 72,187 76,190 76,191 76,191 72,195 72,195 71,195 67,191 64,195 63,195 63,195 59,191 59,191 59,190 63,187 59,183 59,183 59,182 63,178 63,178 64,178 67,182 71,178 72,178 72,178 76,182 76,183 "/>
    <path class="fil0" d="M13 53l0 0 0 0c2,0 3,0 4,0 1,1 2,1 2,2 0,0 0,0 0,0l0 4c1,1 1,1 2,2l0 0c0,0 0,0 0,0 1,1 1,3 1,4l0 0 0 0 0 0 0 0 0 0c0,5 -3,8 -6,9 0,0 -1,0 -1,1 -1,0 -1,0 -2,0l0 0 0 0 0 0 0 0 0 0 0 0 0 0 0 0c-2,0 -4,-1 -6,-3 -2,-1 -3,-4 -3,-8l0 0 0 0 0 0c0,0 0,0 0,0 0,-2 1,-3 2,-4 0,0 0,0 1,-1 0,0 0,0 0,0l0 -4 0 0c0,0 0,0 0,0 0,0 0,0 0,0 0,0 0,0 0,-1 0,0 1,0 2,-1 1,0 2,0 4,0l0 0 0 0 0 0z"/>
    <path class="fil2" d="M9 55c0,0 0,0 0,0 0,0 0,0 0,0 0,0 1,0 1,0l0 0 0 0 0 0 0 0 0 0 0 0 0 0 0 0 1 0 0 0 0 0 0 0 0 0c0,0 0,0 0,0 1,1 1,1 1,1l0 0 0 0 0 0 0 0 0 0 1 0 0 0c0,0 0,0 0,0l0 0 0 0c0,0 0,0 0,0l0 0 0 0 0 0 0 0 0 0 0 0c0,0 1,0 1,0l0 0 0 0 0 0 0 0 0 0 0 0 1 0 0 0 0 0 0 0c0,-1 1,-1 2,-1 0,0 0,0 0,0l0 0c0,0 0,0 0,0 -1,0 -2,0 -4,0l0 0 0 0 0 0 0 0c-2,0 -3,0 -4,0 0,0 0,0 0,0l0 0 0 0z"/>
    <path class="fil2" d="M13 57l-1 0 0 0 0 0 0 0 0 0 0 0 0 0c0,0 0,0 0,0 0,0 -1,0 -1,0 0,0 0,0 0,0l-1 0 0 0 0 0 0 0 0 0 0 0 0 0 0 0c0,0 -1,0 -1,0 0,0 -1,0 -1,0l0 2c1,0 2,1 3,1 1,0 1,0 2,0 1,0 1,0 1,0 0,1 0,1 -1,1 -1,0 -2,0 -3,0 -1,0 -1,0 -2,0 0,0 -1,0 -1,0 0,0 0,0 0,0 -1,1 -2,2 -2,3l0 0c0,4 2,6 3,7 2,2 4,2 5,2l0 0 0 0c0,0 1,0 1,0 1,0 1,0 2,0 2,-2 5,-4 5,-8l0 0 0 0 0 0 0 0c0,-1 -1,-2 -1,-3 0,0 0,0 0,0l0 0 0 0c-1,-1 -1,-1 -2,-1 0,-1 0,-1 0,-1l0 0 0 -3c-1,0 -2,0 -3,0l0 0 -1 0 0 0 0 0 0 0 0 0c0,0 -1,0 -1,0l0 0 0 0z"/>
    <polygon class="fil2" points="16,117 20,113 17,110 13,114 13,114 12,114 8,110 6,113 9,117 10,117 9,118 6,121 8,124 12,121 13,120 13,121 17,124 20,121 16,118 16,117 "/>
    <polygon class="fil2" points="126,117 129,113 126,110 123,114 122,114 122,114 118,110 115,113 119,117 119,117 119,118 115,121 118,124 122,121 122,120 123,121 126,124 129,121 126,118 125,117 "/>
    <polygon class="fil2" points="71,59 74,55 72,53 68,56 67,57 67,56 63,53 60,56 64,59 64,60 64,60 60,64 63,67 67,63 67,63 68,63 72,67 74,64 71,60 70,60 "/>
    <polygon class="fil2" points="71,186 74,183 72,180 68,183 67,184 67,183 63,180 60,183 64,186 64,187 64,187 60,191 63,194 67,190 67,190 68,190 72,194 74,191 71,187 70,187 "/>
    <path class="fil0" d="M122 53l0 0 0 0c-1,0 -3,0 -4,0 -1,1 -2,1 -2,2 0,0 0,0 0,0l0 4c-1,1 -1,1 -2,2l0 0c0,0 0,0 0,0 -1,1 -1,3 -1,4l0 0 0 0 0 0 0 0 0 0c0,5 3,8 6,9 0,0 1,0 1,1 1,0 1,0 2,0l0 0 0 0 0 0 0 0 0 0 0 0 0 0 0 0c2,0 4,-1 6,-3 2,-1 3,-4 3,-8l0 0 0 0 0 0c0,0 0,0 0,0 0,-2 -1,-3 -2,-4 0,0 0,0 -1,-1 0,0 0,0 0,0l1 -4 0 0c0,0 0,0 0,0 0,0 0,0 0,0 -1,0 -1,0 -1,-1 0,0 -1,0 -2,-1 -1,0 -2,0 -4,0l0 0 0 0 0 0z"/>
    <path class="fil2" d="M127 55c0,0 0,0 -1,0 0,0 0,0 0,0 0,0 -1,0 -1,0l0 0 0 0 0 0 0 0 0 0 0 0 0 0 0 0 0 0 0 0 0 0 0 0 0 0c-1,0 -1,0 -1,0 0,1 -1,1 -1,1l0 0 0 0 0 0 0 0 0 0 0 0 -1 0c0,0 0,0 0,0l0 0 0 0c0,0 0,0 0,0l0 0 0 0 0 0 0 0 0 0 0 0 0 0c0,0 -1,0 -1,0l0 0 0 0 0 0 0 0 0 0 0 0 0 0 0 0 0 0 -1 0c0,-1 -1,-1 -2,-1 0,0 0,0 0,0l0 0c0,0 0,0 0,0 1,0 3,0 4,0l0 0 0 0 0 0 0 0c2,0 3,0 4,0 0,0 0,0 1,0l0 0 0 0z"/>
    <path class="fil2" d="M122 57l1 0 0 0 0 0 0 0 0 0 0 0 0 0c0,0 0,0 0,0 0,0 1,0 1,0 0,0 0,0 1,0l0 0 0 0 0 0 0 0 0 0 0 0 0 0 0 0c0,0 1,0 1,0 1,0 1,0 1,0l0 2c-1,0 -2,1 -2,1 -1,0 -2,0 -3,0 -1,0 -1,0 -1,0 0,1 0,1 1,1 1,0 2,0 3,0 1,0 2,0 3,0 0,0 0,0 0,0 0,0 0,0 0,0 1,1 2,2 2,3l0 0c0,4 -2,6 -3,7 -2,2 -3,2 -5,2l0 0 0 0c0,0 -1,0 -1,0 -1,0 -1,0 -2,0 -2,-2 -4,-4 -5,-8l0 0 0 0 0 0 0 0c0,-1 1,-2 1,-3 0,0 0,0 0,0l0 0 0 0c1,-1 1,-1 2,-1 0,-1 1,-1 1,-1l0 0 -1 -3c1,0 2,0 3,0l0 0 1 0 0 0 0 0 0 0 0 0c1,0 1,0 1,0l0 0 0 0z"/>
    <path class="fil0" d="M118 161l0 0 0 0c-1,-1 -2,-2 -3,-3 -1,0 -2,0 -2,0 -1,0 -1,0 -1,0l-3 3c0,0 -1,0 -2,0l0 0c0,0 0,0 -1,0 -1,0 -2,1 -3,2l0 0 0 0 0 0 0 0 0 0c-3,3 -3,8 -2,10 0,1 1,2 1,2 0,0 0,1 1,1l0 0 0 0 0 0 0 0 0 0 0 0 0 0 0 0c1,2 3,3 6,3 2,0 5,-1 8,-4l0 0 0 0 0 0c0,0 0,0 0,0 1,-1 1,-3 1,-4 0,0 0,-1 0,-1 0,0 0,0 0,0l3 -3 0 0c0,0 0,0 0,0 0,0 0,0 0,0 1,0 1,0 1,-1 0,0 -1,-1 -1,-2 -1,-1 -2,-2 -3,-3l0 0 0 0 0 0z"/>
    <path class="fil2" d="M120 166c0,0 0,0 0,0 0,-1 0,-1 -1,-1 0,0 0,0 -1,0l0 0 0 0 0 0 0 0 0 0 0 -1 0 0 0 0 0 0 0 0 0 0 0 0 0 0c0,0 0,0 0,0 0,0 -1,0 -1,-1l0 0 0 0 0 0 0 0 0 0 0 0 0 0c0,0 0,0 0,0l0 0 0 0c0,0 0,0 0,0l0 0 0 0 -1 0 0 0 0 0 0 0 0 0c0,0 0,-1 0,-1l0 0 0 0 0 0 0 0 0 0 0 0 -1 0 0 0 0 0c0,-1 -1,-2 -1,-2 0,0 0,-1 0,-1l0 0c0,0 0,1 0,1 1,0 2,1 3,2l0 0 0 0 0 0 0 0c1,1 2,2 3,3 0,0 0,1 0,1l0 0 0 0z"/>
    <path class="fil2" d="M115 164l1 0 0 0 0 0 0 0 0 1 0 0 0 0c0,0 0,0 0,0 0,0 0,0 1,0 0,0 0,1 0,1l0 0 0 0 0 0 0 0 0 0 0 0 0 0 0 0 0 0c1,0 1,1 2,1 0,0 0,0 0,0l-2 2c-1,-1 -1,-1 -2,-2 0,0 -1,-1 -2,-2 0,0 -1,0 -1,0 0,1 0,1 0,2 1,0 1,1 2,2 1,0 2,1 3,1 0,0 0,0 0,0 0,1 0,1 0,1 0,1 -1,2 -1,3l0 0c-3,3 -5,3 -7,3 -2,0 -4,-1 -5,-2l0 0 0 0 0 0c0,0 -1,0 -1,-1 0,0 0,-1 -1,-1 0,-3 0,-6 2,-9l0 0 0 0 0 0 0 0c1,-1 2,-1 3,-1 0,0 0,0 0,0l0 0 0 0c1,0 2,0 2,0 1,0 1,0 1,-1l0 0 2 -2c1,1 1,2 2,3l0 0 0 0 0 0 0 0 0 0 0 0 1 0c0,1 0,1 0,1l0 0 0 0z"/>
    <path class="fil0" d="M16 161l0 0 0 0c2,-1 3,-2 4,-3 1,0 1,0 2,0 0,0 0,0 1,0l2 3c1,0 2,0 3,0l0 0c0,0 0,0 0,0 1,0 2,1 3,2l0 0 0 0 0 0 0 0 0 0c4,3 4,8 3,10 -1,1 -1,2 -1,2 0,0 -1,1 -1,1l0 0 0 0 0 0 0 0 0 0 0 0 0 0c-1,2 -4,3 -6,3 -3,0 -5,-1 -8,-4l0 0 0 0 0 0c0,0 0,0 0,0 -1,-1 -2,-3 -2,-4 0,0 0,-1 0,-1 0,0 0,0 0,0l-3 -3 0 0c0,0 0,0 0,0 0,0 0,0 0,0 0,0 0,0 0,-1 0,0 0,-1 1,-2 0,-1 1,-2 2,-3l0 0 0 0 0 0z"/>
    <path class="fil2" d="M15 166c0,0 0,0 0,0 0,-1 0,-1 0,-1 1,0 1,0 1,0l0 0 0 0 0 0 0 0 0 0 0 -1 0 0 0 0 0 0 0 0 0 0 0 0 0 0c1,0 1,0 1,0 0,0 0,0 1,-1l0 0 0 0 0 0 0 0 0 0 0 0 0 0 0 0c0,0 0,0 0,0l0 0 0 0c0,0 0,0 0,0l0 0 0 0 0 0 0 0 0 0 0 0c0,0 1,-1 1,-1l0 0 0 0 0 0 0 0 0 0 0 0 0 0 0 0 0 0c1,-1 1,-2 2,-2 0,0 0,-1 0,-1l0 0c0,0 0,1 0,1 -1,0 -2,1 -3,2l0 0 0 0 0 0 0 0c-2,1 -2,2 -3,3 0,0 0,1 0,1l0 0 0 0z"/>
    <path class="fil2" d="M19 164l0 0 0 0 0 0 0 0 0 1 0 0 0 0c0,0 0,0 0,0 0,0 -1,0 -1,0 0,0 0,1 0,1l0 0 0 0 0 0 0 0 0 0 0 0 -1 0 0 0 0 0c0,0 0,1 -1,1 0,0 0,0 0,0l1 2c1,-1 2,-1 2,-2 1,0 2,-1 2,-2 1,0 1,0 2,0 0,1 0,1 0,2 -1,0 -2,1 -3,2 0,0 -1,1 -2,1 0,0 0,0 0,0 0,1 0,1 0,1 0,1 0,2 1,3l0 0c2,3 5,3 7,3 2,0 4,-1 5,-2l0 0 0 0c0,0 0,0 1,-1 0,0 0,-1 0,-1 1,-3 1,-6 -2,-9l0 0 0 0 0 0 0 0c0,-1 -1,-1 -2,-1 0,0 0,0 0,0l0 0 0 0c-1,0 -2,0 -3,0 0,0 0,0 -1,-1l0 0 -1 -2c-1,1 -2,2 -2,3l0 0 0 0 -1 0 0 0 0 0 0 0 0 0c0,1 0,1 -1,1l0 0 0 0z"/>
    <path class="fil6" d="M336 155l0 -11c0,-4 0,-7 0,-10l0 0c1,2 3,5 5,8l8 13 3 0 0 -26 -3 0 0 11c0,4 0,7 0,11l0 0c-1,-3 -3,-6 -4,-9l-9 -13 -3 0 0 26 3 0 0 0zm-9 -31l-3 4 2 0 5 -4 -4 0 0 0zm-3 5l0 26 3 0 0 -26 -3 0 0 0zm-25 0l0 15c0,8 4,11 10,11 5,0 9,-3 9,-11l0 -15 -3 0 0 16c0,5 -3,8 -6,8 -4,0 -6,-3 -6,-8l0 -16 -4 0 0 0zm-15 24c-6,0 -9,-5 -9,-11 0,-5 3,-10 9,-10 5,0 8,5 8,10 0,6 -3,11 -8,11l0 0 0 0zm11 3c-2,0 -5,-1 -7,-2l0 0c4,-1 7,-6 7,-12 0,-8 -4,-13 -11,-13 -7,0 -12,5 -12,13 0,9 5,13 11,13 1,0 1,1 2,1 3,1 6,2 9,3l1 -3 0 0zm-41 -2c1,1 4,1 6,1 6,0 9,-3 9,-7 0,-4 -2,-6 -6,-7 -4,-2 -6,-3 -6,-5 0,-2 2,-4 5,-4 3,0 4,1 5,1l1 -3c-1,0 -3,-1 -6,-1 -5,0 -8,3 -8,7 0,4 3,6 7,7 3,1 5,3 5,5 0,3 -2,5 -6,5 -2,0 -4,-1 -6,-2l0 3 0 0zm-15 -22c6,0 8,5 8,10 0,6 -3,11 -8,11 -5,0 -8,-5 -8,-11 0,-5 3,-10 8,-10l0 0 0 0zm0 -3c-7,0 -12,5 -12,13 0,8 5,13 12,13 6,0 12,-4 12,-13 0,-8 -5,-13 -12,-13l0 0 0 0zm-14 22c-1,1 -3,2 -5,2 -7,0 -10,-4 -10,-11 0,-6 4,-10 10,-10 2,0 4,0 5,1l1 -3c-1,0 -3,-1 -6,-1 -8,0 -14,5 -14,13 0,9 6,13 13,13 3,0 5,0 7,-1l-1 -3 0 0zm-30 -11l-10 0 0 -8 10 0 0 -3 -14 0 0 26 15 0 0 -3 -11 0 0 -9 10 0 0 -3 0 0zm-35 -8c0,0 2,0 3,0 7,0 11,4 11,10 0,7 -4,10 -11,10 -1,0 -3,0 -3,0l0 -20 0 0zm-4 23c2,0 4,0 6,0 5,0 9,-1 11,-4 3,-2 4,-5 4,-9 0,-5 -1,-7 -3,-10 -3,-2 -6,-3 -11,-3 -2,0 -5,1 -7,1l0 25 0 0zm207 -61c1,0 2,0 4,0 7,0 10,4 10,10 0,7 -4,11 -11,11 -1,0 -2,0 -3,-1l0 -20 0 0zm-3 23c1,0 3,0 6,0 4,0 8,-1 11,-3 2,-3 3,-6 3,-10 0,-4 -1,-7 -3,-9 -2,-3 -6,-4 -10,-4 -3,0 -5,1 -7,1l0 25 0 0zm-19 -11l3 -7c0,-1 1,-3 1,-5l0 0c1,2 1,3 1,5l3 7 -8 0 0 0zm9 3l2 8 4 0 -9 -25 -4 0 -8 25 3 0 3 -8 9 0 0 0zm-35 -15c1,0 2,0 4,0 7,0 10,4 10,10 0,7 -3,11 -10,11 -2,0 -3,0 -4,-1l0 -20 0 0zm-3 23c2,0 4,0 6,0 5,0 9,-1 11,-3 3,-3 4,-6 4,-10 0,-4 -2,-7 -4,-9 -2,-3 -5,-4 -10,-4 -3,0 -5,1 -7,1l0 25 0 0zm-24 -25l0 15c0,7 3,10 9,10 5,0 9,-3 9,-11l0 -14 -3 0 0 15c0,5 -2,8 -6,8 -4,0 -6,-3 -6,-8l0 -15 -3 0 0 0zm-9 0l0 25 3 0 0 -25 -3 0 0 0zm-5 22c-2,0 -4,1 -6,1 -6,0 -9,-4 -9,-11 0,-6 4,-10 10,-10 2,0 3,0 5,1l1 -3c-1,0 -3,-1 -7,-1 -7,0 -13,6 -13,14 0,8 6,12 13,12 3,0 5,0 6,-1l0 -2 0 0zm-44 -8l3 -7c0,-1 1,-3 1,-5l0 0c1,2 1,3 2,5l2 7 -8 0 0 0zm9 3l3 8 3 0 -9 -25 -4 0 -8 25 3 0 3 -8 9 0 0 0zm-31 8l14 0 0 -3 -11 0 0 -22 -3 0 0 25 0 0zm-13 -15l-10 0 0 -8 10 0 0 -2 -14 0 0 25 15 0 0 -3 -11 0 0 -9 10 0 0 -3 0 0zm-35 -8c0,0 2,0 3,0 7,0 11,4 11,10 0,7 -4,11 -11,11 -1,0 -3,0 -3,-1l0 -20 0 0zm-4 23c2,0 4,0 6,0 5,0 9,-1 11,-3 3,-3 4,-6 4,-10 0,-4 -1,-7 -3,-9 -3,-3 -6,-4 -11,-4 -2,0 -5,1 -7,1l0 25 0 0zm237 -61c1,0 2,0 4,0 7,0 10,4 10,10 0,7 -3,11 -10,11 -2,0 -3,0 -4,-1l0 -20 0 0zm-3 23c2,0 4,0 6,0 5,0 9,-1 11,-3 3,-3 4,-6 4,-10 0,-4 -2,-7 -4,-9 -2,-2 -5,-4 -10,-4 -3,0 -5,1 -7,1l0 25 0 0zm-18 -10l2 -8c1,-1 1,-3 1,-4l1 0c0,1 0,3 1,4l2 8 -7 0 0 0zm8 2l3 8 3 0 -8 -25 -4 0 -9 25 3 0 3 -8 9 0 0 0zm-34 -15c0,0 2,0 3,0 7,0 11,4 11,10 0,7 -4,11 -11,11 -1,0 -3,0 -3,-1l0 -20 0 0zm-4 23c2,0 4,0 6,0 5,0 9,-1 12,-3 2,-3 3,-6 3,-10 0,-4 -1,-7 -3,-9 -3,-2 -6,-4 -11,-4 -2,0 -5,1 -7,1l0 25 0 0zm-9 -25l0 25 4 0 0 -25 -4 0 0 0zm-17 25l14 0 0 -3 -11 0 0 -22 -3 0 0 25 0 0zm-19 -10l3 -8c0,-1 1,-3 1,-4l0 0c0,1 1,3 1,4l3 8 -8 0 0 0zm9 2l2 8 4 0 -9 -25 -4 0 -8 25 3 0 3 -8 9 0 0 0zm-27 -15c0,0 2,0 3,0 4,0 6,2 6,5 0,4 -2,5 -6,5 -1,0 -2,0 -3,0l0 -10 0 0zm-3 23l3 0 0 -10c1,0 2,0 3,0 3,0 6,-1 7,-3 2,-1 2,-3 2,-5 0,-2 -1,-4 -2,-5 -1,-2 -4,-3 -7,-3 -3,0 -5,1 -6,1l0 25 0 0zm-9 -25l0 25 3 0 0 -25 -3 0 0 0zm-5 22c-2,0 -4,1 -6,1 -6,0 -9,-4 -9,-11 0,-6 4,-10 10,-10 2,0 3,0 5,1l1 -3c-1,0 -3,-1 -6,-1 -8,0 -14,6 -14,14 0,8 6,12 13,12 3,0 5,0 6,-1l0 -2 0 0zm-26 -22l0 25 3 0 0 -25 -3 0 0 0zm-22 25l0 -11c0,-4 0,-7 0,-10l0 0c1,2 3,5 5,8l8 13 3 0 0 -25 -3 0 0 10c0,4 0,7 0,11l0 0c-1,-3 -2,-5 -4,-8l-8 -13 -4 0 0 25 3 0 0 0zm-27 -25l0 15c0,8 3,10 9,10 5,0 9,-3 9,-11l0 -14 -3 0 0 15c0,5 -2,8 -6,8 -4,0 -6,-3 -6,-8l0 -15 -3 0 0 0zm-9 25l4 0 -2 -25 -4 0 -5 12c-1,3 -2,6 -2,9l-1 0c0,-3 -1,-6 -2,-9l-4 -12 -5 0 -1 25 3 0 0 -11c1,-4 1,-8 1,-11l0 0c1,3 2,6 3,10l4 12 2 0 5 -12c1,-4 2,-7 3,-10l0 0c0,3 0,7 1,11l0 11 0 0z"/>
   </g>
  </g>
 </g>
</svg>
