<?xml version="1.0" encoding="utf-8"?>
<!-- Generator: Adobe Illustrator 23.0.1, SVG Export Plug-In . SVG Version: 6.00 Build 0)  -->
<svg version="1.1" id="Capa_1" xmlns="http://www.w3.org/2000/svg" xmlns:xlink="http://www.w3.org/1999/xlink" x="0px" y="0px"
	 viewBox="0 0 1920 1080" style="enable-background:new 0 0 1920 1080;" xml:space="preserve">
<style type="text/css">
	.st0{fill-rule:evenodd;clip-rule:evenodd;fill:#211915;}
	.st1{fill-rule:evenodd;clip-rule:evenodd;fill:#BE0811;}
	.st2{fill-rule:evenodd;clip-rule:evenodd;fill:#D7D8DC;}
	.st3{fill-rule:evenodd;clip-rule:evenodd;fill:#00549C;}
	.st4{fill-rule:evenodd;clip-rule:evenodd;fill:#008F45;}
	.st5{fill-rule:evenodd;clip-rule:evenodd;fill:#FDED00;}
	.st6{fill-rule:evenodd;clip-rule:evenodd;fill:#FFFFFF;}
</style>
<g>
	<path class="st0" d="M566.32,441.25h41.79l-21.78-20.1l-6.95-6.41l9.03,2.81l38.71,12.06l-21.67-34.27l-5.04-7.98l7.98,5.05
		l34.27,21.67l-12.06-38.71l-2.81-9.03l6.41,6.95l27.49,29.8l-1.63-40.52l-0.38-9.43l4.39,8.36l18.85,35.9l8.91-39.56l2.08-9.21
		l2.08,9.21l8.91,39.56l18.85-35.9l4.39-8.36l-0.38,9.43l-1.63,40.52l27.49-29.8l6.41-6.96l-2.81,9.03l-12.06,38.71l34.27-21.67
		l7.98-5.05l-5.04,7.98l-21.67,34.27l38.71-12.06l9.03-2.81l-6.95,6.41l-21.78,20.1h41.79h2.13v2.13v176.17v2.13h-0.06
		c-0.65,30.35-15.07,57.76-38.08,77.71c-23.45,20.34-55.84,32.93-91.58,32.93v0.01h-0.01h0v-0.01c-35.75,0-68.14-12.58-91.59-32.93
		c-23.54-20.42-38.1-48.65-38.1-79.84l-0.01,0v0V443.38v-2.13H566.32L566.32,441.25z"/>
	<path class="st1" d="M819.34,445.52H568.45v174.03v0h-0.01c0,29.9,14,56.99,36.63,76.62c22.72,19.7,54.12,31.89,88.8,31.89v-0.01h0
		h0.01v0.01c34.69,0,66.08-12.19,88.8-31.89c22.63-19.63,36.63-46.72,36.63-76.63l-0.01,0v0v-2.13h0.02V445.52L819.34,445.52z"/>
	<path class="st0" d="M609.48,481.38h168.84h2.01v2.03v129.8v2.04h-0.06c-0.6,20.28-10.19,38.57-25.38,51.92
		c-15.62,13.72-37.19,22.21-60.99,22.21v0.01h-0.01h-0.01v-0.01c-23.8,0-45.37-8.49-61-22.21c-15.7-13.79-25.41-32.86-25.42-53.95
		h-0.01v-0.01v-129.8v-2.03H609.48L609.48,481.38z"/>
	<polygon class="st0" points="815.55,567.14 808.36,574.33 815.55,581.52 816.37,582.35 815.55,583.17 808.29,590.43 807.47,591.25 
		806.65,590.43 799.45,583.24 792.31,590.38 791.49,591.2 790.67,590.38 783.46,583.17 782.64,582.35 783.46,581.53 790.6,574.38 
		783.41,567.19 782.58,566.37 783.41,565.55 790.67,558.28 791.49,557.46 792.31,558.28 799.5,565.48 806.69,558.29 807.52,557.47 
		808.34,558.29 815.55,565.5 816.37,566.32 815.55,567.14 	"/>
	<path class="st2" d="M611.49,563.85c1.99-1.97,4.17-4.16,6.35-6.34c7.06-7.09,14.13-14.17,15.55-14.29c0.08-0.01,0.17-0.01,0.24,0
		c0.09,0,0.19,0.01,0.28,0.03c1.15,0.2,3.65,2.06,6.1,3.91c1.8,1.35,3.58,2.67,4.04,3.02c2.12-1.44,15-13.92,27.88-26.4
		c6.96-6.74,13.92-13.48,19.23-18.51c0.1-0.09,0.21-0.17,0.32-0.23l0.03-0.02c0.14-0.09,0.29-0.17,0.44-0.24
		c0.18-0.08,0.36-0.15,0.56-0.22c0.19-0.06,0.39-0.12,0.59-0.16v-4.96h-3.19v-2.32h3.19v-3.38h2.32v3.38h3.2v2.32h-3.2v4.88
		c0.05,0.01,0.09,0.02,0.13,0.03v-0.01l0.01,0c0.16,0.04,0.31,0.11,0.44,0.2c1.98,1.04,9.82,6.07,18,11.33
		c5.05,3.24,10.23,6.57,14.05,8.99c2.23,0.11,4.81,0.2,7.4,0.29c5.71,0.19,11.43,0.39,12.87,0.84c0.11,0.03,0.21,0.08,0.3,0.13v0
		c0.86,0.47,3.01,2.92,5.52,5.78c3.27,3.73,7.19,8.21,8.59,8.97l0.05,0.03l0.01,0.01h0l0.03,0.02c0.25,0.14,0.62,0.32,1.07,0.52
		c0.48,0.21,1.06,0.45,1.7,0.7c2.98,1.14,7.21,2.47,10.72,3.48v-60.17H611.49V563.85L611.49,563.85z"/>
	<path class="st3" d="M611.49,574.25h164.82v-25.24c-3.76-1.05-8.6-2.55-11.88-3.81c-0.68-0.26-1.31-0.51-1.86-0.76
		c-0.54-0.24-1.01-0.47-1.4-0.7l-0.05-0.03l0,0h0c-1.94-1.1-6.03-5.76-9.43-9.66c-2.13-2.43-3.97-4.53-4.5-4.98
		c-1.4-0.29-6.61-0.47-11.82-0.65c-2.81-0.09-5.62-0.19-7.8-0.31l-0.05,0c-0.29-0.01-0.58-0.09-0.83-0.25
		c-4.13-2.61-9.35-5.97-14.44-9.23c-8.36-5.37-16.35-10.51-17.5-11.1c-0.42-0.02-0.84,0.01-1.19,0.13
		c-0.06,0.02-0.13,0.05-0.19,0.08c-0.02,0.01-0.04,0.02-0.06,0.03c-5.35,5.06-12.21,11.7-19.07,18.35
		c-12.79,12.4-25.59,24.8-28.9,27.02c-0.15,0.12-0.32,0.23-0.52,0.3c-0.04,0.01-0.07,0.03-0.1,0.04v-0.01
		c-0.15,0.04-0.3,0.07-0.42,0.07v0h-0.04c-1.15,0.03-3.65-1.84-6.19-3.74c-1.9-1.42-3.83-2.86-4.49-3.22
		c-0.89,0.72-7.14,6.99-13.39,13.25c-3.07,3.08-6.15,6.16-8.67,8.63V574.25L611.49,574.25z"/>
	<path class="st4" d="M611.48,613.67c6.45-0.78,11.78-2.55,17.26-4.37c6.86-2.29,13.96-4.65,23.77-5.34c0.09-0.01,0.17,0,0.26,0
		c6.23,0.12,11.68,1.29,17.12,2.46c5.02,1.08,10.04,2.16,15.51,2.36c5.55-0.41,9.33-1.76,12.97-3.06c4.19-1.49,8.21-2.94,14.47-2.97
		c0.06,0,0.12,0,0.18,0.01l0,0c6.15,0.67,10.26,2.4,14.04,3.98c2.7,1.13,5.23,2.19,8.13,2.66c9.06,0.28,15.33-1.03,20.69-2.16
		c4.41-0.92,8.22-1.72,12.53-1.47l0.04,0c2.32,0.08,4.17,0.36,5.79,0.77c0.74,0.19,1.42,0.4,2.07,0.63v-29.63H611.49v35.66v0.01
		h-0.01C611.48,613.37,611.48,613.52,611.48,613.67L611.48,613.67L611.48,613.67z"/>
	<path class="st2" d="M612.07,621.87c7.21-0.24,12.97-2.01,18.93-3.86c6.28-1.94,12.8-3.96,21.53-4.37c0.04,0,0.08,0,0.11,0
		c6.41,0.26,11.4,1.91,16.31,3.52c4.74,1.56,9.39,3.1,15.1,3.25c5.72-0.23,10.15-2.14,14.43-3.99c4.52-1.95,8.89-3.83,14.52-3.74
		c0.03,0,0.06,0,0.09,0c5.41,0.53,9.4,1.96,13.08,3.28c3,1.07,5.8,2.08,8.98,2.43c8.2,0.19,14.14-1.24,19.41-2.51
		c4.04-0.97,7.7-1.85,11.73-1.87v0c2.64-0.18,4.95-0.18,7.08,0.03c1.01,0.1,1.98,0.24,2.91,0.42c0.01-0.42,0.01-0.83,0.01-1.25
		h-0.01v0v-2.04h0.02v-0.49c-0.91-0.36-1.85-0.69-2.88-0.96c-1.44-0.37-3.07-0.62-5.1-0.68c-0.03,0-0.07,0-0.11,0
		c-3.89-0.23-7.5,0.53-11.68,1.41c-5.54,1.16-12.04,2.52-21.56,2.21v0c-0.06,0-0.13-0.01-0.2-0.02c-3.37-0.53-6.08-1.67-8.99-2.88
		c-3.56-1.49-7.43-3.11-13.06-3.74c-5.62,0.05-9.37,1.39-13.28,2.79c-3.86,1.38-7.86,2.81-13.88,3.24v0c-0.06,0-0.11,0-0.17,0
		c-5.85-0.2-11.02-1.31-16.2-2.43c-5.3-1.14-10.62-2.28-16.5-2.4c-9.41,0.67-16.28,2.95-22.94,5.17c-5.72,1.9-11.29,3.76-18.18,4.56
		C611.69,618.61,611.85,620.25,612.07,621.87L612.07,621.87L612.07,621.87z"/>
	<path class="st2" d="M617.21,639.17c8.06,1.13,14.01-0.6,20.18-2.39c5.21-1.52,10.56-3.07,17.48-3.06l0.07,0l0,0
		c6.48,0.54,10.56,1.8,14.35,2.97c3.91,1.21,7.51,2.32,13.14,2.38l0.02,0h0.01c5.33,0.17,10.45-0.91,15.31-1.92
		c4.88-1.02,9.5-1.98,13.95-1.65c4.29,0.32,7.94,2.02,11.44,3.66c3,1.4,5.89,2.75,8.89,3.06c7.29,0.36,12.19-1.02,17.33-2.47
		c2.14-0.6,4.33-1.22,6.76-1.74c0.03-0.01,0.05-0.01,0.07-0.01c6.24-0.89,9.44,0.15,12.98,1.29c0.5,0.16,1.01,0.33,1.54,0.49
		c0.54-1.2,1.05-2.42,1.53-3.66c-1.1-0.5-2.11-0.89-3.28-1.21c-1.82-0.5-4.08-0.84-7.72-1.15v0h-0.03c-4.04-0.5-7.5,0.39-11.39,1.39
		c-4.3,1.11-9.11,2.35-15.78,2.07l-0.05,0c-3.66-0.23-7.08-2.49-10.68-4.87c-3.73-2.46-7.66-5.06-12.05-5.44l0,0
		c-4.83-0.2-9.13,0.8-13.64,1.85c-4.51,1.05-9.22,2.14-14.95,2.18l0,0h-0.02c-5.98-0.11-10.3-1.32-14.83-2.6
		c-4.29-1.21-8.77-2.47-15.02-2.85c-7.49,0.19-13.29,1.92-18.9,3.59c-6.01,1.79-11.81,3.51-19.29,3.29
		C615.37,634.67,616.23,636.95,617.21,639.17L617.21,639.17L617.21,639.17z"/>
	<path class="st4" d="M761.17,654.83c-8.03-1.04-16.07,1.15-22.88,3c-3.75,1.02-7.14,1.94-10.09,2.23l0,0h-0.01h-0.02
		c-3.55,0.34-7.22-0.97-10.82-2.25c-2.67-0.95-5.3-1.88-7.52-1.98l0,0h-0.05v0c-0.08,0-0.16-0.01-0.24-0.03
		c-2.61-0.47-6.91,0.59-11.56,1.73c-5.5,1.36-11.48,2.83-16.56,2.22c-5.4,0.02-7.88-1.33-10.78-2.9c-2.53-1.37-5.43-2.95-11.43-3.75
		c-4.84-0.33-8.81,0.86-12.75,2.03c-5.49,1.63-10.92,3.24-18.53,1.27c2.32,2.71,4.86,5.28,7.59,7.68
		c14.93,13.11,35.57,21.22,58.37,21.22v-0.01h0.01h0.01v0.01c22.8,0,43.44-8.11,58.37-21.22
		C755.52,661.23,758.5,658.14,761.17,654.83L761.17,654.83L761.17,654.83z"/>
	<path class="st2" d="M773.91,630.5c-8.51-3.91-17.51-2.04-25.29-0.43c-4.64,0.96-8.85,1.84-12.4,1.4l-0.04-0.01
		c-4.88-0.68-7.49-2.51-10.21-4.42c-1.73-1.21-3.51-2.46-5.97-3.43v0l-0.01-0.01c-2.01-0.83-3.22-1.63-3.71-2.26
		c-0.35-0.45-0.44-0.9-0.29-1.32c0.15-0.42,0.51-0.71,1.05-0.85c0.77-0.2,2.2-0.11,4.12,0.41c1.62,0.43,3.59,1.15,5.7,1.91
		c4.26,1.54,9.13,3.3,12.19,3.22h0.01h0.03c4.07-0.25,8.55-1.07,13.11-1.9c8.11-1.48,16.49-3.01,23.58-1.58
		c0.21-1.69,0.36-3.39,0.44-5.11c-0.97-0.21-1.97-0.36-3.01-0.46c-2.02-0.19-4.25-0.2-6.81-0.02l0,0l-0.05,0
		c-3.85,0.01-7.44,0.88-11.4,1.83c-5.38,1.29-11.43,2.75-19.87,2.55c-0.03,0-0.07,0-0.1,0c-3.39-0.37-6.29-1.41-9.38-2.52
		c-3.59-1.29-7.47-2.67-12.67-3.19c-5.25-0.07-9.45,1.74-13.79,3.61c-4.43,1.91-9,3.89-15.05,4.12v0h-0.05
		c-5.98-0.15-10.76-1.73-15.62-3.33c-4.79-1.58-9.68-3.19-15.85-3.44c-8.49,0.41-14.9,2.39-21.07,4.3
		c-6.02,1.86-11.83,3.66-19.18,3.92c0.4,2.43,0.94,4.83,1.61,7.18c7.47,0.32,13.28-1.41,19.3-3.2c5.72-1.7,11.63-3.46,19.4-3.65
		c0.02,0,0.05,0,0.07,0v0c6.45,0.4,11.02,1.68,15.39,2.91c4.43,1.25,8.66,2.44,14.4,2.54c5.51-0.03,10.14-1.11,14.57-2.14
		c4.62-1.07,9.04-2.1,14.12-1.89l0.04,0v0c4.81,0.42,8.93,3.14,12.84,5.72c3.41,2.25,6.65,4.39,9.86,4.6l0.03,0
		c6.42,0.26,11.08-0.94,15.27-2.02c4.04-1.04,7.66-1.97,11.99-1.44c3.72,0.32,6.07,0.68,8.01,1.21c1.23,0.34,2.28,0.74,3.4,1.25
		C773.09,633.23,773.52,631.87,773.91,630.5L773.91,630.5L773.91,630.5z"/>
	<path class="st2" d="M775.56,622.87c-6.8-1.41-15.06,0.1-23.05,1.56c-4.62,0.84-9.16,1.67-13.32,1.92l-0.06,0h-0.03
		c-3.39,0.08-8.4-1.73-12.81-3.32c-2.11-0.76-4.08-1.47-5.57-1.87c-1.21-0.33-2.13-0.47-2.75-0.46c0.49,0.38,1.36,0.85,2.64,1.38v0
		c2.65,1.04,4.51,2.35,6.32,3.62c2.56,1.79,5,3.5,9.47,4.13l0.04,0.01c3.26,0.39,7.34-0.45,11.83-1.38
		c7.95-1.66,17.15-3.57,26.06,0.42C774.84,626.91,775.25,624.91,775.56,622.87L775.56,622.87L775.56,622.87z"/>
	<path class="st2" d="M765.65,648.67l-0.8-0.27c-3.14-1.07-5.99-2.04-11.48-1.19c-2.21,0.51-4.24,1.12-6.23,1.73
		c-4.96,1.51-9.68,2.94-16.81,2.6v0l-0.04,0c-3.1-0.32-5.94-1.72-8.88-3.17c-3.17-1.56-6.46-3.18-10.2-3.46
		c-3.96-0.3-8.19,0.66-12.66,1.68c-4.66,1.06-9.56,2.16-14.77,2.02l0,0c-5.53-0.05-9-1.17-12.78-2.4
		c-3.48-1.13-7.23-2.35-13.14-2.85c-6.23,0.03-11.14,1.57-15.91,3.07c-5.97,1.88-11.74,3.69-19.65,2.52
		c0.61,0.94,1.25,1.87,1.91,2.78c0.09,0.02,0.17,0.05,0.25,0.08c9.13,3.74,15.03,1.99,21.02,0.21c4.23-1.26,8.5-2.52,13.96-2.15
		c0.08,0.01,0.15,0.02,0.22,0.03c6.63,0.89,9.8,2.61,12.58,4.12c2.52,1.36,4.67,2.53,9.27,2.5c0.09,0,0.18,0.01,0.26,0.02
		c4.46,0.54,10.15-0.86,15.4-2.15c4.95-1.22,9.52-2.35,12.85-1.79c2.73,0.13,5.57,1.14,8.47,2.16c3.25,1.16,6.57,2.34,9.37,2.07
		l0.01,0c2.67-0.26,5.93-1.14,9.53-2.12c7.63-2.07,16.73-4.54,26.05-2.8C764.21,650.82,764.94,649.75,765.65,648.67L765.65,648.67
		L765.65,648.67z"/>
	<path class="st2" d="M621.12,647.07c8.31,1.56,14.23-0.3,20.38-2.23c4.89-1.53,9.93-3.12,16.42-3.13h0.06v0
		c6.08,0.51,9.92,1.76,13.48,2.92c3.68,1.2,7.05,2.29,12.34,2.33h0.02h0.01c5.01,0.15,9.82-0.95,14.39-1.98
		c4.58-1.04,8.93-2.03,13.11-1.71c4.03,0.3,7.45,1.99,10.75,3.61c2.81,1.39,5.53,2.72,8.35,3.03c6.85,0.33,11.46-1.07,16.28-2.54
		c2.01-0.61,4.06-1.23,6.36-1.76c0.02-0.01,0.04-0.01,0.06-0.01c5.86-0.91,8.87,0.11,12.19,1.25c0.4,0.13,0.8,0.27,1.22,0.41
		c1.19-1.94,2.28-3.92,3.26-5.96c-0.46-0.14-0.91-0.29-1.35-0.43c-3.34-1.08-6.37-2.06-12.22-1.23c-2.35,0.5-4.51,1.11-6.63,1.7
		c-5.27,1.49-10.3,2.91-17.9,2.52v0l-0.04,0c-3.3-0.34-6.32-1.74-9.45-3.2c-3.37-1.57-6.88-3.21-10.86-3.5
		c-4.21-0.32-8.72,0.62-13.48,1.62c-4.95,1.04-10.17,2.13-15.72,1.96v0c-5.89-0.06-9.58-1.21-13.6-2.45
		c-3.71-1.14-7.7-2.38-13.99-2.9c-6.63,0-11.86,1.52-16.94,3c-6.08,1.77-11.97,3.48-19.84,2.58
		C618.8,643.03,619.91,645.08,621.12,647.07L621.12,647.07L621.12,647.07z"/>
	<polygon class="st5" points="614.39,441.25 773.41,441.25 791.63,424.43 756.43,435.4 750.9,437.13 753.99,432.23 773.71,401.05 
		742.52,420.77 737.64,423.86 739.36,418.33 750.32,383.13 725.32,410.23 721.39,414.48 721.63,408.7 723.11,371.83 705.96,404.5 
		703.27,409.62 702,403.98 693.9,367.99 685.79,403.98 684.52,409.62 681.83,404.5 664.68,371.83 666.17,408.7 666.4,414.48 
		662.47,410.23 637.47,383.13 648.44,418.33 650.16,423.86 645.27,420.77 614.09,401.05 633.81,432.23 636.9,437.13 631.37,435.4 
		596.16,424.43 614.39,441.25 	"/>
	<polygon class="st0" points="604.52,567.14 597.33,574.33 604.53,581.52 605.35,582.35 604.53,583.17 597.26,590.43 596.44,591.25 
		595.62,590.43 588.43,583.24 581.29,590.38 580.47,591.2 579.65,590.38 572.43,583.17 571.61,582.35 572.43,581.53 579.58,574.38 
		572.38,567.19 571.56,566.37 572.38,565.55 579.65,558.28 580.47,557.46 581.29,558.28 588.48,565.48 595.67,558.29 596.49,557.47 
		597.31,558.29 604.52,565.5 605.35,566.32 604.52,567.14 	"/>
	<polygon class="st0" points="709.97,456.28 702.78,463.47 709.97,470.67 710.79,471.49 709.97,472.31 702.7,479.57 701.88,480.39 
		701.06,479.57 693.87,472.38 686.73,479.52 685.91,480.34 685.09,479.52 677.87,472.31 677.05,471.49 677.87,470.67 685.02,463.52 
		677.83,456.33 677.01,455.51 677.83,454.69 685.09,447.43 685.91,446.61 686.73,447.43 693.92,454.62 701.11,447.43 701.93,446.61 
		702.75,447.43 709.97,454.64 710.79,455.46 709.97,456.28 	"/>
	<polygon class="st0" points="709.97,700.85 702.78,708.04 709.97,715.23 710.79,716.05 709.97,716.87 702.7,724.13 701.88,724.95 
		701.06,724.13 693.87,716.94 686.73,724.08 685.91,724.9 685.09,724.08 677.87,716.87 677.05,716.05 677.87,715.23 685.02,708.08 
		677.83,700.89 677.01,700.07 677.83,699.25 685.09,691.99 685.91,691.17 686.73,691.99 693.92,699.18 701.11,691.99 701.93,691.17 
		702.75,691.99 709.97,699.21 710.79,700.02 709.97,700.85 	"/>
	<path class="st0" d="M589.21,450.68h0.01v0.01c3.1,0,5.91,0.3,7.95,0.79c2.1,0.5,3.59,1.33,4.15,2.41
		c0.25,0.32,0.39,0.73,0.35,1.17l-0.62,7.71c1.32,0.9,2.46,2.02,3.36,3.28l-0.01,0c0.21,0.3,0.42,0.61,0.6,0.92
		c1.15,1.93,1.79,4.12,1.81,6.3v0.07h0.01v0h-0.01v0.06c-0.35,9.36-5.92,15.01-11.25,17.56c-1.05,0.5-2.09,0.89-3.07,1.15
		c-1,0.27-1.97,0.43-2.86,0.48l0,0h-0.02l-0.06,0v0l-0.05,0h-0.1l-0.04,0h-0.01c-3.39,0.01-7.75-1.6-11.26-4.92
		c-3.48-3.3-6.17-8.28-6.32-15.02v0v-0.01l0-0.2c-0.01-0.08-0.01-0.16,0-0.24c0.24-3.49,1.97-6.35,4.03-8.24
		c0.39-0.36,0.81-0.69,1.24-0.99c0.11-0.08,0.22-0.14,0.32-0.22l-0.61-7.7h0.01c-0.01-0.18,0-0.36,0.05-0.55
		c0.03-0.13,0.08-0.26,0.14-0.37c0.1-0.29,0.25-0.54,0.46-0.71c0.71-0.87,2.06-1.53,3.86-1.96c2.04-0.48,4.84-0.78,7.93-0.79v-0.01
		H589.21L589.21,450.68z"/>
	<path class="st2" d="M580.61,454.65c0.11,0.03,0.23,0.06,0.35,0.09c0.23,0.01,0.48,0.05,0.76,0.12c0.71,0.16,1.52,0.31,2.4,0.42
		l0.02,0h0h0.01l0.12,0.02l0.02,0l0.03,0h0.02l0.01,0l0.09,0.01l0.02,0h0.01l0.02,0l0.02,0c0.38,0.04,0.78,0.08,1.23,0.12
		c0.67,0.05,1.31,0.09,1.91,0.11l0.09,0h0.03v0.01h0.02h0.02l0.47,0.01l0.32,0c0.04,0,0.08,0,0.12,0l0.03,0v0
		c0.05,0,0.1,0,0.15,0.01h0.01h0.26v-0.01h0.01h0.03v0.01c0.65,0,1.28-0.02,1.89-0.04l0.1-0.01v0.01l0.02,0l0.03,0l0.5-0.03l0.03,0
		l0.55-0.03v0l0.03,0h0.04c1.63-0.12,3.08-0.33,4.26-0.6c0.39-0.09,0.73-0.12,1.01-0.13l0.19-0.08c-0.31,0.01-0.72-0.01-1.2-0.13
		c-1.9-0.45-4.54-0.72-7.46-0.72v0.01h-0.02h-0.03v-0.01c-2.91,0-5.54,0.28-7.44,0.72C581.29,454.63,580.91,454.65,580.61,454.65
		L580.61,454.65L580.61,454.65z"/>
	<path class="st2" d="M588.58,459l-0.34-0.01h-0.02h-0.01h-0.02l-0.4-0.01v0h-0.03c-0.06,0-0.13,0-0.19-0.01
		c-0.78-0.03-1.47-0.07-2.08-0.11c-0.35-0.03-0.7-0.06-1.05-0.1l-0.03-0.01h-0.01l-0.05-0.01l-0.03,0l0,0l-0.04,0l-0.23-0.03
		l-0.02,0c-1.14-0.13-2.18-0.31-3.07-0.51c-0.34-0.08-0.67-0.17-0.98-0.27l0.37,4.58c1.43,0.4,2.85,0.66,4.26,0.8
		c1.75,0.18,3.52,0.18,5.3,0.09c0.94-0.05,1.75,0.67,1.8,1.61c0.05,0.94-0.67,1.75-1.61,1.81c-1.93,0.1-3.87,0.1-5.82-0.1
		c-1.85-0.18-3.68-0.53-5.52-1.11c-0.07,0.05-0.15,0.09-0.22,0.15c-0.3,0.21-0.62,0.46-0.93,0.74c-1.56,1.4-2.86,3.51-3.05,6.07
		l0.01,0.18c0.13,5.82,2.46,10.09,5.47,12.9c2.97,2.77,6.57,4.12,9.32,4.11l0.09,0l0.05,0c0.67-0.03,1.44-0.16,2.26-0.38
		c0.84-0.22,1.72-0.54,2.61-0.96c4.59-2.16,9.38-6.95,9.7-14.9h0v-0.01h0l0-0.06c-0.01-1.61-0.5-3.23-1.38-4.68
		c-0.15-0.24-0.3-0.48-0.47-0.71l0,0l0,0c-0.86-1.18-1.98-2.2-3.32-2.95c-0.61-0.33-0.93-0.98-0.88-1.63l0,0l0.44-5.38
		c-1.73,0.57-3.67,0.66-5.5,0.75l-0.36,0.02l-0.54,0.04l-0.09,0l-0.43,0.02v0l-0.46,0.04c-0.78,0.06-1.5,0.13-2.37,0.02L588.58,459
		L588.58,459z"/>
	<polygon class="st2" points="594.87,573.51 602.06,566.32 596.49,560.75 589.3,567.94 588.48,568.76 587.66,567.94 580.47,560.75 
		574.84,566.37 582.04,573.56 582.86,574.38 582.04,575.2 574.89,582.35 580.47,587.92 587.61,580.78 588.43,579.96 589.25,580.78 
		596.44,587.97 602.07,582.35 594.87,575.16 594.05,574.33 594.87,573.51 	"/>
	<polygon class="st2" points="805.89,573.51 813.09,566.32 807.52,560.75 800.32,567.94 799.5,568.76 798.68,567.94 791.49,560.75 
		785.87,566.37 793.06,573.56 793.88,574.38 793.06,575.2 785.92,582.35 791.49,587.92 798.63,580.78 799.45,579.96 800.27,580.78 
		807.47,587.97 813.09,582.35 805.89,575.16 805.08,574.33 805.89,573.51 	"/>
	<polygon class="st2" points="700.32,462.65 707.51,455.46 701.93,449.89 694.74,457.08 693.92,457.9 693.1,457.08 685.91,449.89 
		680.29,455.51 687.48,462.7 688.3,463.52 687.48,464.34 680.34,471.49 685.91,477.06 693.05,469.92 693.87,469.09 694.69,469.92 
		701.88,477.11 707.51,471.48 700.32,464.29 699.5,463.47 700.32,462.65 	"/>
	<polygon class="st2" points="700.32,707.21 707.51,700.02 701.93,694.45 694.74,701.64 693.92,702.46 693.1,701.64 685.91,694.45 
		680.29,700.07 687.48,707.26 688.3,708.08 687.48,708.91 680.34,716.05 685.91,721.62 693.05,714.48 693.87,713.66 694.69,714.48 
		701.88,721.67 707.51,716.05 700.32,708.86 699.49,708.04 700.32,707.21 	"/>
	<path class="st0" d="M799.35,450.68h-0.01v0.01c-3.1,0-5.91,0.3-7.95,0.79c-2.1,0.5-3.59,1.33-4.15,2.41
		c-0.25,0.32-0.39,0.73-0.35,1.17l0.62,7.71c-1.33,0.9-2.46,2.02-3.36,3.28l0,0c-0.22,0.3-0.42,0.61-0.6,0.92
		c-1.15,1.93-1.79,4.12-1.81,6.3l0,0.07h0v0h0l0,0.06c0.35,9.36,5.92,15.01,11.24,17.56c1.05,0.5,2.09,0.89,3.07,1.15
		c1,0.27,1.97,0.43,2.86,0.48l0,0h0.01l0.06,0v0l0.05,0h0.1l0.04,0h0.01c3.39,0.01,7.75-1.6,11.26-4.92
		c3.48-3.3,6.17-8.28,6.32-15.02l0,0l0-0.01l0-0.2c0.01-0.08,0.01-0.16,0-0.24c-0.24-3.49-1.97-6.35-4.03-8.24
		c-0.39-0.36-0.81-0.69-1.24-0.99c-0.11-0.08-0.22-0.14-0.32-0.22l0.61-7.7h-0.01c0.01-0.18,0-0.36-0.05-0.55
		c-0.03-0.13-0.08-0.26-0.14-0.37c-0.1-0.29-0.25-0.54-0.46-0.71c-0.7-0.87-2.05-1.53-3.86-1.96c-2.04-0.48-4.84-0.78-7.93-0.79
		v-0.01H799.35L799.35,450.68z"/>
	<path class="st2" d="M807.95,454.65c-0.11,0.03-0.23,0.06-0.35,0.09c-0.23,0.01-0.48,0.05-0.76,0.12c-0.71,0.16-1.52,0.31-2.4,0.42
		l-0.03,0h0h-0.01l-0.12,0.02l-0.02,0l-0.02,0h-0.03l-0.01,0l-0.1,0.01l-0.03,0h-0.01l-0.02,0l-0.02,0
		c-0.38,0.04-0.78,0.08-1.22,0.12c-0.68,0.05-1.31,0.09-1.91,0.11l-0.09,0h-0.03v0.01h-0.02h-0.02l-0.47,0.01l-0.32,0
		c-0.04,0-0.08,0-0.11,0l-0.03,0v0c-0.05,0-0.1,0-0.15,0.01h-0.01h0h-0.25v-0.01h-0.02h-0.03v0.01c-0.64,0-1.28-0.02-1.89-0.04
		l-0.11-0.01v0.01l-0.02,0l-0.03,0l-0.5-0.03l-0.03,0l-0.55-0.03v0l-0.03,0h-0.04c-1.63-0.12-3.08-0.33-4.26-0.6
		c-0.39-0.09-0.73-0.12-1.01-0.13l-0.19-0.08c0.31,0.01,0.72-0.01,1.2-0.13c1.9-0.45,4.54-0.72,7.46-0.72v0.01h0.02h0.03v-0.01
		c2.91,0,5.54,0.28,7.44,0.72C807.27,454.63,807.64,454.65,807.95,454.65L807.95,454.65L807.95,454.65z"/>
	<path class="st2" d="M799.97,459l0.34-0.01h0.02h0.01h0.02l0.4-0.01v0h0.03c0.06,0,0.13,0,0.19-0.01c0.78-0.03,1.47-0.07,2.08-0.11
		c0.35-0.03,0.7-0.06,1.05-0.1l0.03-0.01h0.01l0.06-0.01l0.03,0l0,0l0.04,0l0.23-0.03l0.02,0c1.14-0.13,2.18-0.31,3.07-0.51
		c0.34-0.08,0.67-0.17,0.98-0.27l-0.37,4.58c-1.43,0.4-2.85,0.66-4.26,0.8c-1.76,0.18-3.52,0.18-5.3,0.09
		c-0.94-0.05-1.75,0.67-1.8,1.61c-0.05,0.94,0.67,1.75,1.61,1.81c1.93,0.1,3.87,0.1,5.82-0.1c1.85-0.18,3.68-0.53,5.51-1.11
		c0.07,0.05,0.15,0.09,0.22,0.15c0.31,0.21,0.62,0.46,0.94,0.74c1.56,1.4,2.86,3.51,3.05,6.07l0,0.18
		c-0.13,5.82-2.46,10.09-5.47,12.9c-2.97,2.77-6.57,4.12-9.31,4.11l-0.1,0l-0.05,0c-0.67-0.03-1.44-0.16-2.26-0.38
		c-0.84-0.22-1.73-0.54-2.61-0.96c-4.58-2.16-9.38-6.95-9.7-14.9h0.01v-0.01h-0.01l0-0.06c0.01-1.61,0.5-3.23,1.38-4.68
		c0.15-0.24,0.3-0.48,0.47-0.71l0,0l0.01,0c0.85-1.18,1.98-2.2,3.32-2.95c0.61-0.33,0.93-0.98,0.88-1.63l0,0l-0.44-5.38
		c1.73,0.57,3.67,0.66,5.5,0.75l0.36,0.02l0.54,0.04l0.09,0l0.43,0.02v0l0.46,0.04c0.77,0.06,1.5,0.13,2.37,0.02L799.97,459
		L799.97,459z"/>
	<path class="st0" d="M791.85,658.55l-0.01-0.01l-0.01,0.01c-2.19-2.19-4.39-3.97-6.17-5.06c-1.84-1.13-3.47-1.6-4.64-1.23
		c-0.4,0.05-0.79,0.25-1.08,0.58l-5.01,5.89c-1.57-0.3-3.16-0.31-4.69-0.06v0c-0.36,0.06-0.72,0.14-1.08,0.23
		c-2.18,0.55-4.18,1.64-5.73,3.18l-0.05,0.05l0,0l0,0l0,0.01l-0.04,0.04c-6.37,6.87-6.43,14.8-4.47,20.37
		c0.39,1.1,0.85,2.1,1.36,2.99c0.52,0.9,1.09,1.7,1.69,2.36h0l0.01,0.01l0.04,0.05h0l0.04,0.04l0.07,0.07l0.03,0.03l0.01,0.01
		c2.38,2.41,6.61,4.35,11.44,4.48c4.79,0.13,10.22-1.49,15.09-6.15h0l0.01-0.01l0.14-0.14c0.06-0.05,0.12-0.11,0.17-0.17
		c2.3-2.64,3.1-5.88,2.98-8.67c-0.02-0.53-0.08-1.06-0.18-1.57c-0.02-0.13-0.05-0.26-0.07-0.38l5.88-5.02l-0.01,0
		c0.14-0.12,0.26-0.26,0.35-0.42c0.07-0.12,0.12-0.24,0.16-0.36c0.13-0.28,0.21-0.56,0.18-0.83c0.11-1.11-0.36-2.54-1.34-4.12
		c-1.1-1.78-2.87-3.97-5.05-6.16l0-0.01L791.85,658.55L791.85,658.55z"/>
	<path class="st2" d="M795.12,667.44c-0.1-0.06-0.2-0.11-0.31-0.18c-0.17-0.15-0.38-0.31-0.62-0.46c-0.62-0.38-1.29-0.85-2-1.4
		l-0.02-0.02l0,0l-0.01,0l-0.09-0.07l-0.02-0.02l-0.02-0.02l-0.02-0.02l-0.01,0l-0.08-0.06l-0.02-0.01l-0.01-0.01l-0.01-0.01
		l-0.02-0.02c-0.29-0.23-0.61-0.49-0.95-0.78c-0.51-0.44-0.99-0.86-1.43-1.27l-0.06-0.06l-0.02-0.03l0,0.01l-0.01-0.01l-0.02-0.02
		l-0.34-0.32l-0.23-0.23c-0.03-0.03-0.05-0.06-0.08-0.08l-0.02-0.03l0,0c-0.03-0.04-0.07-0.07-0.11-0.1l-0.01-0.01h0l-0.18-0.18
		l0.01-0.01l-0.01-0.01l-0.02-0.02l-0.01,0c-0.46-0.45-0.89-0.91-1.31-1.36l-0.07-0.08l0,0l-0.01-0.01l-0.02-0.03l-0.34-0.37
		l-0.02-0.03l-0.36-0.41l-0.02-0.02l-0.03-0.03c-1.06-1.23-1.94-2.41-2.58-3.44c-0.21-0.34-0.43-0.6-0.63-0.81l-0.08-0.19
		c0.22,0.23,0.52,0.5,0.94,0.76c1.66,1.03,3.72,2.7,5.79,4.77l-0.01,0l0.01,0.01l0.02,0.02l0.01,0c2.06,2.06,3.72,4.11,4.75,5.77
		C794.66,666.94,794.91,667.22,795.12,667.44L795.12,667.44L795.12,667.44z"/>
	<path class="st2" d="M786.41,664.87l0.25,0.24l0.01,0.01l0.01,0.01l0.01,0.01l0.29,0.28l0,0l0.02,0.02
		c0.04,0.04,0.09,0.09,0.14,0.13c0.57,0.53,1.09,0.99,1.55,1.39c0.26,0.22,0.54,0.45,0.82,0.68l0.02,0.02l0.01,0l0.04,0.03
		l0.02,0.02l0,0l0.03,0.03l0.18,0.14l0,0l0.02,0.01c0.9,0.71,1.75,1.32,2.53,1.8c0.3,0.19,0.59,0.35,0.88,0.51l-3.51,2.98
		c-1.3-0.72-2.48-1.54-3.58-2.44c-1.37-1.12-2.62-2.36-3.81-3.69c-0.63-0.7-1.72-0.76-2.42-0.13c-0.71,0.63-0.76,1.72-0.13,2.42
		c1.29,1.44,2.67,2.81,4.19,4.05c1.44,1.17,2.99,2.23,4.68,3.11c0.02,0.09,0.04,0.17,0.05,0.26c0.07,0.36,0.11,0.76,0.13,1.19
		c0.11,2.09-0.46,4.51-2.14,6.45l-0.13,0.13c-4.21,4.02-8.87,5.4-12.99,5.25c-4.06-0.14-7.55-1.73-9.49-3.68l-0.07-0.07h0
		l-0.03-0.04c-0.45-0.5-0.9-1.13-1.33-1.86c-0.44-0.76-0.83-1.6-1.16-2.53c-1.71-4.77-1.71-11.55,3.68-17.4l0,0l0,0l0,0l0.04-0.04
		c1.15-1.13,2.64-1.93,4.29-2.33c0.27-0.06,0.55-0.12,0.83-0.17l0,0l0,0.01c1.44-0.23,2.96-0.15,4.43,0.27
		c0.67,0.19,1.36-0.04,1.78-0.53l0,0l3.49-4.12c0.83,1.63,2.13,3.06,3.36,4.41l0.24,0.27h0l0.36,0.41l0.06,0.07l0.29,0.32l0,0
		l0.3,0.35c0.5,0.59,0.97,1.15,1.67,1.68L786.41,664.87L786.41,664.87z"/>
	<path class="st0" d="M595.77,658.55l0.01-0.01l0.01,0.01c2.19-2.19,4.39-3.97,6.18-5.06c1.84-1.13,3.47-1.6,4.64-1.23
		c0.4,0.05,0.79,0.25,1.08,0.58l5.01,5.89c1.57-0.3,3.16-0.31,4.69-0.06v0c0.36,0.06,0.73,0.14,1.08,0.23
		c2.18,0.55,4.18,1.64,5.73,3.18l0.05,0.05l0,0l0.01,0l-0.01,0.01l0.04,0.04c6.37,6.87,6.43,14.8,4.47,20.37
		c-0.39,1.1-0.85,2.1-1.36,2.99c-0.52,0.9-1.09,1.7-1.69,2.36l0,0l-0.01,0.01l-0.04,0.05l-0.04,0.04l-0.07,0.07l-0.03,0.03
		l-0.01,0.01c-2.39,2.41-6.61,4.35-11.44,4.48c-4.79,0.13-10.22-1.49-15.09-6.15l0,0l0-0.01l-0.14-0.14
		c-0.06-0.05-0.12-0.11-0.17-0.17c-2.3-2.64-3.1-5.88-2.98-8.67c0.02-0.53,0.08-1.06,0.18-1.57c0.02-0.13,0.05-0.26,0.07-0.38
		l-5.88-5.02l0,0c-0.14-0.12-0.26-0.26-0.35-0.42c-0.07-0.12-0.12-0.24-0.16-0.36c-0.13-0.28-0.21-0.56-0.18-0.83
		c-0.11-1.11,0.37-2.54,1.35-4.12c1.09-1.78,2.87-3.97,5.05-6.16l-0.01-0.01L595.77,658.55L595.77,658.55z"/>
	<path class="st2" d="M592.5,667.44c0.1-0.06,0.2-0.11,0.31-0.18c0.17-0.15,0.38-0.31,0.62-0.46c0.62-0.38,1.29-0.85,1.99-1.4
		l0.02-0.02l0.01,0l0,0l0.09-0.07l0.02-0.02l0.02-0.02l0.02-0.02l0.01,0l0.08-0.06l0.02-0.01l0.01-0.01l0.01-0.01l0.02-0.02
		c0.29-0.23,0.61-0.49,0.95-0.78c0.51-0.44,0.99-0.86,1.43-1.27l0.06-0.06l0.02-0.03l0.01,0.01l0.01-0.01h0l0.02-0.02l0.34-0.32
		l0.23-0.23c0.03-0.03,0.05-0.06,0.08-0.08l0.03-0.03l0,0c0.03-0.04,0.07-0.07,0.11-0.1l0.01-0.01l0.18-0.18l0-0.01l0.01-0.01
		l0.02-0.02l0.01,0c0.46-0.45,0.89-0.91,1.31-1.36l0.07-0.08l0,0l0.01-0.01l0.02-0.03l0.33-0.37l0.02-0.03l0.36-0.41l0.02-0.02
		l0.03-0.03c1.06-1.23,1.95-2.41,2.58-3.44c0.21-0.34,0.43-0.6,0.63-0.81l0.08-0.19c-0.22,0.23-0.52,0.5-0.94,0.76
		c-1.66,1.03-3.72,2.7-5.79,4.77l0.01,0l-0.01,0.01l-0.02,0.02l0,0c-2.06,2.06-3.73,4.11-4.75,5.77
		C592.96,666.94,592.71,667.22,592.5,667.44L592.5,667.44L592.5,667.44z"/>
	<path class="st2" d="M601.2,664.87l-0.24,0.24l-0.02,0.01l-0.01,0.01l-0.01,0.01l-0.29,0.28l0,0l-0.02,0.02
		c-0.05,0.04-0.09,0.09-0.14,0.13c-0.57,0.53-1.08,0.99-1.55,1.39c-0.27,0.22-0.54,0.45-0.82,0.68l-0.02,0.02l-0.01,0l-0.04,0.03
		l-0.02,0.02l0,0l-0.03,0.03l-0.18,0.14l0,0l-0.02,0.01c-0.9,0.71-1.75,1.32-2.53,1.8c-0.3,0.19-0.6,0.35-0.88,0.51l3.51,2.98
		c1.29-0.72,2.48-1.54,3.58-2.44c1.36-1.12,2.62-2.36,3.8-3.69c0.63-0.7,1.71-0.76,2.42-0.13c0.71,0.63,0.76,1.72,0.13,2.42
		c-1.29,1.44-2.67,2.81-4.19,4.05c-1.44,1.17-2.99,2.23-4.68,3.11c-0.02,0.09-0.04,0.17-0.05,0.26c-0.07,0.36-0.11,0.76-0.14,1.19
		c-0.11,2.09,0.46,4.51,2.14,6.45l0.13,0.13c4.21,4.02,8.88,5.4,12.99,5.25c4.07-0.14,7.56-1.73,9.5-3.68l0.06-0.07l0.03-0.04
		c0.45-0.5,0.9-1.13,1.33-1.86c0.44-0.76,0.83-1.6,1.16-2.53c1.71-4.77,1.71-11.55-3.67-17.4l0,0l0,0l0,0l-0.04-0.04
		c-1.15-1.13-2.64-1.93-4.29-2.33c-0.27-0.06-0.55-0.12-0.83-0.17l0,0v0.01c-1.44-0.23-2.96-0.15-4.43,0.27
		c-0.67,0.19-1.36-0.04-1.78-0.53v0l-3.5-4.12c-0.82,1.63-2.13,3.06-3.36,4.41l-0.24,0.27l0,0l-0.36,0.41l-0.06,0.07l-0.29,0.32l0,0
		l-0.3,0.35c-0.5,0.59-0.97,1.15-1.67,1.68L601.2,664.87L601.2,664.87z"/>
	<path class="st6" d="M1210.87,646.8v-20.89c0-8.13-0.15-14-0.51-20.17l0.22-0.08c2.47,5.3,5.73,10.88,9.14,16.32l15.52,24.8h6.39
		v-48.89h-5.95v20.45c0,7.62,0.14,13.57,0.72,20.09l-0.15,0.07c-2.32-5.01-5.15-10.16-8.78-15.89l-15.67-24.73h-6.89v48.89H1210.87
		L1210.87,646.8z M1193.61,586.81l-6.68,8.49h5.15l9.29-8.49H1193.61L1193.61,586.81z M1187.58,597.91v48.89h6.31v-48.89H1187.58
		L1187.58,597.91z M1140.58,597.91v28.8c0,15.16,7.54,20.89,17.55,20.89c10.59,0,18.5-6.17,18.5-21.18v-28.51h-6.38v28.94
		c0,10.81-4.64,15.59-11.9,15.59c-6.53,0-11.39-4.64-11.39-15.59l0-28.94H1140.58L1140.58,597.91z M1110.04,642.45
		c-9.86,0-15.59-9.35-15.53-19.73c-0.07-10.59,5.15-20.46,15.82-20.46c10.37,0,15.45,10.08,15.45,19.88
		C1125.78,633.31,1120.12,642.45,1110.04,642.45L1110.04,642.45L1110.04,642.45z M1132.82,648.69c-4.13-0.72-9.43-1.89-14.29-3.12
		v-0.29c8.12-2.83,13.93-10.88,13.93-23.43c0-14.44-8.63-24.73-21.91-24.73c-13.2,0-22.78,10.08-22.78,25.75
		c0,15.74,9.94,24.3,21.54,24.73c0.94,0,1.96,0.37,2.97,0.72c5.66,1.96,12.12,3.92,18.71,5.66L1132.82,648.69L1132.82,648.69z
		 M1052.45,644.4c2.61,1.74,7.76,3.12,12.47,3.12c11.54,0,17.12-6.53,17.12-14.07c0-7.18-4.21-11.17-12.48-14.36
		c-6.75-2.61-9.72-4.86-9.72-9.43c0-3.34,2.54-7.33,9.21-7.33c4.42,0,7.69,1.45,9.28,2.32l1.74-5.15c-2.18-1.23-5.8-2.39-10.81-2.39
		c-9.5,0-15.81,5.66-15.81,13.27c0,6.89,4.93,11.03,12.91,13.86c6.6,2.54,9.21,5.15,9.21,9.72c0,4.93-3.77,8.34-10.23,8.34
		c-4.35,0-8.49-1.45-11.32-3.19L1052.45,644.4L1052.45,644.4z M1024.45,602.26c10.52,0,15.59,10.16,15.59,19.88
		c0,11.1-5.66,20.31-15.67,20.31c-9.93,0-15.6-9.36-15.6-19.8C1008.77,611.91,1014,602.26,1024.45,602.26L1024.45,602.26
		L1024.45,602.26z M1024.73,597.11c-13.06,0-22.7,10.16-22.7,25.68c0,14.8,9.07,24.81,21.98,24.81c12.48,0,22.71-8.92,22.71-25.75
		C1046.72,607.34,1038.08,597.11,1024.73,597.11L1024.73,597.11L1024.73,597.11z M997.25,640.2c-2.54,1.23-6.45,2.03-10.3,2.03
		c-11.9,0-18.79-7.69-18.79-19.66c0-12.84,7.62-20.17,19.08-20.17c4.06,0,7.47,0.87,9.86,2.03l1.52-5.15
		c-1.67-0.87-5.51-2.17-11.6-2.17c-15.16,0-25.54,10.37-25.54,25.67c0,16.03,10.37,24.74,24.15,24.74c5.95,0,10.59-1.16,12.91-2.32
		L997.25,640.2L997.25,640.2z M938.63,618.65h-19.01V603.2h20.09v-5.29h-26.4v48.89h27.49v-5.29h-21.18v-17.63h19.01V618.65
		L938.63,618.65z M871.32,603.2c1.67-0.36,4.13-0.65,7.4-0.65c13.35,0,19.87,7.33,19.8,18.86c0,13.2-7.33,20.74-20.82,20.74
		c-2.47,0-4.79-0.07-6.39-0.36V603.2L871.32,603.2z M865.01,646.66c3.19,0.36,6.96,0.58,11.46,0.58c9.5,0,17.05-2.47,21.62-7.04
		c4.57-4.5,7.04-11.03,7.04-19.01c0-7.91-2.54-13.57-6.89-17.56c-4.28-3.99-10.73-6.09-19.8-6.09c-5,0-9.57,0.44-13.42,1.02V646.66
		L865.01,646.66z M1262.73,530.24c1.67-0.37,4.13-0.66,7.4-0.66c13.35,0,19.87,7.33,19.8,18.86c0,13.2-7.33,20.75-20.82,20.75
		c-2.47,0-4.79-0.07-6.39-0.36V530.24L1262.73,530.24z M1256.42,573.69c3.19,0.36,6.96,0.58,11.46,0.58c9.5,0,17.04-2.46,21.62-7.04
		c4.57-4.5,7.04-11.02,7.04-19c0-7.91-2.54-13.57-6.89-17.55c-4.28-3.99-10.74-6.1-19.8-6.1c-5.01,0-9.57,0.44-13.42,1.01V573.69
		L1256.42,573.69z M1221.24,553.52l4.79-14.14c0.94-2.98,1.74-5.95,2.46-8.85h0.15c0.72,2.83,1.45,5.73,2.54,8.92l4.79,14.07
		H1221.24L1221.24,553.52z M1237.27,558.46l5.22,15.38h6.75l-16.68-48.89h-7.62l-16.61,48.89h6.53l5.08-15.38H1237.27
		L1237.27,558.46z M1171.05,530.24c1.67-0.37,4.13-0.66,7.4-0.66c13.35,0,19.88,7.33,19.81,18.86c0,13.2-7.33,20.75-20.82,20.75
		c-2.46,0-4.79-0.07-6.38-0.36V530.24L1171.05,530.24z M1164.73,573.69c3.19,0.36,6.97,0.58,11.46,0.58c9.5,0,17.04-2.46,21.61-7.04
		c4.57-4.5,7.04-11.02,7.04-19c0-7.91-2.54-13.57-6.89-17.55c-4.28-3.99-10.73-6.1-19.8-6.1c-5,0-9.57,0.44-13.42,1.01V573.69
		L1164.73,573.69z M1117.73,524.94v28.8c0,15.16,7.54,20.89,17.55,20.89c10.59,0,18.5-6.16,18.5-21.18v-28.51h-6.38v28.94
		c0,10.81-4.64,15.6-11.89,15.6c-6.53,0-11.39-4.64-11.39-15.59v-28.94H1117.73L1117.73,524.94z M1100.47,524.94v48.89h6.31v-48.89
		H1100.47L1100.47,524.94z M1091.26,567.23c-2.54,1.23-6.46,2.03-10.3,2.03c-11.9,0-18.79-7.69-18.79-19.66
		c0-12.84,7.62-20.17,19.08-20.17c4.06,0,7.47,0.87,9.86,2.03l1.52-5.15c-1.67-0.87-5.51-2.18-11.61-2.18
		c-15.16,0-25.53,10.37-25.53,25.68c0,16.03,10.37,24.73,24.15,24.73c5.95,0,10.59-1.16,12.91-2.32L1091.26,567.23L1091.26,567.23z
		 M1007.83,553.52l4.79-14.14c0.94-2.98,1.74-5.95,2.47-8.85h0.14c0.73,2.83,1.45,5.73,2.54,8.92l4.78,14.07H1007.83L1007.83,553.52
		z M1023.87,558.46l5.22,15.38h6.75l-16.68-48.89h-7.62l-16.61,48.89h6.53l5.08-15.38H1023.87L1023.87,558.46z M964.38,573.83h27.2
		v-5.3h-20.89v-43.59h-6.31V573.83L964.38,573.83z M938.63,545.69h-19.01v-15.45h20.09v-5.3h-26.4v48.89h27.49v-5.3h-21.18v-17.63
		h19.01V545.69L938.63,545.69z M871.32,530.24c1.67-0.37,4.13-0.66,7.4-0.66c13.35,0,19.87,7.33,19.8,18.86
		c0,13.2-7.33,20.75-20.82,20.75c-2.47,0-4.79-0.07-6.39-0.36V530.24L871.32,530.24z M865.01,573.69c3.19,0.36,6.96,0.58,11.46,0.58
		c9.5,0,17.05-2.46,21.62-7.04c4.57-4.5,7.04-11.02,7.04-19c0-7.91-2.54-13.57-6.89-17.55c-4.28-3.99-10.73-6.1-19.8-6.1
		c-5,0-9.57,0.44-13.42,1.01V573.69L865.01,573.69z M1321.2,457.27c1.67-0.36,4.13-0.65,7.4-0.65c13.35,0,19.87,7.33,19.8,18.86
		c0,13.2-7.33,20.75-20.82,20.75c-2.47,0-4.79-0.07-6.38-0.36V457.27L1321.2,457.27z M1314.89,500.72
		c3.19,0.36,6.96,0.58,11.46,0.58c9.5,0,17.05-2.46,21.62-7.04c4.57-4.5,7.04-11.03,7.04-19.01c0-7.91-2.54-13.56-6.89-17.55
		c-4.28-3.99-10.73-6.1-19.8-6.1c-5.01,0-9.57,0.43-13.42,1.01V500.72L1314.89,500.72z M1279.71,480.55l4.79-14.15
		c0.94-2.97,1.74-5.95,2.46-8.85l0.14,0c0.72,2.83,1.45,5.74,2.54,8.92l4.79,14.07H1279.71L1279.71,480.55z M1295.74,485.49
		l5.22,15.38h6.75l-16.68-48.89h-7.62l-16.61,48.89h6.53l5.07-15.38H1295.74L1295.74,485.49z M1229.51,457.27
		c1.67-0.36,4.14-0.65,7.4-0.65c13.35,0,19.88,7.33,19.8,18.86c0,13.2-7.33,20.75-20.82,20.75c-2.47,0-4.79-0.07-6.39-0.36V457.27
		L1229.51,457.27z M1223.2,500.72c3.19,0.36,6.96,0.58,11.46,0.58c9.5,0,17.05-2.46,21.62-7.04c4.57-4.5,7.04-11.03,7.04-19.01
		c0-7.91-2.54-13.56-6.89-17.55c-4.28-3.99-10.74-6.1-19.81-6.1c-5.01,0-9.57,0.43-13.42,1.01V500.72L1223.2,500.72z
		 M1205.86,451.97v48.89h6.31v-48.89H1205.86L1205.86,451.97z M1171.63,500.86h27.2v-5.3h-20.89v-43.59h-6.31V500.86L1171.63,500.86
		z M1136.44,480.55l4.79-14.15c0.94-2.97,1.74-5.95,2.47-8.85l0.15,0c0.72,2.83,1.45,5.74,2.54,8.92l4.79,14.07H1136.44
		L1136.44,480.55z M1152.48,485.49l5.22,15.38h6.75l-16.68-48.89h-7.62l-16.61,48.89h6.53l5.07-15.38H1152.48L1152.48,485.49z
		 M1101.05,457.13c1.09-0.29,3.19-0.51,5.95-0.51c6.96,0,11.53,3.12,11.53,9.58c0,6.74-4.64,10.44-12.26,10.44
		c-2.1,0-3.84-0.15-5.22-0.51V457.13L1101.05,457.13z M1094.73,500.86h6.31v-19.58c1.45,0.36,3.19,0.43,5.08,0.43
		c6.17,0,11.61-1.81,14.94-5.37c2.46-2.54,3.77-6.02,3.77-10.45c0-4.35-1.59-7.9-4.28-10.23c-2.9-2.61-7.47-4.06-13.71-4.06
		c-5.08,0-9.07,0.43-12.12,0.94V500.86L1094.73,500.86z M1077.4,451.97v48.89h6.31v-48.89H1077.4L1077.4,451.97z M1068.19,494.26
		c-2.54,1.23-6.46,2.03-10.3,2.03c-11.9,0-18.79-7.69-18.79-19.66c0-12.84,7.62-20.17,19.08-20.17c4.06,0,7.47,0.87,9.86,2.03
		l1.52-5.15c-1.67-0.87-5.51-2.18-11.6-2.18c-15.16,0-25.53,10.37-25.53,25.68c0,16.03,10.37,24.73,24.15,24.73
		c5.95,0,10.59-1.16,12.91-2.32L1068.19,494.26L1068.19,494.26z M1017.99,451.97v48.89h6.31v-48.89H1017.99L1017.99,451.97z
		 M976.21,500.86v-20.89c0-8.12-0.15-14-0.51-20.16l0.22-0.07c2.47,5.3,5.73,10.88,9.14,16.32l15.52,24.81h6.39v-48.89h-5.95v20.45
		c0,7.62,0.15,13.57,0.72,20.1l-0.14,0.07c-2.32-5-5.15-10.15-8.78-15.88l-15.67-24.74h-6.89v48.89H976.21L976.21,500.86z
		 M923.25,451.97v28.8c0,15.16,7.54,20.89,17.55,20.89c10.59,0,18.5-6.17,18.5-21.18v-28.51h-6.38v28.94
		c0,10.81-4.65,15.6-11.9,15.6c-6.53,0-11.39-4.64-11.39-15.6l0-28.94H923.25L923.25,451.97z M907.44,500.86h6.17l-3.05-48.89h-8.05
		l-8.7,23.65c-2.18,6.17-3.92,11.53-5.15,16.47l-0.22,0c-1.23-5.08-2.9-10.44-4.93-16.46l-8.34-23.65h-8.05l-3.41,48.89h6.02
		l1.31-20.96c0.44-7.33,0.8-15.52,0.94-21.62l0.15,0c1.38,5.8,3.33,12.11,5.66,19l7.91,23.28h4.78l8.63-23.72
		c2.47-6.75,4.5-12.84,6.17-18.57l0.22,0c-0.07,6.09,0.36,14.29,0.72,21.11L907.44,500.86L907.44,500.86z"/>
</g>
</svg>
