<?xml version="1.0" encoding="UTF-8"?>
<!DOCTYPE svg PUBLIC "-//W3C//DTD SVG 1.1//EN" "http://www.w3.org/Graphics/SVG/1.1/DTD/svg11.dtd">
<!-- Creator: CorelDRAW X7 -->
<svg xmlns="http://www.w3.org/2000/svg" xml:space="preserve" width="2205px" height="1450px" version="1.1" style="shape-rendering:geometricPrecision; text-rendering:geometricPrecision; image-rendering:optimizeQuality; fill-rule:evenodd; clip-rule:evenodd"
viewBox="0 0 1259 827"
 xmlns:xlink="http://www.w3.org/1999/xlink">
 <defs>
  <style type="text/css">
   <![CDATA[
    .fil0 {fill:#FEFEFE}
   ]]>
  </style>
 </defs>
 <g id="Capa_x0020_1">
  <metadata id="CorelCorpID_0Corel-Layer"/>
  <g id="_2281644463040">
   <g>
    <path class="fil0" d="M289 197c7,-1 15,0 22,2 9,1 18,4 27,6 6,1 12,2 18,3 3,1 7,1 10,2 9,2 18,6 24,13 8,9 13,20 14,32 0,2 0,4 0,6 0,7 -2,18 -9,20 -7,2 -13,-6 -16,-11 -2,-2 -3,-4 -4,-6 -1,-4 -3,-7 -5,-11 -5,-8 -11,-17 -18,-23 -12,-10 -29,-12 -43,-15 -9,-2 -18,6 -24,12 -4,4 -10,10 -9,17 0,3 7,8 9,10 8,5 17,9 25,13 17,10 34,20 51,31 6,4 13,8 20,12 5,3 11,7 14,12 6,17 0,38 0,55 -1,20 4,40 -13,55 -5,5 -17,6 -24,8 -8,2 -16,3 -23,4 -9,2 -18,3 -27,4 -11,1 -22,3 -33,4 -8,2 -17,3 -25,5 -31,9 -36,-6 -48,-30 -3,-7 -7,-14 -9,-21 -4,-8 -8,-17 -12,-26 -3,-7 -6,-15 -9,-22 -2,-6 -5,-11 -8,-16 -6,-13 -5,-23 6,-33 1,-2 3,-3 4,-4 7,-6 18,-12 27,-8 3,2 5,4 7,7 1,4 0,9 -1,13 -1,4 -3,8 -4,13 -4,17 2,49 10,65 5,11 15,18 25,24 4,1 10,5 13,6 11,1 23,0 33,-2 13,-2 26,-4 38,-8 5,-1 9,-2 14,-4 2,0 5,-1 8,-2 9,-4 16,-16 19,-25 4,-8 8,-24 3,-33 -16,-31 -69,-58 -98,-78 -6,-3 -14,-7 -18,-13 -4,-5 -5,-12 -4,-18 1,-12 4,-19 12,-27 7,-8 21,-16 31,-18z"/>
    <path class="fil0" d="M520 268c22,0 28,15 28,35 0,18 0,36 0,54 0,3 0,7 0,10 0,5 0,10 1,14 1,2 1,4 2,6 3,6 8,12 12,18 2,3 3,7 3,11 0,3 -1,6 -4,8 -1,1 -2,1 -2,1 -6,2 -12,-1 -16,-4 -4,-2 -7,-3 -11,-3 -13,0 -32,10 -43,17 -9,6 -24,12 -35,12 -13,0 -19,-8 -22,-19 -4,-11 -9,-21 -13,-32 -4,-12 -3,-24 10,-30 0,-1 2,-1 3,-2 2,-1 4,-2 6,-2 6,-3 12,-6 18,-9 9,-5 18,-10 27,-15 5,-2 14,-7 20,-2 0,0 1,1 1,1 3,5 1,10 -2,14 -3,4 -7,7 -12,9 -10,2 -29,13 -34,22 0,0 -1,1 -1,1 -1,5 5,13 9,16 1,1 3,2 4,3 9,5 15,2 23,-1 6,-2 13,-5 18,-9 3,-3 5,-5 6,-9 1,-3 1,-6 1,-10 1,-5 1,-9 2,-14 1,-7 6,-12 6,-19 0,-9 0,-18 -1,-27 -1,-4 -2,-11 -5,-14 -6,-2 -13,-1 -18,1 -8,3 -15,8 -21,15 -5,6 -12,13 -20,18 -5,3 -10,6 -16,5 -5,-1 -11,-5 -13,-10 -1,-1 -1,-2 -1,-2 -3,-11 10,-20 18,-25 7,-5 15,-8 22,-13 13,-8 35,-20 50,-20z"/>
    <path class="fil0" d="M675 283c16,21 23,48 23,74 0,23 -3,53 -13,73 -3,5 -8,14 -14,16 -3,1 -7,1 -11,-1 -3,-2 -6,-6 -7,-10 -5,-15 0,-32 5,-47 4,-13 15,-37 10,-50 -3,-10 -10,-23 -19,-30 -8,-6 -15,-8 -25,-8 -7,0 -12,6 -14,13 -3,10 0,26 0,37 0,5 0,9 1,14 0,7 0,15 1,22 0,3 0,6 0,10 0,7 1,14 0,22 0,6 -1,13 -6,17 -3,2 -6,3 -9,3 -8,0 -15,-4 -18,-11 -4,-9 -3,-21 -2,-30 0,-8 0,-16 0,-24 0,-5 0,-11 0,-16 0,-6 0,-12 0,-17 1,-8 1,-15 0,-23 0,-9 -1,-18 -3,-26 -1,-5 -4,-8 -7,-11 -3,-3 -7,-6 -8,-11 -1,-3 1,-6 3,-9 3,-2 7,-5 10,-5 7,1 13,6 18,10 6,5 13,9 20,11 4,1 8,1 12,0 1,0 3,-1 4,-1 8,-3 16,-7 24,-7 11,0 19,7 25,15z"/>
    <path class="fil0" d="M713 139c8,0 15,5 17,13 1,6 2,11 2,17 0,6 -1,13 -1,20 0,15 1,30 5,44 0,2 1,3 3,4 4,3 12,1 16,0 7,-1 16,-3 23,1 4,3 5,8 5,13 0,6 -2,11 -6,16 -5,4 -12,6 -19,7 -5,0 -9,1 -14,1 -1,0 -5,1 -6,2 0,0 0,0 0,0 0,14 -2,27 -2,41 -1,17 -2,35 1,52 1,10 4,24 11,33 3,4 7,7 11,10 3,3 7,7 6,11 0,4 -3,7 -6,9 -7,4 -18,0 -24,-4 -10,-6 -18,-15 -23,-26 -3,-9 -4,-20 -4,-30 0,-11 1,-22 0,-33 0,-19 -3,-38 -3,-57 0,-11 -1,-21 -3,-32 -2,-10 -4,-20 -4,-31 0,-9 0,-18 0,-27 0,-8 0,-16 0,-24 0,-8 0,-23 8,-28 2,-1 4,-2 7,-2z"/>
    <path class="fil0" d="M872 246c22,0 28,15 28,35 0,18 0,36 0,54 0,4 0,7 0,10 0,5 0,10 1,14 1,2 1,4 2,6 3,7 8,12 12,18 2,3 3,7 3,11 0,4 -1,7 -4,8 -1,1 -2,1 -2,1 -6,2 -12,-1 -16,-3 -3,-2 -6,-3 -9,-3 -6,1 -13,4 -18,6 -15,6 -29,13 -43,18 -6,2 -13,4 -19,4 -13,0 -18,-8 -22,-19 -4,-9 -8,-19 -11,-29 -2,-6 -3,-13 1,-19 4,-7 12,-11 18,-15 5,-2 9,-5 13,-7 5,-4 11,-8 15,-12 5,-4 10,-9 15,-12 6,-3 15,-4 19,3 3,3 3,9 1,13 -3,5 -8,8 -13,10 -10,2 -29,13 -34,22 0,1 -1,1 -1,1 -1,6 5,13 9,16 1,1 3,3 4,3 9,6 15,2 23,-1 6,-2 13,-4 18,-9 3,-2 4,-5 6,-8 1,-3 1,-7 1,-10 0,-5 1,-10 1,-15 1,-7 6,-12 6,-19 0,-6 1,-12 2,-18 1,-5 1,-12 0,-17 0,-1 -1,-3 -2,-4 -4,-2 -12,2 -15,4 -5,3 -11,6 -16,9 -11,7 -22,14 -33,21 -4,3 -10,6 -15,5 -6,-1 -12,-7 -14,-12 -1,-1 -1,-2 -1,-3 -1,-10 13,-18 20,-22 9,-6 20,-11 30,-17 12,-8 25,-18 40,-18z"/>
    <path class="fil0" d="M1210 414c23,0 26,16 27,35 0,18 0,36 0,54 0,10 1,21 5,30 3,6 7,11 10,17 2,4 4,7 4,11 0,4 -2,7 -5,8 0,1 -1,1 -2,1 -5,2 -13,-3 -18,-6 -2,-1 -5,-2 -8,-2 -2,1 -4,2 -6,3 -3,1 -6,2 -9,4 -15,6 -29,15 -44,20 -6,2 -12,4 -19,4 -12,0 -18,-8 -22,-19 -3,-10 -7,-19 -10,-29 -2,-7 -3,-14 0,-20 4,-7 12,-11 18,-15 9,-5 19,-13 27,-20 5,-4 11,-7 16,-10 7,-3 15,-4 20,2 3,4 3,9 1,14 -3,5 -8,8 -14,9 -8,2 -31,10 -34,19 -2,4 1,9 3,13 2,3 5,7 8,9 11,7 24,-2 32,-9 3,-3 7,-5 10,-8 2,-1 5,-3 7,-5 1,-2 1,-7 0,-9 0,-4 0,-7 0,-10 2,-7 6,-12 6,-19 0,-6 1,-13 1,-20 0,-5 1,-13 -1,-18 0,-1 -1,-2 -2,-3 -4,-3 -12,1 -15,3 -9,5 -18,12 -26,18 -7,5 -14,10 -21,14 -5,3 -10,6 -16,5 -5,0 -11,-7 -14,-12 0,-1 0,-2 -1,-3 0,-10 13,-18 20,-22 10,-6 21,-11 31,-17 12,-7 27,-17 41,-17z"/>
    <path class="fil0" d="M906 436c22,0 29,19 29,39 0,18 1,36 1,54 0,6 0,13 0,19 0,4 0,9 1,13 1,2 2,4 3,6 0,2 3,4 4,6 3,3 6,6 7,10 1,3 3,7 0,9 -4,5 -14,0 -18,-3 -2,-1 -5,-2 -8,-2 -3,1 -5,2 -8,3 -3,1 -6,3 -9,4 -15,6 -29,15 -44,20 -6,2 -13,4 -19,4 -13,0 -18,-8 -22,-19 -3,-6 -4,-14 -6,-20 -1,-7 -2,-14 -4,-20 -3,-9 1,-19 8,-25 4,-4 10,-6 16,-9 4,-3 8,-5 12,-8 5,-3 10,-6 15,-9 3,-2 7,-4 11,-7 6,-3 15,-4 20,2 2,4 2,10 0,14 -2,5 -8,8 -13,10 -7,2 -14,4 -21,7 -5,2 -17,7 -19,12 -1,4 2,10 4,13 2,4 8,10 11,13 3,1 6,2 9,1 2,0 4,-1 5,-2 3,-1 5,-2 8,-3 5,-2 14,-3 18,-8 7,-10 7,-24 9,-35 0,-6 2,-11 3,-16 0,-3 1,-7 1,-10 0,-7 1,-19 -1,-26 0,-2 -1,-3 -2,-4 -4,-3 -12,1 -15,3 -10,6 -20,14 -29,21 -5,4 -10,7 -16,11 -4,3 -10,6 -15,5 -6,-1 -12,-7 -14,-12 -1,-1 -1,-2 -1,-3 -1,-10 13,-18 19,-22 11,-7 22,-9 32,-15 12,-8 22,-21 38,-21z"/>
    <path class="fil0" d="M1083 441c2,0 4,1 6,2 3,2 4,7 5,11 1,5 1,10 1,15 1,8 2,16 3,25 1,10 2,20 2,30 0,8 1,17 2,25 2,9 3,19 4,28 0,7 0,16 -5,22 0,1 -1,2 -1,2 -5,4 -13,4 -19,2 -3,0 -6,-1 -9,-1 -2,-1 -4,-1 -5,-1 -4,0 -7,-1 -9,-3 -3,-3 -3,-7 -3,-11 1,-5 2,-10 2,-14 3,-14 5,-28 5,-42 0,-8 2,-16 3,-23 2,-7 3,-13 5,-19 1,-6 2,-11 3,-17 1,-5 1,-11 1,-16 0,-4 0,-9 3,-12 2,-2 4,-2 6,-3z"/>
    <path class="fil0" d="M1024 413c18,0 32,3 41,20 2,5 0,12 0,17 -2,9 -3,18 -12,24 -8,6 -17,1 -24,-5 -3,-3 -10,-5 -14,-5 -3,-1 -6,0 -8,2 -1,2 -3,4 -3,6 0,32 -2,64 -1,95 0,10 2,19 2,28 1,6 1,15 -4,19 -3,3 -6,4 -10,4 -10,0 -24,-5 -26,-17 -2,-5 0,-12 1,-17 1,-8 2,-14 3,-22 0,-5 0,-10 -1,-15 -1,-6 -1,-12 -2,-18 0,-5 -1,-10 -1,-15 0,-11 -1,-28 -6,-38 -4,-6 -9,-11 -15,-16 -4,-4 -9,-9 -10,-15 0,-1 0,-2 1,-3 1,-4 3,-8 5,-11 5,-4 10,-7 16,-6 6,0 10,4 14,8 2,2 6,5 9,5 1,1 2,0 3,0 2,-1 3,-2 4,-3 5,-5 7,-11 13,-16 7,-6 17,-6 25,-6z"/>
    <path class="fil0" d="M504 542c3,-1 9,-4 12,-6 7,-5 14,-10 22,-15 10,-8 20,-14 30,-21 13,-10 26,-19 38,-30 9,-8 18,-22 31,-21 4,0 7,1 9,3 4,2 6,6 10,7 31,16 58,52 78,79 3,4 5,7 8,10 4,3 8,7 12,10 3,3 7,6 10,10 1,0 1,1 2,2 5,3 13,3 18,3 5,0 9,0 13,1 9,1 14,3 16,12 2,7 6,16 0,22 -5,4 -15,3 -21,3 -2,0 -3,0 -5,0 -24,0 -58,7 -76,-17 -4,-5 -8,-11 -12,-16 -6,-7 -11,-14 -17,-20 -8,-9 -16,-18 -25,-27 -2,-2 -11,-11 -14,-12 0,0 -1,0 -1,0 -2,1 -4,3 -5,4 -3,3 -6,5 -10,8 -5,3 -13,4 -20,6 -3,1 -6,2 -9,4 -10,7 -20,15 -29,23 -14,12 -28,24 -43,35 -7,6 -22,18 -32,18 -4,0 -5,-4 -6,-7 0,-3 -1,-6 -1,-9 -1,-2 -1,-5 -3,-7 -9,-11 -18,-22 -26,-33 -8,-10 -17,-20 -26,-29 -2,-3 -12,-12 -15,-12 -1,0 -2,0 -2,0 -6,1 -12,6 -16,9 -6,6 -12,12 -19,17 -19,13 -39,27 -58,41 -15,11 -30,22 -45,34 -9,7 -17,15 -25,23 -8,6 -16,12 -25,15 -1,0 -2,0 -4,0 -37,5 -74,11 -112,17 -14,2 -28,4 -43,6 -10,2 -21,3 -32,3 -5,0 -11,-1 -16,-4 -4,-2 -7,-5 -8,-10 0,0 0,-1 0,-2 1,-6 5,-10 10,-13 7,-3 15,-5 23,-6 9,-1 18,-6 26,-11 5,-3 10,-4 16,-5 2,-1 5,-1 7,-1 5,0 11,1 16,1 8,0 16,-1 25,-3 8,-2 17,-3 26,-5 11,-2 22,-4 32,-8 12,-4 24,-9 36,-15 14,-7 28,-15 42,-23 11,-8 22,-16 32,-26 5,-6 11,-11 17,-17 9,-9 19,-18 28,-28 7,-8 15,-16 22,-25 6,-7 10,-15 14,-23 3,-4 6,-11 12,-11 0,0 1,0 2,0 6,2 15,9 20,13 10,8 19,17 27,26 5,5 10,10 15,15 8,9 16,18 25,26 4,4 12,11 19,12z"/>
    <path class="fil0" d="M735 765l-19 -4 0 0c-2,-1 -10,-3 -12,-4 -4,0 -9,-2 -12,-2 -29,0 -58,0 -87,3 -35,4 -70,12 -105,19 -23,4 -46,9 -69,9 -29,0 -56,-11 -83,-18 -16,-4 -32,-5 -48,-5l-38 0c-10,0 -20,1 -30,2 -15,2 -31,4 -46,4 -14,0 -27,1 -40,1 -4,-1 -15,-1 -18,1 -1,1 -2,2 -4,3 -2,2 -4,3 -6,5l-1 1 -49 0 -1 -1c-3,-2 -5,-4 -7,-6 -3,-3 -5,-7 -5,-11 0,-6 2,-11 5,-16 4,-6 11,-10 19,-12 11,-3 24,-5 36,-7 14,-2 29,-3 43,-4 21,-1 41,-1 62,-1 13,-1 26,0 39,0 13,0 23,2 36,6 8,2 15,4 23,5 10,1 21,1 31,0 11,0 23,-1 34,-2 9,-1 19,-2 28,-3l0 0 60 -1c7,0 11,2 16,5 4,2 7,3 12,3l10 0 90 -10 75 -8 54 1 99 11 48 0c5,0 8,0 13,-2 4,-1 8,-2 13,-2l0 0c6,0 13,0 20,-1 4,0 9,0 13,-1 3,-1 6,-1 9,-2 21,-9 46,-13 68,-15 14,-2 27,-2 41,-1 10,0 20,1 30,2 6,0 15,2 20,4 15,8 11,22 -2,29 -8,3 -19,5 -27,7 -12,1 -24,2 -36,3 -14,1 -29,2 -43,3 -6,0 -12,1 -18,1 -21,2 -42,4 -63,5 -16,1 -32,3 -48,3 -3,0 -5,-1 -8,-1 -11,0 -23,0 -34,2 -6,1 -12,2 -18,3 -4,1 -8,2 -12,3 -3,0 -6,1 -9,1l-20 0 -23 -3 -6 -2z"/>
    <path class="fil0" d="M1089 802c-35,6 -70,10 -105,12 -28,1 -56,0 -84,3 -21,2 -43,7 -64,9 -22,2 -44,1 -65,0 -9,-1 -18,-1 -27,-2 -13,-1 -25,-1 -38,-2 -11,-1 -21,-2 -32,-4 -6,0 -24,-3 -24,-13 1,-9 19,-10 25,-11 25,-1 51,-4 76,-2 11,0 21,7 32,7 11,-1 21,-3 31,-4 11,-2 23,-4 34,-5 17,0 34,2 51,2l0 0 0 0c3,0 6,-1 9,-1 5,0 10,-1 14,-1 14,-2 27,-4 40,-6 35,-4 70,-9 106,-13 27,-2 188,-17 191,26l0 0 0 0c0,9 -8,18 -15,22 -10,6 -19,0 -29,-1 -20,-4 -40,-5 -60,-9 -10,-2 -20,-4 -30,-5 -11,-2 -24,-4 -36,-2z"/>
    <path class="fil0" d="M370 652c11,0 23,1 34,2 12,2 25,3 38,3 25,0 50,0 76,0 24,-1 48,0 72,0 3,0 5,0 8,-1 9,0 19,-2 28,-4 11,-2 21,-3 32,-3 43,0 85,-2 127,0 30,1 60,7 90,7 8,-1 16,-2 23,-3 12,-1 24,-3 36,-5 30,-4 60,-9 91,-12 29,-4 60,-7 90,-7 13,0 28,-1 41,1 10,1 21,4 28,11 5,5 6,13 5,20 -1,5 -4,9 -8,12 -11,6 -48,1 -61,0 -5,0 -10,-1 -14,-1 -18,-1 -36,-2 -54,-2 -7,0 -13,0 -20,0 -3,0 -6,0 -10,0 -17,2 -33,9 -50,12 -23,3 -47,3 -71,4 -9,1 -19,3 -28,5 -11,2 -21,4 -32,4 -1,0 -3,0 -5,-1 -6,-1 -11,-3 -17,-5 -5,-3 -11,-5 -17,-5 -11,-1 -22,-1 -34,-1 -10,0 -20,0 -29,0 -9,-1 -16,0 -24,2 -5,2 -10,3 -15,4 -7,2 -15,3 -22,3 -2,0 -4,0 -6,0 -5,-1 -10,-3 -14,-5 -6,-2 -11,-3 -16,-4 -12,-2 -25,-2 -36,-1 -9,0 -14,3 -21,7 -7,4 -13,6 -22,6 -72,1 -143,7 -215,5 -6,0 -19,-1 -19,-10 0,-8 15,-19 21,-24 4,-2 7,-5 11,-8 2,-2 4,-4 7,-5l1 -1 1 0z"/>
    <path class="fil0" d="M567 142c5,7 -2,16 -6,22 -8,9 -19,18 -28,25 -3,2 -5,4 -7,6 -2,3 -5,6 -8,8 -5,4 -11,6 -17,8 -7,3 -14,6 -21,8 -1,0 -2,1 -3,1 -11,4 -22,9 -33,12 -6,1 -15,2 -18,-4 -1,-3 0,-7 2,-9 2,-3 6,-6 9,-8 4,-2 9,-4 14,-6 6,-3 12,-5 18,-7 12,-6 24,-14 36,-22 11,-9 22,-18 33,-27 5,-5 17,-14 25,-11 2,1 3,2 4,4z"/>
    <path class="fil0" d="M434 0c5,1 7,5 7,9 1,5 0,11 -2,16 -1,6 -4,12 -7,18 -3,6 -7,13 -11,19 -3,6 -6,12 -9,18 -2,2 -2,17 -2,20 0,5 0,9 0,14 0,3 0,8 -1,10 -4,7 -8,15 -13,21 -3,3 -7,6 -10,6 -1,0 -1,0 -2,0 -5,-1 -4,-11 -4,-16 1,-9 3,-18 5,-26 2,-6 4,-11 7,-16 1,-3 2,-5 3,-8 3,-8 4,-15 5,-23 3,-15 12,-60 31,-62 1,0 2,0 3,0z"/>
    <path class="fil0" d="M240 13c3,-1 5,-1 8,0 7,3 8,16 9,23 1,11 2,23 4,34 1,2 1,5 2,7 2,8 6,17 10,25 3,6 7,12 11,19 1,2 2,3 3,5 0,2 1,3 2,5 4,9 6,15 6,25 0,6 -1,15 -8,16 -4,1 -7,-1 -9,-4 -2,-3 -4,-7 -5,-11 -1,-5 -1,-10 -2,-16 0,-1 0,-2 -1,-4 -1,-3 -2,-6 -3,-9 -3,-7 -6,-14 -10,-21 -3,-8 -7,-15 -10,-23 -3,-8 -5,-15 -8,-22 -2,-6 -4,-13 -5,-19 -2,-8 -5,-21 2,-27 1,-1 2,-2 4,-3z"/>
    <path class="fil0" d="M87 104c1,-1 2,-2 3,-2 5,-2 11,2 15,5 6,4 11,9 17,14 3,2 6,3 9,4 5,1 9,2 13,4 5,4 7,10 12,15 7,8 15,17 22,26 3,3 5,6 8,9 1,2 3,4 4,6 2,5 6,14 0,18 -3,2 -6,1 -9,0 -4,-2 -7,-4 -10,-7 -2,-2 -5,-5 -7,-6 -4,-3 -8,-6 -12,-10 -7,-7 -12,-16 -19,-23 -4,-3 -6,-7 -8,-11 -2,-3 -4,-7 -7,-9 -4,-4 -7,-6 -12,-8 -4,-1 -8,-2 -11,-4 -5,-3 -11,-8 -11,-14 1,-3 2,-5 3,-7z"/>
    <path class="fil0" d="M145 232c3,3 11,10 8,15 -2,3 -6,3 -8,2 -4,-1 -7,-3 -10,-4 -4,-2 -8,-4 -12,-6 -3,-1 -7,-3 -11,-5 -4,-1 -7,-1 -11,-1 -4,0 -8,0 -12,-2 -18,-8 -35,-16 -55,-19 -5,0 -12,-2 -14,-7 -2,-2 -1,-5 0,-7 0,-2 1,-3 2,-4 5,-4 14,-1 20,1 9,3 18,7 27,9 1,1 1,1 2,1 5,1 9,0 14,0 8,-1 16,-2 24,1 13,7 25,16 36,26z"/>
    <path class="fil0" d="M122 319c1,6 -6,12 -11,15 -8,5 -17,8 -27,11 -9,2 -19,1 -28,-1 -8,-2 -16,-5 -24,-7 -5,-1 -10,-2 -15,-3 -3,-1 -7,-2 -10,-3 -3,-1 -7,-3 -7,-7 0,-3 4,-5 6,-6 4,-1 9,-1 13,-2 2,0 4,0 6,0 5,0 9,0 14,0 21,1 44,6 64,-2 5,-2 11,-4 16,-1 2,2 3,4 3,6z"/>
    <path class="fil0" d="M21 476c-3,-2 -4,-7 -3,-11 0,-6 3,-12 6,-18 16,-26 39,-28 65,-40 1,-1 3,-2 4,-3 3,-1 6,-3 8,-4 4,-2 7,-4 10,-5 3,-1 7,-3 10,0 2,3 0,6 -2,8 -2,3 -5,6 -8,9 -9,8 -21,15 -31,21 -7,4 -14,8 -21,13 -1,2 -3,5 -4,6 -2,4 -4,7 -6,10 -4,7 -11,18 -20,18 -3,0 -6,-1 -8,-4z"/>
    <path class="fil0" d="M137 508c4,-2 8,-4 12,-5 3,-1 6,-2 9,1 3,4 -1,11 -3,15 -4,7 -8,14 -12,22 -5,8 -9,17 -15,25 -5,6 -11,12 -18,14 -8,1 -14,0 -19,-7 -7,-10 -7,-19 0,-29 5,-6 11,-12 17,-17 9,-6 19,-13 29,-19z"/>
    <path class="fil0" d="M1115 334c12,-4 20,4 23,8 7,9 -11,33 -25,51 -3,3 -21,30 -25,28 -5,-1 2,-26 3,-31 4,-22 10,-52 24,-56z"/>
   </g>
  </g>
 </g>
</svg>
