<svg xmlns="http://www.w3.org/2000/svg" width="294.611" height="334.976" viewBox="0 0 294.611 334.976"><defs><style>.a{opacity:0.08;}.b{fill:#fff;}</style></defs><g class="a" transform="translate(-30.849)"><g transform="translate(30.849 12.495)"><g transform="translate(0)"><path class="b" d="M303.1,138.705l-111-111a29.436,29.436,0,0,0-45.211,37.282l-.154.773A205.37,205.37,0,0,1,90.39,171.039L39.477,221.952a29.416,29.416,0,0,0,0,41.625l27.749,27.749a29.417,29.417,0,0,0,41.625,0l6.938-6.938,48.562,48.562a29.433,29.433,0,1,0,41.624-41.624l-20.812-20.812,6.938-6.938a29.415,29.415,0,0,0,0-41.624l-4.715-4.715a205.4,205.4,0,0,1,77.66-33.169l.783-.156a29.469,29.469,0,0,0,37.272-3.585h0A29.467,29.467,0,0,0,303.1,138.705ZM94.977,277.452a9.807,9.807,0,0,1-13.875,0L53.352,249.7a9.805,9.805,0,0,1,0-13.875l48.562-48.562,41.625,41.625ZM192.1,305.2a9.811,9.811,0,0,1-13.875,13.875l-48.562-48.562,13.875-13.875Zm-34.687-62.437c2.949-2.949,7.364-7.467,14.332-13.418l6.48,6.481a9.805,9.805,0,0,1,0,13.875l-6.938,6.938Zm.417-27.332-42.459-42.46A224.676,224.676,0,0,0,163.137,81.99l85.675,85.675A224.662,224.662,0,0,0,157.83,215.432Zm131.394-48.979a9.806,9.806,0,0,1-13.875,0l-111-111a9.811,9.811,0,1,1,13.875-13.875l111,111A9.824,9.824,0,0,1,289.224,166.453Z" transform="translate(-30.849 -19.098)"/></g></g><g transform="translate(78.228 212.475)"><path class="b" d="M133.889,327.635a9.811,9.811,0,0,0-13.875,0L106.139,341.51a9.811,9.811,0,1,0,13.875,13.875l13.875-13.875A9.811,9.811,0,0,0,133.889,327.635Z" transform="translate(-103.266 -324.762)"/></g><g transform="translate(227.35)"><path class="b" d="M341.005,0a9.811,9.811,0,0,0-9.811,9.811V29.433a9.811,9.811,0,1,0,19.621,0V9.811A9.811,9.811,0,0,0,341.005,0Z" transform="translate(-331.194)"/></g><g transform="translate(286.216 78.488)"><g transform="translate(0)"><path class="b" d="M450.6,119.966H430.98a9.811,9.811,0,0,0,0,19.622H450.6a9.811,9.811,0,1,0,0-19.622Z" transform="translate(-421.169 -119.966)"/></g></g><g transform="translate(266.594 19.622)"><path class="b" d="M427.548,32.864a9.811,9.811,0,0,0-13.875,0L394.051,52.487a9.811,9.811,0,1,0,13.875,13.875l19.622-19.622A9.811,9.811,0,0,0,427.548,32.864Z" transform="translate(-391.178 -29.991)"/></g></g></svg>